<svg width="18" height="18" viewBox="0 0 18 18" fill="none" xmlns="http://www.w3.org/2000/svg">
<path d="M3.96967 6.96967C4.26256 6.67678 4.73744 6.67678 5.03033 6.96967L8.03033 9.96967C8.32322 10.2626 8.32322 10.7374 8.03033 11.0303L5.03033 14.0303C4.73744 14.3232 4.26256 14.3232 3.96967 14.0303C3.67678 13.7374 3.67678 13.2626 3.96967 12.9697L6.43934 10.5L3.96967 8.03033C3.67678 7.73744 3.67678 7.26256 3.96967 6.96967Z" fill="#404040"/>
<path d="M9.75 12.75C9.33579 12.75 9 13.0858 9 13.5C9 13.9142 9.33579 14.25 9.75 14.25H13.5C13.9142 14.25 14.25 13.9142 14.25 13.5C14.25 13.0858 13.9142 12.75 13.5 12.75H9.75Z" fill="#404040"/>
<path fill-rule="evenodd" clip-rule="evenodd" d="M3 0C1.34315 0 0 1.34315 0 3V15C0 16.6569 1.34315 18 3 18H15C16.6569 18 18 16.6569 18 15V3C18 1.34315 16.6569 0 15 0H3ZM15 1.5H3C2.17157 1.5 1.5 2.17157 1.5 3V15C1.5 15.8284 2.17157 16.5 3 16.5H15C15.8284 16.5 16.5 15.8284 16.5 15V3C16.5 2.17157 15.8284 1.5 15 1.5Z" fill="#404040"/>
</svg>
