<svg width="21" height="19" viewBox="0 0 21 19" fill="none" xmlns="http://www.w3.org/2000/svg">
<path fill-rule="evenodd" clip-rule="evenodd" d="M8.40901 1.84835L10.3107 3.75H16.75C18.4069 3.75 19.75 5.09315 19.75 6.75V8.46876C19.3002 8.06617 18.7961 7.72302 18.25 7.45164V6.75C18.25 5.92157 17.5784 5.25 16.75 5.25H10.25L8.25 6.75C7.60089 7.23683 6.81139 7.5 6 7.5H1.75V14.25C1.75 15.0784 2.42157 15.75 3.25 15.75H8.88409C9.07285 16.284 9.3269 16.7872 9.63666 17.25H3.25C1.59315 17.25 0.25 15.9069 0.25 14.25V3C0.25 1.75736 1.25736 0.75 2.5 0.75H5.75736C6.75192 0.75 7.70575 1.14509 8.40901 1.84835ZM1.75 3C1.75 2.58579 2.08579 2.25 2.5 2.25H5.75736C6.3541 2.25 6.92639 2.48705 7.34835 2.90901L8.85819 4.41885L7.35 5.55C6.96053 5.8421 6.48683 6 6 6H1.75V3Z" fill="#404040"/>
<path fill-rule="evenodd" clip-rule="evenodd" d="M20.5 13.5C20.5 16.3995 18.1495 18.75 15.25 18.75C12.3505 18.75 10 16.3995 10 13.5C10 10.6005 12.3505 8.25 15.25 8.25C18.1495 8.25 20.5 10.6005 20.5 13.5ZM15.25 10.5C14.8358 10.5 14.5 10.8358 14.5 11.25V12.75H13C12.5858 12.75 12.25 13.0858 12.25 13.5C12.25 13.9142 12.5858 14.25 13 14.25H14.5V15.75C14.5 16.1642 14.8358 16.5 15.25 16.5C15.6642 16.5 16 16.1642 16 15.75V14.25H17.5C17.9142 14.25 18.25 13.9142 18.25 13.5C18.25 13.0858 17.9142 12.75 17.5 12.75H16V11.25C16 10.8358 15.6642 10.5 15.25 10.5Z" fill="#404040"/>
</svg>
