<svg width="14" height="12" viewBox="0 0 14 12" fill="none" xmlns="http://www.w3.org/2000/svg">
<path d="M2.23223 1.73223C2.70107 1.26339 3.33696 1 4 1H5C5.27614 1 5.5 0.776143 5.5 0.5C5.5 0.223857 5.27614 0 5 0H4C3.07174 0 2.1815 0.368749 1.52513 1.02513C0.868749 1.6815 0.5 2.57174 0.5 3.5C0.5 4.42826 0.868749 5.3185 1.52513 5.97487C2.1815 6.63125 3.07174 7 4 7H5C5.27614 7 5.5 6.77614 5.5 6.5C5.5 6.22386 5.27614 6 5 6H4C3.33696 6 2.70107 5.73661 2.23223 5.26777C1.76339 4.79893 1.5 4.16304 1.5 3.5C1.5 2.83696 1.76339 2.20107 2.23223 1.73223Z" fill="#8C8C8C"/>
<path d="M3.5 3C3.22386 3 3 3.22386 3 3.5C3 3.77614 3.22386 4 3.5 4H10.5C10.7761 4 11 3.77614 11 3.5C11 3.22386 10.7761 3 10.5 3H3.5Z" fill="#8C8C8C"/>
<path fill-rule="evenodd" clip-rule="evenodd" d="M11.7678 1.73223C11.2989 1.26339 10.663 1 10 1H9C8.72386 1 8.5 0.776143 8.5 0.5C8.5 0.223857 8.72386 0 9 0H10C10.9283 0 11.8185 0.368749 12.4749 1.02513C13.1313 1.6815 13.5 2.57174 13.5 3.5C13.5 4.3294 13.2056 5.12844 12.6747 5.75744C13.4822 6.39859 14 7.38882 14 8.5C14 10.433 12.433 12 10.5 12C8.567 12 7 10.433 7 8.5C7 6.567 8.567 5 10.5 5C10.9555 5 11.3907 5.08703 11.7899 5.24536C12.2449 4.77877 12.5 4.15254 12.5 3.5C12.5 2.83696 12.2366 2.20107 11.7678 1.73223ZM9.08579 7.08579C8.89052 7.28105 8.89052 7.59763 9.08579 7.79289L9.79289 8.5L9.08579 9.20711C8.89052 9.40237 8.89052 9.71895 9.08579 9.91421C9.28105 10.1095 9.59763 10.1095 9.79289 9.91421L10.5 9.20711L11.2071 9.91421C11.4024 10.1095 11.719 10.1095 11.9142 9.91421C12.1095 9.71895 12.1095 9.40237 11.9142 9.20711L11.2071 8.5L11.9142 7.79289C12.1095 7.59763 12.1095 7.28105 11.9142 7.08579C11.719 6.89052 11.4024 6.89052 11.2071 7.08579L10.5 7.79289L9.79289 7.08579C9.59763 6.89052 9.28105 6.89052 9.08579 7.08579Z" fill="#8C8C8C"/>
</svg>
