<svg width="14" height="8" viewBox="0 0 14 8" fill="none" xmlns="http://www.w3.org/2000/svg">
<path d="M4 1.5C3.33696 1.5 2.70107 1.76339 2.23223 2.23223C1.76339 2.70107 1.5 3.33696 1.5 4C1.5 4.66304 1.76339 5.29893 2.23223 5.76777C2.70107 6.23661 3.33696 6.5 4 6.5H5C5.27614 6.5 5.5 6.72386 5.5 7C5.5 7.27614 5.27614 7.5 5 7.5H4C3.07174 7.5 2.1815 7.13125 1.52513 6.47487C0.868749 5.8185 0.5 4.92826 0.5 4C0.5 3.07174 0.868749 2.1815 1.52513 1.52513C2.1815 0.868749 3.07174 0.5 4 0.5H5C5.27614 0.5 5.5 0.723857 5.5 1C5.5 1.27614 5.27614 1.5 5 1.5H4Z" fill="#FC6F42"/>
<path d="M3 4C3 3.72386 3.22386 3.5 3.5 3.5H10.5C10.7761 3.5 11 3.72386 11 4C11 4.27614 10.7761 4.5 10.5 4.5H3.5C3.22386 4.5 3 4.27614 3 4Z" fill="#FC6F42"/>
<path d="M11.7678 2.23223C11.2989 1.76339 10.663 1.5 10 1.5H9C8.72386 1.5 8.5 1.27614 8.5 1C8.5 0.723857 8.72386 0.5 9 0.5H10C10.9283 0.5 11.8185 0.868749 12.4749 1.52513C13.1313 2.1815 13.5 3.07174 13.5 4C13.5 4.92826 13.1313 5.8185 12.4749 6.47487C11.8185 7.13125 10.9283 7.5 10 7.5H9C8.72386 7.5 8.5 7.27614 8.5 7C8.5 6.72386 8.72386 6.5 9 6.5H10C10.663 6.5 11.2989 6.23661 11.7678 5.76777C12.2366 5.29893 12.5 4.66304 12.5 4C12.5 3.33696 12.2366 2.70107 11.7678 2.23223Z" fill="#FC6F42"/>
</svg>
