<svg width="18" height="18" viewBox="0 0 18 18" fill="none" xmlns="http://www.w3.org/2000/svg">
<path fill-rule="evenodd" clip-rule="evenodd" d="M15 5.625C15 7.07475 13.8247 8.25 12.375 8.25C10.9253 8.25 9.75 7.07475 9.75 5.625C9.75 4.17525 10.9253 3 12.375 3C13.8247 3 15 4.17525 15 5.625ZM13.5 5.625C13.5 6.24632 12.9963 6.75 12.375 6.75C11.7537 6.75 11.25 6.24632 11.25 5.625C11.25 5.00368 11.7537 4.5 12.375 4.5C12.9963 4.5 13.5 5.00368 13.5 5.625Z" fill="#E63C32"/>
<path fill-rule="evenodd" clip-rule="evenodd" d="M3 0C1.34315 0 0 1.34315 0 3V15C0 16.6569 1.34315 18 3 18H15C16.6569 18 18 16.6569 18 15V3C18 1.34315 16.6569 0 15 0H3ZM15 1.5H3C2.17157 1.5 1.5 2.17157 1.5 3V15C1.5 15.1508 1.52225 15.2964 1.56365 15.4337L7.99655 9.64408C8.56701 9.13067 9.43299 9.13067 10.0034 9.64408L16.4363 15.4337C16.4777 15.2964 16.5 15.1508 16.5 15V3C16.5 2.17157 15.8284 1.5 15 1.5ZM3 16.5C2.88423 16.5 2.77153 16.4869 2.66329 16.4621L9 10.759L15.3367 16.4621C15.2285 16.4869 15.1158 16.5 15 16.5H3Z" fill="#E63C32"/>
</svg>
