<svg width="14" height="24" viewBox="0 0 14 24" fill="none" xmlns="http://www.w3.org/2000/svg">
<path fill-rule="evenodd" clip-rule="evenodd" d="M3 1.5H11C11.8284 1.5 12.5 2.17157 12.5 3V4H1.5V3C1.5 2.17157 2.17157 1.5 3 1.5ZM1.5 5.5H12.5V18.5H1.5V5.5ZM1.5 20V21C1.5 21.8284 2.17157 22.5 3 22.5H11C11.8284 22.5 12.5 21.8284 12.5 21V20H1.5ZM0 3C0 1.34315 1.34315 0 3 0H11C12.6569 0 14 1.34315 14 3V21C14 22.6569 12.6569 24 11 24H3C1.34315 24 0 22.6569 0 21V3ZM3 10L8 10V8.5H3V10ZM11 13L3 13V11.5L11 11.5V13ZM3 16H6V14.5H3V16Z" fill="#404040"/>
</svg>
