<svg width="36" height="36" viewBox="0 0 36 36" fill="none" xmlns="http://www.w3.org/2000/svg">
<path d="M0 0H36V36H0V0Z" fill="white"/>
<path fill-rule="evenodd" clip-rule="evenodd" d="M14 7.5H22C22.8284 7.5 23.5 8.17157 23.5 9V10H12.5V9C12.5 8.17157 13.1716 7.5 14 7.5ZM12.5 11.5H23.5V24.5H12.5V11.5ZM12.5 26V27C12.5 27.8284 13.1716 28.5 14 28.5H22C22.8284 28.5 23.5 27.8284 23.5 27V26H12.5ZM11 9C11 7.34315 12.3431 6 14 6H22C23.6569 6 25 7.34315 25 9V27C25 28.6569 23.6569 30 22 30H14C12.3431 30 11 28.6569 11 27V9ZM14 16L19 16V14.5H14V16ZM22 19L14 19V17.5L22 17.5V19ZM14 22H17V20.5H14V22Z" fill="#E63C32"/>
</svg>
