<svg width="398" height="802" viewBox="0 0 398 802" fill="none" xmlns="http://www.w3.org/2000/svg">
<path d="M392.763 209.474H397C397.552 209.474 398 209.921 398 210.474V262.588C398 263.14 397.552 263.588 397 263.588H392.763V209.474Z" fill="#666666"/>
<path d="M392.763 319.448H397C397.552 319.448 398 319.896 398 320.448V438.023C398 438.575 397.552 439.023 397 439.023H392.763V319.448Z" fill="#666666"/>
<rect width="394.509" height="801.237" rx="55" fill="#B3B3B3"/>
<rect x="7.85529" y="6.98288" width="378.798" height="787.272" rx="48" fill="#B3B3B3"/>
<circle cx="73.316" cy="33.1673" r="6.98246" fill="#666666"/>
<circle cx="73.316" cy="33.1677" r="4.36404" fill="#666666"/>
<circle cx="75.0617" cy="34.9133" r="1.74561" fill="#666666"/>
<rect x="124.812" y="27.0573" width="144.886" height="12.2193" rx="6.10965" fill="#666666"/>
<rect x="124.812" y="761.088" width="144.886" height="12.2193" rx="6.10965" fill="#666666"/>
<clipPath id="clipPath">
<rect x="17" y="77" width="360" height="640" fill="white"/>
</clipPath>
</svg>
