<svg width="495" height="1064" viewBox="0 0 495 1064" fill="none" xmlns="http://www.w3.org/2000/svg">
<g filter="url(#filter0_d_196_4527)">
<path d="M457.097 293.437H461.755C462.307 293.437 462.755 293.885 462.755 294.437V359.975C462.755 360.527 462.307 360.975 461.755 360.975H457.097V293.437Z" fill="#666666"/>
<path d="M457.097 430.694H461.755C462.307 430.694 462.755 431.142 462.755 431.694V578.931C462.755 579.484 462.307 579.931 461.755 579.931H457.097V430.694Z" fill="#666666"/>
<rect x="34.7548" y="34" width="422.228" height="996" rx="53" fill="#B3B3B3" stroke="#B3B3B3" stroke-width="4"/>
<rect x="40.2416" y="39.7153" width="411.255" height="984.571" rx="49" fill="#B3B3B3" stroke="#B3B3B3" stroke-width="2"/>
<ellipse cx="111.966" cy="73.3948" rx="7.54386" ry="8.7146" fill="#666666"/>
<ellipse cx="111.966" cy="73.3949" rx="4.71491" ry="5.44662" fill="#666666"/>
<ellipse cx="113.852" cy="75.5742" rx="1.88597" ry="2.17865" fill="#666666"/>
<rect x="167.601" y="65.7695" width="156.535" height="15.2505" rx="7.62527" fill="#666666"/>
<rect x="167.601" y="981.89" width="156.535" height="15.2505" rx="7.62527" fill="#666666"/>
</g>
<g filter="url(#filter1_i_196_4527)">
<rect x="64" y="127" width="360" height="800" fill="white"/>
<rect x="63.5" y="126.5" width="361" height="801" stroke="#333333"/>
</g>
<defs>
<filter id="filter0_d_196_4527" x="0.754761" y="0" width="494" height="1064" filterUnits="userSpaceOnUse" color-interpolation-filters="sRGB">
<feFlood flood-opacity="0" result="BackgroundImageFix"/>
<feColorMatrix in="SourceAlpha" type="matrix" values="0 0 0 0 0 0 0 0 0 0 0 0 0 0 0 0 0 0 127 0" result="hardAlpha"/>
<feOffset/>
<feGaussianBlur stdDeviation="16"/>
<feComposite in2="hardAlpha" operator="out"/>
<feColorMatrix type="matrix" values="0 0 0 0 0 0 0 0 0 0 0 0 0 0 0 0 0 0 0.25 0"/>
<feBlend mode="normal" in2="BackgroundImageFix" result="effect1_dropShadow_196_4527"/>
<feBlend mode="normal" in="SourceGraphic" in2="effect1_dropShadow_196_4527" result="shape"/>
</filter>
<filter id="filter1_i_196_4527" x="63" y="126" width="362" height="802" filterUnits="userSpaceOnUse" color-interpolation-filters="sRGB">
<feFlood flood-opacity="0" result="BackgroundImageFix"/>
<feBlend mode="normal" in="SourceGraphic" in2="BackgroundImageFix" result="shape"/>
<feColorMatrix in="SourceAlpha" type="matrix" values="0 0 0 0 0 0 0 0 0 0 0 0 0 0 0 0 0 0 127 0" result="hardAlpha"/>
<feOffset/>
<feGaussianBlur stdDeviation="4"/>
<feComposite in2="hardAlpha" operator="arithmetic" k2="-1" k3="1"/>
<feColorMatrix type="matrix" values="0 0 0 0 0 0 0 0 0 0 0 0 0 0 0 0 0 0 0.1 0"/>
<feBlend mode="normal" in2="shape" result="effect1_innerShadow_196_4527"/>
</filter>
</defs>
</svg>
