<svg width="431" height="1000" viewBox="0 0 431 1000" fill="none" xmlns="http://www.w3.org/2000/svg">
<path d="M425.097 261.437H429.755C430.307 261.437 430.755 261.885 430.755 262.437V327.975C430.755 328.528 430.307 328.975 429.755 328.975H425.097V261.437Z" fill="#666666"/>
<path d="M425.097 398.694H429.755C430.307 398.694 430.755 399.142 430.755 399.694V546.931C430.755 547.484 430.307 547.931 429.755 547.931H425.097V398.694Z" fill="#666666"/>
<rect x="0.754761" width="426.228" height="1000" rx="55" fill="#B3B3B3"/>
<rect x="9.24158" y="8.71539" width="409.255" height="982.571" rx="48" fill="#B3B3B3"/>
<ellipse cx="79.9656" cy="41.3948" rx="7.54386" ry="8.7146" fill="#666666"/>
<ellipse cx="79.9655" cy="41.3951" rx="4.71491" ry="5.44662" fill="#666666"/>
<ellipse cx="81.8515" cy="43.5743" rx="1.88597" ry="2.17865" fill="#666666"/>
<rect x="135.601" y="33.7694" width="156.535" height="15.2505" rx="7.62527" fill="#666666"/>
<rect x="135.601" y="949.89" width="156.535" height="15.2505" rx="7.62527" fill="#666666"/>
<clipPath id="clipPath">
<rect x="32" y="95" width="360" height="800" fill="white"/>
</clipPath>
</svg>
