<svg width="474" height="953" viewBox="0 0 474 953" fill="none" xmlns="http://www.w3.org/2000/svg">
<path fill-rule="evenodd" clip-rule="evenodd" d="M402.746 0H71.253C33.7307 0 3.31439 29.584 3.31439 66.077V133.041C1.94857 133.51 0.97168 134.776 0.97168 136.264V164.746C0.97168 166.234 1.94857 167.5 3.31439 167.969V205.644C1.94857 206.113 0.97168 207.379 0.97168 208.867V263.552C0.97168 265.04 1.94857 266.306 3.31439 266.775V287.671C1.94857 288.14 0.97168 289.406 0.97168 290.894V345.578C0.97168 347.067 1.94857 348.333 3.31439 348.802V886.343C3.31439 922.836 33.7307 952.42 71.253 952.42H402.746C440.269 952.42 470.685 922.836 470.685 886.343V322.943C472.051 322.473 473.028 321.207 473.028 319.719V225.161C473.028 223.673 472.051 222.407 470.685 221.938V66.077C470.685 29.584 440.269 0 402.746 0Z" fill="#B3B3B3"/>
<mask id="mask0_201_4991" style="mask-type:alpha" maskUnits="userSpaceOnUse" x="0" y="0" width="474" height="953">
<path fill-rule="evenodd" clip-rule="evenodd" d="M402.746 0H71.253C33.7307 0 3.31439 29.584 3.31439 66.077V133.041C1.94857 133.51 0.97168 134.776 0.97168 136.264V164.746C0.97168 166.234 1.94857 167.5 3.31439 167.969V205.644C1.94857 206.113 0.97168 207.379 0.97168 208.867V263.552C0.97168 265.04 1.94857 266.306 3.31439 266.775V287.671C1.94857 288.14 0.97168 289.406 0.97168 290.894V345.578C0.97168 347.067 1.94857 348.333 3.31439 348.802V886.343C3.31439 922.836 33.7307 952.42 71.253 952.42H402.746C440.269 952.42 470.685 922.836 470.685 886.343V324.047C472.051 323.578 473.028 322.312 473.028 320.824V226.266C473.028 224.778 472.051 223.511 470.685 223.043V66.077C470.685 29.584 440.269 0 402.746 0Z" fill="#D0AD96"/>
</mask>
<g mask="url(#mask0_201_4991)">
<g style="mix-blend-mode:overlay" opacity="0.5">
<path fill-rule="evenodd" clip-rule="evenodd" d="M399.973 5.52433H74.0286C38.0258 5.52433 8.83976 34.7104 8.83976 70.7131V881.706C8.83976 917.709 38.0258 946.895 74.0286 946.895H399.973C435.975 946.895 465.161 917.709 465.161 881.706V70.7132C465.161 34.7104 435.975 5.52433 399.973 5.52433ZM74.0286 4.41943C37.4156 4.41943 7.73486 34.1001 7.73486 70.7131V881.706C7.73486 918.319 37.4156 948 74.0286 948H399.973C436.586 948 466.266 918.319 466.266 881.706V70.7132C466.266 34.1001 436.586 4.41943 399.973 4.41943H74.0286Z" fill="url(#paint0_radial_201_4991)"/>
</g>
</g>
<g style="mix-blend-mode:overlay">
<path d="M0.962402 136.426C0.962402 135.163 2.01537 133.034 3.31426 133.034V167.962C2.01537 167.962 0.962402 165.833 0.962402 164.57V136.426Z" fill="url(#paint1_linear_201_4991)" fill-opacity="0.3"/>
<path d="M0.962402 136.426C0.962402 135.163 2.01537 133.034 3.31426 133.034V167.962C2.01537 167.962 0.962402 165.833 0.962402 164.57V136.426Z" fill="url(#paint2_linear_201_4991)" fill-opacity="0.3"/>
<path d="M0.962402 209.019C0.962402 207.756 2.01537 205.627 3.31426 205.627V266.782C2.01537 266.782 0.962402 264.653 0.962402 263.39V209.019Z" fill="url(#paint3_linear_201_4991)" fill-opacity="0.3"/>
<path d="M0.962402 209.019C0.962402 207.756 2.01537 205.627 3.31426 205.627V266.782C2.01537 266.782 0.962402 264.653 0.962402 263.39V209.019Z" fill="url(#paint4_linear_201_4991)" fill-opacity="0.3"/>
<path d="M0.962402 291.047C0.962402 289.783 2.01537 287.654 3.31426 287.654V348.809C2.01537 348.809 0.962402 346.68 0.962402 345.417V291.047Z" fill="url(#paint5_linear_201_4991)" fill-opacity="0.3"/>
<path d="M0.962402 291.047C0.962402 289.783 2.01537 287.654 3.31426 287.654V348.809C2.01537 348.809 0.962402 346.68 0.962402 345.417V291.047Z" fill="url(#paint6_linear_201_4991)" fill-opacity="0.3"/>
</g>
<g style="mix-blend-mode:overlay">
<path d="M211.035 33.7678C211.035 32.5094 212.084 31.4893 213.377 31.4893H260.232C261.525 31.4893 262.574 32.5094 262.574 33.7678C262.574 35.0262 261.525 36.0463 260.232 36.0463H213.377C212.084 36.0463 211.035 35.0262 211.035 33.7678Z" fill="black"/>
</g>
<g style="mix-blend-mode:lighten" opacity="0.2">
<path fill-rule="evenodd" clip-rule="evenodd" d="M260.232 32.2507H213.377C212.516 32.2507 211.818 32.9299 211.818 33.7678C211.818 34.6056 212.516 35.2848 213.377 35.2848H260.232C261.093 35.2848 261.791 34.6056 261.791 33.7678C261.791 32.9299 261.093 32.2507 260.232 32.2507ZM213.377 31.4893C212.084 31.4893 211.035 32.5094 211.035 33.7678C211.035 35.0262 212.084 36.0463 213.377 36.0463H260.232C261.525 36.0463 262.574 35.0262 262.574 33.7678C262.574 32.5094 261.525 31.4893 260.232 31.4893H213.377Z" fill="url(#paint7_linear_201_4991)"/>
</g>
<g style="mix-blend-mode:overlay">
<path d="M292.639 32.9258C292.639 36.1599 290.017 38.7817 286.783 38.7817C283.548 38.7817 280.926 36.1599 280.926 32.9258C280.926 29.6916 283.548 27.0698 286.783 27.0698C290.017 27.0698 292.639 29.6916 292.639 32.9258Z" fill="black"/>
</g>
<g style="mix-blend-mode:lighten" opacity="0.2">
<path fill-rule="evenodd" clip-rule="evenodd" d="M286.783 37.9989C289.585 37.9989 291.856 35.7276 291.856 32.9258C291.856 30.124 289.585 27.8526 286.783 27.8526C283.98 27.8526 281.709 30.124 281.709 32.9258C281.709 35.7276 283.98 37.9989 286.783 37.9989ZM286.783 38.7817C290.017 38.7817 292.639 36.1599 292.639 32.9258C292.639 29.6916 290.017 27.0698 286.783 27.0698C283.548 27.0698 280.926 29.6916 280.926 32.9258C280.926 36.1599 283.548 38.7817 286.783 38.7817Z" fill="url(#paint8_linear_201_4991)"/>
</g>
<mask id="mask1_201_4991" style="mask-type:alpha" maskUnits="userSpaceOnUse" x="30" y="28" width="414" height="896">
<clipPath id="clipPath">
<path d="M77.472 28C49.4247 28 30 46.3117 30 74.3448V877.655C30 905.688 49.4247 924 77.472 924H395.424C423.471 924 444 905.688 444 877.655V74.3448C444 46.3117 423.471 28 395.424 28H357.795C353.991 29.3381 351.264 32.9617 351.264 37.2217C351.264 50.7161 342.527 61.6552 329.026 61.6552H143.87C130.369 61.6552 121.632 50.7161 121.632 37.2217C121.632 32.9617 118.905 29.3381 115.101 28H77.472Z" fill="black"/>
</clipPath>
</mask>
<g mask="url(#mask1_201_4991)">
<rect width="414" height="896" transform="translate(30 28)" fill="white"/>
</g>
<defs>
<radialGradient id="paint0_radial_201_4991" cx="0" cy="0" r="1" gradientUnits="userSpaceOnUse" gradientTransform="translate(236.448 406.601) rotate(-167.436) scale(214.699 468.083)">
<stop stop-color="#636363"/>
<stop offset="1"/>
</radialGradient>
<linearGradient id="paint1_linear_201_4991" x1="4.12973" y1="145.612" x2="0.962402" y2="145.612" gradientUnits="userSpaceOnUse">
<stop/>
<stop offset="1" stop-color="#787878" stop-opacity="0.4"/>
</linearGradient>
<linearGradient id="paint2_linear_201_4991" x1="2.13833" y1="133.034" x2="2.13833" y2="167.962" gradientUnits="userSpaceOnUse">
<stop/>
<stop offset="0.10159" stop-opacity="0"/>
<stop offset="0.890418" stop-opacity="0"/>
<stop offset="1"/>
</linearGradient>
<linearGradient id="paint3_linear_201_4991" x1="4.12973" y1="227.649" x2="0.962402" y2="227.649" gradientUnits="userSpaceOnUse">
<stop/>
<stop offset="1" stop-color="#787878" stop-opacity="0.4"/>
</linearGradient>
<linearGradient id="paint4_linear_201_4991" x1="2.13833" y1="205.627" x2="2.13833" y2="266.782" gradientUnits="userSpaceOnUse">
<stop/>
<stop offset="0.10159" stop-opacity="0"/>
<stop offset="0.890418" stop-opacity="0"/>
<stop offset="1"/>
</linearGradient>
<linearGradient id="paint5_linear_201_4991" x1="4.12973" y1="309.676" x2="0.962402" y2="309.676" gradientUnits="userSpaceOnUse">
<stop/>
<stop offset="1" stop-color="#787878" stop-opacity="0.4"/>
</linearGradient>
<linearGradient id="paint6_linear_201_4991" x1="2.13833" y1="287.654" x2="2.13833" y2="348.809" gradientUnits="userSpaceOnUse">
<stop/>
<stop offset="0.10159" stop-opacity="0"/>
<stop offset="0.890418" stop-opacity="0"/>
<stop offset="1"/>
</linearGradient>
<linearGradient id="paint7_linear_201_4991" x1="234.131" y1="36.0463" x2="234.131" y2="31.4893" gradientUnits="userSpaceOnUse">
<stop stop-color="white"/>
<stop offset="1" stop-color="white" stop-opacity="0"/>
</linearGradient>
<linearGradient id="paint8_linear_201_4991" x1="286.175" y1="38.7817" x2="286.175" y2="27.0698" gradientUnits="userSpaceOnUse">
<stop stop-color="white"/>
<stop offset="1" stop-color="white" stop-opacity="0"/>
</linearGradient>
</defs>
</svg>
