<svg id="svg324" fill="none" version="1.1" width="465" height="969" viewBox="0 0 465.46 969.36" xmlns="http://www.w3.org/2000/svg">
 <path id="path165" d="m66.494 0c-35.412 0-64.12 28.65-64.12 63.992v57.084c-1.3836 0.48875-2.3748 1.8054-2.3748 3.3532v29.626c0 1.5478 0.99125 2.8645 2.3748 3.3523v51.361c-1.3836 0.48775-2.3748 1.8049-2.3748 3.3527v56.882c0 1.5478 0.99125 2.8645 2.3748 3.3522v21.735c-1.3836 0.48875-2.3748 1.8055-2.3748 3.3533v56.881c0 1.5478 0.99125 2.8645 2.3748 3.3532v547.69c0 35.342 28.707 63.992 64.12 63.992h331.28c35.413 0 64.121-28.65 64.121-63.992v-632.81c1.967 0 3.5614-1.5914 3.5614-3.5544v-62.806c0-1.964-1.5944-3.5558-3.5614-3.5558v-138.65c0-35.342-28.708-63.992-64.121-63.992z" clip-rule="evenodd" fill="#b3b3b3" fill-rule="evenodd" stroke-width=".99536"/>
 <mask id="mask0_196_3578" x="0" y="0" width="469" height="975" maskUnits="userSpaceOnUse">
  <path id="path167" d="m67.546 0.1626c-35.577 0-64.417 28.783-64.417 64.289v57.349c-1.39 0.491-2.3858 1.814-2.3858 3.369v29.763c0 1.555 0.99585 2.878 2.3858 3.368v51.6c-1.39 0.49-2.3858 1.813-2.3858 3.368v57.146c0 1.555 0.99585 2.878 2.3858 3.368v21.836c-1.39 0.491-2.3858 1.814-2.3858 3.369v57.145c0 1.555 0.99585 2.878 2.3858 3.369v550.23c0 35.506 28.841 64.289 64.417 64.289h332.82c35.577 0 64.418-28.783 64.418-64.289v-635.75c1.976 0 3.578-1.599 3.578-3.571v-63.098c0-1.973-1.602-3.572-3.578-3.572v-139.29c0-35.506-28.841-64.289-64.418-64.289z" clip-rule="evenodd" fill="#f3e1d7" fill-rule="evenodd"/>
 </mask>
 <g id="g178" transform="matrix(.99538 0 0 .99538 -.73949 -.16185)" mask="url(#mask0_196_3578)">
  <g id="g172" opacity=".5" style="mix-blend-mode:overlay">
   <path id="path170" d="m66.252 7.8501h335.56c30.643 0 55.484 24.792 55.484 55.374v846.71c0 30.582-24.841 55.373-55.484 55.373h-335.56c-30.643 0-55.484-24.791-55.484-55.373v-846.71c0-30.582 24.841-55.374 55.484-55.374zm0 1.1031c-30.033 0-54.379 24.298-54.379 54.27v846.71c0 29.972 24.346 54.27 54.379 54.27h335.56c30.033 0 54.379-24.298 54.379-54.27v-846.71c0-29.973-24.346-54.27-54.379-54.27z" clip-rule="evenodd" fill="url(#paint0_linear_196_3578)" fill-rule="evenodd"/>
  </g>
  <g id="g176" opacity=".4" style="mix-blend-mode:overlay">
   <path id="path174" d="m66.252 7.8501h335.56c30.643 0 55.484 24.792 55.484 55.374v846.71c0 30.582-24.841 55.373-55.484 55.373h-335.56c-30.643 0-55.484-24.791-55.484-55.373v-846.71c0-30.582 24.841-55.374 55.484-55.374zm0 1.1031c-30.033 0-54.379 24.298-54.379 54.27v846.71c0 29.972 24.346 54.27 54.379 54.27h335.56c30.033 0 54.379-24.298 54.379-54.27v-846.71c0-29.973-24.346-54.27-54.379-54.27z" clip-rule="evenodd" fill="url(#paint1_radial_196_3578)" fill-rule="evenodd"/>
  </g>
 </g>
 <g id="g196" transform="matrix(.99538 0 0 .99538 -.73949 -.16185)" fill-opacity=".3" style="mix-blend-mode:overlay">
  <path id="path180" d="m464.79 203.74c1.976 0 3.578 1.599 3.578 3.571v63.099c0 1.972-1.602 3.571-3.578 3.571z" fill="url(#paint2_linear_196_3578)"/>
  <path id="path182" d="m464.79 203.74c1.976 0 3.578 1.599 3.578 3.571v63.099c0 1.972-1.602 3.571-3.578 3.571z" fill="url(#paint3_linear_196_3578)"/>
  <g clip-rule="evenodd" fill-rule="evenodd">
   <path id="path184" d="m3.1288 295.62c-1.3899 0.49-2.3858 1.813-2.3858 3.369v57.145c0 1.555 0.99589 2.878 2.3858 3.369z" fill="url(#paint4_linear_196_3578)"/>
   <path id="path186" d="m3.1288 295.62c-1.3899 0.49-2.3858 1.813-2.3858 3.369v57.145c0 1.555 0.99589 2.878 2.3858 3.369z" fill="url(#paint5_linear_196_3578)"/>
   <path id="path188" d="m3.1288 209.9c-1.3899 0.49-2.3858 1.813-2.3858 3.368v57.146c0 1.555 0.99589 2.878 2.3858 3.368z" fill="url(#paint6_linear_196_3578)"/>
   <path id="path190" d="m3.1288 209.9c-1.3899 0.49-2.3858 1.813-2.3858 3.368v57.146c0 1.555 0.99589 2.878 2.3858 3.368z" fill="url(#paint7_linear_196_3578)"/>
   <path id="path192" d="m3.1288 121.8c-1.3899 0.49-2.3858 1.813-2.3858 3.368v29.764c0 1.555 0.99589 2.878 2.3858 3.368z" fill="url(#paint8_linear_196_3578)"/>
   <path id="path194" d="m3.1288 121.8c-1.3899 0.49-2.3858 1.813-2.3858 3.368v29.764c0 1.555 0.99589 2.878 2.3858 3.368z" fill="url(#paint9_linear_196_3578)"/>
  </g>
 </g>
 <g id="g200" transform="matrix(.99538 0 0 .99538 -.73949 -.16185)" opacity=".1" style="mix-blend-mode:multiply">
  <ellipse id="ellipse198" cx="233.96" cy="912.71" rx="37.577" ry="37.502" fill="url(#paint10_linear_196_3578)"/>
 </g>
 <g id="g204" transform="matrix(.99538 0 0 .99538 -.73949 -.16185)" style="mix-blend-mode:overlay">
  <path id="path202" d="m209.92 936.7c13.277 13.251 34.803 13.251 48.08 0 13.277-13.25 13.277-34.734 0-47.984-13.277-13.251-34.803-13.251-48.08 0-13.278 13.25-13.278 34.734 0 47.984zm-2.531 2.526c14.675 14.645 38.467 14.645 53.142 0 14.674-14.646 14.674-38.39 0-53.036-14.675-14.645-38.467-14.645-53.142 0-14.675 14.646-14.675 38.39 0 53.036z" clip-rule="evenodd" fill="url(#paint11_linear_196_3578)" fill-rule="evenodd"/>
 </g>
 <g id="g208" transform="matrix(.99538 0 0 .99538 -.73949 -.16185)" opacity=".2" style="mix-blend-mode:multiply">
  <path id="path206" d="m195.19 63.187c0-1.9675 1.598-3.5624 3.569-3.5624h71.39c1.972 0 3.57 1.5949 3.57 3.5624 0 1.9674-1.598 3.5624-3.57 3.5624h-71.39c-1.971 0-3.569-1.595-3.569-3.5624z" fill="url(#paint12_linear_196_3578)"/>
 </g>
 <g id="g212" transform="matrix(.99538 0 0 .99538 -.73949 -.16185)" style="mix-blend-mode:overlay">
  <path id="path210" d="m270.15 60.815h-71.39c-1.312 0-2.376 1.062-2.376 2.3719s1.064 2.3718 2.376 2.3718h71.39c1.313 0 2.377-1.0619 2.377-2.3718s-1.064-2.3719-2.377-2.3719zm-71.39-1.1905c-1.971 0-3.569 1.5949-3.569 3.5624 0 1.9674 1.598 3.5624 3.569 3.5624h71.39c1.972 0 3.57-1.595 3.57-3.5624 0-1.9675-1.598-3.5624-3.57-3.5624z" clip-rule="evenodd" fill="url(#paint13_linear_196_3578)" fill-rule="evenodd"/>
 </g>
 <g id="g216" transform="matrix(.99538 0 0 .99538 -.73949 -.16185)" opacity=".2" style="mix-blend-mode:multiply">
  <path id="path214" d="m168.9 63.187c0 4.9186-3.996 8.9059-8.924 8.9059s-8.924-3.9873-8.924-8.9059 3.996-8.9059 8.924-8.9059 8.924 3.9873 8.924 8.9059z" fill="url(#paint14_linear_196_3578)"/>
 </g>
 <g id="g220" transform="matrix(.99538 0 0 .99538 -.73949 -.16185)" style="mix-blend-mode:overlay">
  <path id="path218" d="m159.97 70.902c4.27 0 7.731-3.4543 7.731-7.7154s-3.461-7.7154-7.731-7.7154-7.731 3.4543-7.731 7.7154 3.461 7.7154 7.731 7.7154zm0 1.1905c4.928 0 8.924-3.9873 8.924-8.9059s-3.996-8.9059-8.924-8.9059-8.924 3.9873-8.924 8.9059 3.996 8.9059 8.924 8.9059z" clip-rule="evenodd" fill="url(#paint15_linear_196_3578)" fill-rule="evenodd"/>
 </g>
 <clipPath id="clipPath">
  <rect id="rect222" x="25.14" y="117.29" width="414" height="736" rx="4.976" fill="#fff" stroke-width=".99623"/>
  <rect id="rect224" x="25.142" y="117" width="414.37" height="736.33" rx="4.9804" stroke="#181818" stroke-width="1.9936" style="mix-blend-mode:overlay"/>
 </clipPath>
 <defs id="defs322">
  <linearGradient id="paint0_linear_196_3578" x1="240.69" x2="457.53" y1="212.31" y2="175.78" gradientUnits="userSpaceOnUse">
   <stop id="stop226" stop-color="#636363" stop-opacity="0" offset="0"/>
   <stop id="stop228" offset="1"/>
  </linearGradient>
  <radialGradient id="paint1_radial_196_3578" cx="0" cy="0" r="1" gradientTransform="matrix(-427.87 190.63 -424.23 -952.2 457.29 174.06)" gradientUnits="userSpaceOnUse">
   <stop id="stop231" stop-color="#636363" offset="0"/>
   <stop id="stop233" offset="1"/>
  </radialGradient>
  <linearGradient id="paint2_linear_196_3578" x1="464.79" x2="468.37" y1="224.79" y2="224.79" gradientUnits="userSpaceOnUse">
   <stop id="stop236" offset="0"/>
   <stop id="stop238" stop-color="#787878" stop-opacity=".4" offset="1"/>
  </linearGradient>
  <linearGradient id="paint3_linear_196_3578" x1="466.58" x2="466.58" y1="203.74" y2="273.98" gradientUnits="userSpaceOnUse">
   <stop id="stop241" offset="0"/>
   <stop id="stop243" stop-opacity="0" offset=".10159"/>
   <stop id="stop245" stop-opacity="0" offset=".89042"/>
   <stop id="stop247" offset="1"/>
  </linearGradient>
  <linearGradient id="paint4_linear_196_3578" x1="3.956" x2=".74292" y1="318.62" y2="318.62" gradientUnits="userSpaceOnUse">
   <stop id="stop250" offset="0"/>
   <stop id="stop252" stop-color="#787878" stop-opacity=".4" offset="1"/>
  </linearGradient>
  <linearGradient id="paint5_linear_196_3578" x1="1.9358" x2="1.9358" y1="295.62" y2="359.5" gradientUnits="userSpaceOnUse">
   <stop id="stop255" offset="0"/>
   <stop id="stop257" stop-opacity="0" offset=".10159"/>
   <stop id="stop259" stop-opacity="0" offset=".89042"/>
   <stop id="stop261" offset="1"/>
  </linearGradient>
  <linearGradient id="paint6_linear_196_3578" x1="3.956" x2=".74292" y1="232.91" y2="232.91" gradientUnits="userSpaceOnUse">
   <stop id="stop264" offset="0"/>
   <stop id="stop266" stop-color="#787878" stop-opacity=".4" offset="1"/>
  </linearGradient>
  <linearGradient id="paint7_linear_196_3578" x1="1.9358" x2="1.9358" y1="209.9" y2="273.78" gradientUnits="userSpaceOnUse">
   <stop id="stop269" offset="0"/>
   <stop id="stop271" stop-opacity="0" offset=".10159"/>
   <stop id="stop273" stop-opacity="0" offset=".89042"/>
   <stop id="stop275" offset="1"/>
  </linearGradient>
  <linearGradient id="paint8_linear_196_3578" x1="3.956" x2=".74292" y1="134.94" y2="134.94" gradientUnits="userSpaceOnUse">
   <stop id="stop278" offset="0"/>
   <stop id="stop280" stop-color="#787878" stop-opacity=".4" offset="1"/>
  </linearGradient>
  <linearGradient id="paint9_linear_196_3578" x1="1.9358" x2="1.9358" y1="121.8" y2="158.3" gradientUnits="userSpaceOnUse">
   <stop id="stop283" offset="0"/>
   <stop id="stop285" stop-opacity="0" offset=".10159"/>
   <stop id="stop287" stop-opacity="0" offset=".89042"/>
   <stop id="stop289" offset="1"/>
  </linearGradient>
  <linearGradient id="paint10_linear_196_3578" x1="254.48" x2="192.2" y1="874.85" y2="966.52" gradientUnits="userSpaceOnUse">
   <stop id="stop292" stop-color="#2B2B2B" offset="0"/>
   <stop id="stop294" stop-color="#2B2B2B" stop-opacity="0" offset="1"/>
  </linearGradient>
  <linearGradient id="paint11_linear_196_3578" x1="271.06" x2="210.94" y1="878.16" y2="940.13" gradientUnits="userSpaceOnUse">
   <stop id="stop297" stop-color="#0B0B0B" offset="0"/>
   <stop id="stop299" stop-color="#CDCDCD" stop-opacity=".48" offset="1"/>
  </linearGradient>
  <linearGradient id="paint12_linear_196_3578" x1="234.47" x2="234.03" y1="59.694" y2="72.93" gradientUnits="userSpaceOnUse">
   <stop id="stop302" offset="0"/>
   <stop id="stop304" stop-color="#A3A3A3" offset="1"/>
  </linearGradient>
  <linearGradient id="paint13_linear_196_3578" x1="230.38" x2="230.38" y1="66.749" y2="59.624" gradientUnits="userSpaceOnUse">
   <stop id="stop307" offset="0"/>
   <stop id="stop309" stop-color="#fff" stop-opacity=".33" offset="1"/>
  </linearGradient>
  <linearGradient id="paint14_linear_196_3578" x1="159.98" x2="149.3" y1="54.454" y2="83.682" gradientUnits="userSpaceOnUse">
   <stop id="stop312" offset="0"/>
   <stop id="stop314" stop-color="#A3A3A3" offset="1"/>
  </linearGradient>
  <linearGradient id="paint15_linear_196_3578" x1="159.05" x2="159.05" y1="72.093" y2="54.281" gradientUnits="userSpaceOnUse">
   <stop id="stop317" offset="0"/>
   <stop id="stop319" stop-color="#fff" stop-opacity=".49" offset="1"/>
  </linearGradient>
 </defs>
</svg>
