<svg width="429" height="862" viewBox="0 0 429 862" fill="none" xmlns="http://www.w3.org/2000/svg">
  <path fill-rule="evenodd" clip-rule="evenodd"
    d="M364.511 0H64.4887C30.5286 0 2.99994 26.7754 2.99994 59.8038V120.411C1.76379 120.835 0.879639 121.981 0.879639 123.328V149.105C0.879639 150.452 1.76379 151.598 2.99994 152.022V186.121C1.76379 186.546 0.879639 187.692 0.879639 189.038V238.531C0.879639 239.878 1.76379 241.024 2.99994 241.448V260.36C1.76379 260.785 0.879639 261.931 0.879639 263.278V312.77C0.879639 314.117 1.76379 315.263 2.99994 315.688V802.196C2.99994 835.225 30.5286 862 64.4887 862H364.511C398.471 862 426 835.225 426 802.196V292.283C427.236 291.859 428.12 290.713 428.12 289.366V203.785C428.12 202.438 427.236 201.292 426 200.868V59.8038C426 26.7754 398.471 0 364.511 0Z"
    fill="#B3B3B3" />
  <mask id="mask0_185_313" style="mask-type:alpha" maskUnits="userSpaceOnUse" x="0" y="0" width="429" height="862">
    <path fill-rule="evenodd" clip-rule="evenodd"
      d="M364.511 0H64.4887C30.5286 0 2.99994 26.7754 2.99994 59.8038V120.411C1.76379 120.835 0.879639 121.981 0.879639 123.328V149.105C0.879639 150.452 1.76379 151.598 2.99994 152.022V186.121C1.76379 186.546 0.879639 187.692 0.879639 189.038V238.531C0.879639 239.878 1.76379 241.024 2.99994 241.448V260.36C1.76379 260.785 0.879639 261.931 0.879639 263.278V312.77C0.879639 314.117 1.76379 315.263 2.99994 315.688V802.196C2.99994 835.225 30.5286 862 64.4887 862H364.511C398.471 862 426 835.225 426 802.196V293.283C427.236 292.859 428.12 291.713 428.12 290.366V204.785C428.12 203.438 427.236 202.292 426 201.868V59.8038C426 26.7754 398.471 0 364.511 0Z"
      fill="#D0AD96" />
  </mask>
  <g mask="url(#mask0_185_313)">
    <g style="mix-blend-mode:overlay" opacity="0.5">
      <path fill-rule="evenodd" clip-rule="evenodd"
        d="M362.001 5H67.0007C34.4159 5 8.00073 31.4152 8.00073 64V798C8.00073 830.585 34.4159 857 67.0007 857H362.001C394.586 857 421.001 830.585 421.001 798V64C421.001 31.4152 394.586 5 362.001 5ZM67.0007 4C33.8636 4 7.00073 30.8629 7.00073 64V798C7.00073 831.137 33.8637 858 67.0007 858H362.001C395.138 858 422.001 831.137 422.001 798V64C422.001 30.8629 395.138 4 362.001 4H67.0007Z"
        fill="url(#paint0_radial_185_313)" />
    </g>
  </g>
  <g style="mix-blend-mode:overlay">
    <path
      d="M0.871338 123.474C0.871338 122.331 1.82434 120.404 2.99992 120.404V152.016C1.82434 152.016 0.871338 150.089 0.871338 148.946V123.474Z"
      fill="url(#paint1_linear_185_313)" fill-opacity="0.3" />
    <path
      d="M0.871338 123.474C0.871338 122.331 1.82434 120.404 2.99992 120.404V152.016C1.82434 152.016 0.871338 150.089 0.871338 148.946V123.474Z"
      fill="url(#paint2_linear_185_313)" fill-opacity="0.3" />
    <path
      d="M0.871338 189.176C0.871338 188.032 1.82434 186.105 2.99992 186.105V241.455C1.82434 241.455 0.871338 239.528 0.871338 238.384V189.176Z"
      fill="url(#paint3_linear_185_313)" fill-opacity="0.3" />
    <path
      d="M0.871338 189.176C0.871338 188.032 1.82434 186.105 2.99992 186.105V241.455C1.82434 241.455 0.871338 239.528 0.871338 238.384V189.176Z"
      fill="url(#paint4_linear_185_313)" fill-opacity="0.3" />
    <path
      d="M0.871338 263.415C0.871338 262.272 1.82434 260.345 2.99992 260.345V315.694C1.82434 315.694 0.871338 313.767 0.871338 312.624V263.415Z"
      fill="url(#paint5_linear_185_313)" fill-opacity="0.3" />
    <path
      d="M0.871338 263.415C0.871338 262.272 1.82434 260.345 2.99992 260.345V315.694C1.82434 315.694 0.871338 313.767 0.871338 312.624V263.415Z"
      fill="url(#paint6_linear_185_313)" fill-opacity="0.3" />
  </g>
  <g style="mix-blend-mode:overlay">
    <path
      d="M191 30.5622C191 29.4233 191.95 28.5 193.121 28.5H235.527C236.698 28.5 237.647 29.4233 237.647 30.5622C237.647 31.7011 236.698 32.6244 235.527 32.6244H193.121C191.95 32.6244 191 31.7011 191 30.5622Z"
      fill="black" />
  </g>
  <g style="mix-blend-mode:lighten" opacity="0.2">
    <path fill-rule="evenodd" clip-rule="evenodd"
      d="M235.527 29.1892H193.121C192.341 29.1892 191.709 29.8039 191.709 30.5622C191.709 31.3205 192.341 31.9352 193.121 31.9352H235.527C236.306 31.9352 236.938 31.3205 236.938 30.5622C236.938 29.8039 236.306 29.1892 235.527 29.1892ZM193.121 28.5C191.95 28.5 191 29.4233 191 30.5622C191 31.7011 191.95 32.6244 193.121 32.6244H235.527C236.698 32.6244 237.647 31.7011 237.647 30.5622C237.647 29.4233 236.698 28.5 235.527 28.5H193.121Z"
      fill="url(#paint7_linear_185_313)" />
  </g>
  <g style="mix-blend-mode:overlay">
    <path
      d="M264.858 29.8C264.858 32.7271 262.484 35.1 259.557 35.1C256.629 35.1 254.256 32.7271 254.256 29.8C254.256 26.8729 256.629 24.5 259.557 24.5C262.484 24.5 264.858 26.8729 264.858 29.8Z"
      fill="black" />
  </g>
  <g style="mix-blend-mode:lighten" opacity="0.2">
    <path fill-rule="evenodd" clip-rule="evenodd"
      d="M259.557 34.3915C262.093 34.3915 264.149 32.3358 264.149 29.8C264.149 27.2642 262.093 25.2085 259.557 25.2085C257.021 25.2085 254.965 27.2642 254.965 29.8C254.965 32.3358 257.021 34.3915 259.557 34.3915ZM259.557 35.1C262.484 35.1 264.858 32.7271 264.858 29.8C264.858 26.8729 262.484 24.5 259.557 24.5C256.629 24.5 254.256 26.8729 254.256 29.8C254.256 32.7271 256.629 35.1 259.557 35.1Z"
      fill="url(#paint8_linear_185_313)" />
  </g>
  <mask id="mask1_185_313" style="mask-type:alpha" maskUnits="userSpaceOnUse" x="27" y="24" width="375" height="812">
    <path
      d="M70 24C44.5948 24 27 40.595 27 66V794C27 819.405 44.5948 836 70 836H358C383.405 836 402 819.405 402 794V66C402 40.595 383.405 24 358 24H323.916C320.47 25.2126 318 28.4966 318 32.3572C318 44.5864 310.086 54.5 297.857 54.5H130.143C117.914 54.5 110 44.5864 110 32.3572C110 28.4966 107.53 25.2126 104.084 24H70Z"
      fill="black" />
  </mask>
  <clipPath id="maskRect1">
    <path
      d="M70 24C44.5948 24 27 40.595 27 66V794C27 819.405 44.5948 836 70 836H358C383.405 836 402 819.405 402 794V66C402 40.595 383.405 24 358 24H323.916C320.47 25.2126 318 28.4966 318 32.3572C318 44.5864 310.086 54.5 297.857 54.5H130.143C117.914 54.5 110 44.5864 110 32.3572C110 28.4966 107.53 25.2126 104.084 24H70Z"
      fill="black" />
  </clipPath>
  <g mask="url(#mask1_185_313)">
    <rect width="375" height="812" transform="translate(27 24)" fill="white" />
  </g>
  <defs>
    <radialGradient id="paint0_radial_185_313" cx="0" cy="0" r="1" gradientUnits="userSpaceOnUse"
      gradientTransform="translate(214.001 368) rotate(-167.436) scale(194.316 423.645)">
      <stop stop-color="#636363" />
      <stop offset="1" />
    </radialGradient>
    <linearGradient id="paint1_linear_185_313" x1="3.73797" y1="131.787" x2="0.871338" y2="131.787"
      gradientUnits="userSpaceOnUse">
      <stop />
      <stop offset="1" stop-color="#787878" stop-opacity="0.4" />
    </linearGradient>
    <linearGradient id="paint2_linear_185_313" x1="1.93563" y1="120.404" x2="1.93563" y2="152.016"
      gradientUnits="userSpaceOnUse">
      <stop />
      <stop offset="0.10159" stop-opacity="0" />
      <stop offset="0.890418" stop-opacity="0" />
      <stop offset="1" />
    </linearGradient>
    <linearGradient id="paint3_linear_185_313" x1="3.73797" y1="206.037" x2="0.871338" y2="206.037"
      gradientUnits="userSpaceOnUse">
      <stop />
      <stop offset="1" stop-color="#787878" stop-opacity="0.4" />
    </linearGradient>
    <linearGradient id="paint4_linear_185_313" x1="1.93563" y1="186.105" x2="1.93563" y2="241.455"
      gradientUnits="userSpaceOnUse">
      <stop />
      <stop offset="0.10159" stop-opacity="0" />
      <stop offset="0.890418" stop-opacity="0" />
      <stop offset="1" />
    </linearGradient>
    <linearGradient id="paint5_linear_185_313" x1="3.73797" y1="280.276" x2="0.871338" y2="280.276"
      gradientUnits="userSpaceOnUse">
      <stop />
      <stop offset="1" stop-color="#787878" stop-opacity="0.4" />
    </linearGradient>
    <linearGradient id="paint6_linear_185_313" x1="1.93563" y1="260.345" x2="1.93563" y2="315.694"
      gradientUnits="userSpaceOnUse">
      <stop />
      <stop offset="0.10159" stop-opacity="0" />
      <stop offset="0.890418" stop-opacity="0" />
      <stop offset="1" />
    </linearGradient>
    <linearGradient id="paint7_linear_185_313" x1="211.904" y1="32.6244" x2="211.904" y2="28.5"
      gradientUnits="userSpaceOnUse">
      <stop stop-color="white" />
      <stop offset="1" stop-color="white" stop-opacity="0" />
    </linearGradient>
    <linearGradient id="paint8_linear_185_313" x1="259.007" y1="35.1" x2="259.007" y2="24.5"
      gradientUnits="userSpaceOnUse">
      <stop stop-color="white" />
      <stop offset="1" stop-color="white" stop-opacity="0" />
    </linearGradient>
  </defs>
</svg>