<svg id="svg997" fill="none" version="1.1" width="421" height="878" viewBox="0 0 421.03 878.57" xmlns="http://www.w3.org/2000/svg">
 <path id="path838" d="m60.146 0c-32.032 0-57.998 25.967-57.998 57.998v51.738c-1.2515 0.44183-2.1481 1.636-2.1481 3.0391v26.85c0 1.4031 0.89662 2.5963 2.1481 3.0391v46.55c-1.2515 0.44282-2.1481 1.636-2.1481 3.0391v51.554c0 1.4031 0.89662 2.5963 2.1481 3.0381v19.7c-1.2515 0.44284-2.1481 1.636-2.1481 3.0391v51.555c0 1.4021 0.89662 2.5963 2.1481 3.0381v496.39c0 32.031 25.967 57.998 57.998 57.998h299.66c32.032 0 57.999-25.967 57.999-57.998v-573.54c1.7793 0 3.2222-1.4429 3.2222-3.2222v-56.924c0-1.7803-1.4429-3.2222-3.2222-3.2222v-125.66c0-32.032-25.967-57.998-57.999-57.998z" clip-rule="evenodd" fill="#b3b3b3" fill-rule="evenodd" stroke-width=".99512"/>
 <mask id="mask0_180_3902" x="0" y="0" width="425" height="883" maskUnits="userSpaceOnUse">
  <path id="path840" d="m61.371 0.030762c-32.188 0-58.282 26.094-58.282 58.282v51.991c-1.2576 0.444-2.1586 1.644-2.1586 3.054v26.982c0 1.41 0.90101 2.609 2.1586 3.054v46.778c-1.2576 0.445-2.1586 1.644-2.1586 3.054v51.807c0 1.41 0.90101 2.609 2.1586 3.053v19.796c-1.2576 0.445-2.1586 1.644-2.1586 3.054v51.807c0 1.409 0.90101 2.609 2.1586 3.053v498.82c0 32.188 26.094 58.282 58.282 58.282h301.13c32.189 0 58.283-26.094 58.283-58.282v-576.35c1.788 0 3.238-1.45 3.238-3.238v-57.203c0-1.789-1.45-3.238-3.238-3.238v-126.28c0-32.188-26.094-58.282-58.283-58.282z" clip-rule="evenodd" fill="#f3e1d7" fill-rule="evenodd"/>
 </mask>
 <g id="g851" transform="matrix(.99513 0 0 .99513 -.92516 -.030612)" mask="url(#mask0_180_3902)">
  <g id="g845" opacity=".5" style="mix-blend-mode:overlay">
   <path id="path843" d="m60.2 7h303.6c27.725 0 50.2 22.475 50.2 50.2v767.6c0 27.725-22.475 50.2-50.2 50.2h-303.6c-27.725 0-50.2-22.475-50.2-50.2v-767.6c0-27.725 22.475-50.2 50.2-50.2zm0 1c-27.172 0-49.2 22.028-49.2 49.2v767.6c0 27.172 22.028 49.2 49.2 49.2h303.6c27.172 0 49.2-22.028 49.2-49.2v-767.6c0-27.172-22.028-49.2-49.2-49.2z" clip-rule="evenodd" fill="url(#paint0_linear_180_3902)" fill-rule="evenodd"/>
  </g>
  <g id="g849" opacity=".4" style="mix-blend-mode:overlay">
   <path id="path847" d="m60.2 7h303.6c27.725 0 50.2 22.475 50.2 50.2v767.6c0 27.725-22.475 50.2-50.2 50.2h-303.6c-27.725 0-50.2-22.475-50.2-50.2v-767.6c0-27.725 22.475-50.2 50.2-50.2zm0 1c-27.172 0-49.2 22.028-49.2 49.2v767.6c0 27.172 22.028 49.2 49.2 49.2h303.6c27.172 0 49.2-22.028 49.2-49.2v-767.6c0-27.172-22.028-49.2-49.2-49.2z" clip-rule="evenodd" fill="url(#paint1_radial_180_3902)" fill-rule="evenodd"/>
  </g>
 </g>
 <g id="g869" transform="matrix(.99513 0 0 .99513 -.92516 -.030612)" fill-opacity=".3" style="mix-blend-mode:overlay">
  <path id="path853" d="m420.78 184.59c1.788 0 3.238 1.449 3.238 3.238v57.203c0 1.788-1.45 3.238-3.238 3.238z" fill="url(#paint2_linear_180_3902)"/>
  <path id="path855" d="m420.78 184.59c1.788 0 3.238 1.449 3.238 3.238v57.203c0 1.788-1.45 3.238-3.238 3.238z" fill="url(#paint3_linear_180_3902)"/>
  <g clip-rule="evenodd" fill-rule="evenodd">
   <path id="path857" d="m3.0883 267.88c-1.2576 0.445-2.1586 1.644-2.1586 3.054v51.807c0 1.409 0.90104 2.609 2.1586 3.053z" fill="url(#paint4_linear_180_3902)"/>
   <path id="path859" d="m3.0883 267.88c-1.2576 0.445-2.1586 1.644-2.1586 3.054v51.807c0 1.409 0.90104 2.609 2.1586 3.053z" fill="url(#paint5_linear_180_3902)"/>
   <path id="path861" d="m3.0883 190.17c-1.2576 0.445-2.1586 1.644-2.1586 3.054v51.807c0 1.409 0.90104 2.609 2.1586 3.053z" fill="url(#paint6_linear_180_3902)"/>
   <path id="path863" d="m3.0883 190.17c-1.2576 0.445-2.1586 1.644-2.1586 3.054v51.807c0 1.409 0.90104 2.609 2.1586 3.053z" fill="url(#paint7_linear_180_3902)"/>
   <path id="path865" d="m3.0883 110.3c-1.2576 0.445-2.1586 1.644-2.1586 3.054v26.983c0 1.409 0.90104 2.609 2.1586 3.053z" fill="url(#paint8_linear_180_3902)"/>
   <path id="path867" d="m3.0883 110.3c-1.2576 0.445-2.1586 1.644-2.1586 3.054v26.983c0 1.409 0.90104 2.609 2.1586 3.053z" fill="url(#paint9_linear_180_3902)"/>
  </g>
 </g>
 <g id="g873" transform="matrix(.99513 0 0 .99513 -.92516 -.030612)" opacity=".1" style="mix-blend-mode:multiply">
  <ellipse id="ellipse871" cx="211.93" cy="827.32" rx="33.998" ry="33.998" fill="url(#paint10_linear_180_3902)"/>
 </g>
 <g id="g877" transform="matrix(.99513 0 0 .99513 -.92516 -.030612)" style="mix-blend-mode:overlay">
  <path id="path875" d="m190.18 849.07c12.013 12.012 31.489 12.012 43.501 0 12.013-12.013 12.013-31.489 0-43.502-12.012-12.012-31.489-12.012-43.501 0-12.013 12.013-12.013 31.489 0 43.502zm-2.29 2.289c13.277 13.277 34.804 13.277 48.081 0s13.277-34.803 0-48.08-34.804-13.277-48.081 0-13.277 34.803 0 48.08z" clip-rule="evenodd" fill="url(#paint11_linear_180_3902)" fill-rule="evenodd"/>
 </g>
 <g id="g881" transform="matrix(.99513 0 0 .99513 -.92516 -.030612)" opacity=".2" style="mix-blend-mode:multiply">
  <path id="path879" d="m176.86 57.167c0-1.7837 1.446-3.2296 3.23-3.2296h64.59c1.784 0 3.23 1.4459 3.23 3.2296 0 1.7836-1.446 3.2295-3.23 3.2295h-64.59c-1.784 0-3.23-1.4459-3.23-3.2295z" fill="url(#paint12_linear_180_3902)"/>
 </g>
 <g id="g885" transform="matrix(.99513 0 0 .99513 -.92516 -.030612)" style="mix-blend-mode:overlay">
  <path id="path883" d="m244.68 55.016h-64.591c-1.188 0-2.15 0.9627-2.15 2.1503 0 1.1875 0.962 2.1502 2.15 2.1502h64.591c1.187 0 2.15-0.9627 2.15-2.1502 0-1.1876-0.963-2.1503-2.15-2.1503zm-64.591-1.0793c-1.784 0-3.23 1.4459-3.23 3.2296 0 1.7836 1.446 3.2295 3.23 3.2295h64.591c1.783 0 3.229-1.4459 3.229-3.2295 0-1.7837-1.446-3.2296-3.229-3.2296z" clip-rule="evenodd" fill="url(#paint13_linear_180_3902)" fill-rule="evenodd"/>
 </g>
 <g id="g889" transform="matrix(.99513 0 0 .99513 -.92516 -.030612)" opacity=".2" style="mix-blend-mode:multiply">
  <path id="path887" d="m153.07 57.167c0 4.4591-3.615 8.0739-8.074 8.0739s-8.074-3.6148-8.074-8.0739c0-4.459 3.615-8.0738 8.074-8.0738s8.074 3.6148 8.074 8.0738z" fill="url(#paint14_linear_180_3902)"/>
 </g>
 <g id="g893" transform="matrix(.99513 0 0 .99513 -.92516 -.030612)" style="mix-blend-mode:overlay">
  <path id="path891" d="m145 64.161c3.863 0 6.994-3.1316 6.994-6.9946s-3.131-6.9945-6.994-6.9945-6.995 3.1315-6.995 6.9945 3.132 6.9946 6.995 6.9946zm0 1.0793c4.459 0 8.074-3.6148 8.074-8.0739 0-4.459-3.615-8.0738-8.074-8.0738s-8.074 3.6148-8.074 8.0738c0 4.4591 3.615 8.0739 8.074 8.0739z" clip-rule="evenodd" fill="url(#paint15_linear_180_3902)" fill-rule="evenodd"/>
 </g>
 <clipPath id="clipPath">
  <rect id="rect895" x="23.365" y="106.45" width="375" height="667" rx="4.9735" fill="#fff" stroke-width=".99585"/>
  <rect id="rect897" x="23.175" y="106.45" width="375.16" height="667.27" rx="4.9756" stroke="#181818" stroke-width="1.9925" style="mix-blend-mode:overlay"/>
 </clipPath>
 <defs id="defs995">
  <linearGradient id="paint0_linear_180_3902" x1="218.03" x2="414.23" y1="192.36" y2="159.37" gradientUnits="userSpaceOnUse">
   <stop id="stop899" stop-color="#636363" stop-opacity="0" offset="0"/>
   <stop id="stop901" offset="1"/>
  </linearGradient>
  <radialGradient id="paint1_radial_180_3902" cx="0" cy="0" r="1" gradientTransform="matrix(-387.12 172.82 -385.11 -862.67 414 157.68)" gradientUnits="userSpaceOnUse">
   <stop id="stop904" stop-color="#636363" offset="0"/>
   <stop id="stop906" offset="1"/>
  </radialGradient>
  <linearGradient id="paint2_linear_180_3902" x1="420.78" x2="424.02" y1="203.68" y2="203.68" gradientUnits="userSpaceOnUse">
   <stop id="stop909" offset="0"/>
   <stop id="stop911" stop-color="#787878" stop-opacity=".4" offset="1"/>
  </linearGradient>
  <linearGradient id="paint3_linear_180_3902" x1="422.4" x2="422.4" y1="184.59" y2="248.27" gradientUnits="userSpaceOnUse">
   <stop id="stop914" offset="0"/>
   <stop id="stop916" stop-opacity="0" offset=".10159"/>
   <stop id="stop918" stop-opacity="0" offset=".89042"/>
   <stop id="stop920" offset="1"/>
  </linearGradient>
  <linearGradient id="paint4_linear_180_3902" x1="3.8368" x2=".92969" y1="288.74" y2="288.74" gradientUnits="userSpaceOnUse">
   <stop id="stop923" offset="0"/>
   <stop id="stop925" stop-color="#787878" stop-opacity=".4" offset="1"/>
  </linearGradient>
  <linearGradient id="paint5_linear_180_3902" x1="2.009" x2="2.009" y1="267.88" y2="325.8" gradientUnits="userSpaceOnUse">
   <stop id="stop928" offset="0"/>
   <stop id="stop930" stop-opacity="0" offset=".10159"/>
   <stop id="stop932" stop-opacity="0" offset=".89042"/>
   <stop id="stop934" offset="1"/>
  </linearGradient>
  <linearGradient id="paint6_linear_180_3902" x1="3.8368" x2=".92969" y1="211.03" y2="211.03" gradientUnits="userSpaceOnUse">
   <stop id="stop937" offset="0"/>
   <stop id="stop939" stop-color="#787878" stop-opacity=".4" offset="1"/>
  </linearGradient>
  <linearGradient id="paint7_linear_180_3902" x1="2.009" x2="2.009" y1="190.17" y2="248.09" gradientUnits="userSpaceOnUse">
   <stop id="stop942" offset="0"/>
   <stop id="stop944" stop-opacity="0" offset=".10159"/>
   <stop id="stop946" stop-opacity="0" offset=".89042"/>
   <stop id="stop948" offset="1"/>
  </linearGradient>
  <linearGradient id="paint8_linear_180_3902" x1="3.8368" x2=".92969" y1="122.22" y2="122.22" gradientUnits="userSpaceOnUse">
   <stop id="stop951" offset="0"/>
   <stop id="stop953" stop-color="#787878" stop-opacity=".4" offset="1"/>
  </linearGradient>
  <linearGradient id="paint9_linear_180_3902" x1="2.009" x2="2.009" y1="110.3" y2="143.39" gradientUnits="userSpaceOnUse">
   <stop id="stop956" offset="0"/>
   <stop id="stop958" stop-opacity="0" offset=".10159"/>
   <stop id="stop960" stop-opacity="0" offset=".89042"/>
   <stop id="stop962" offset="1"/>
  </linearGradient>
  <linearGradient id="paint10_linear_180_3902" x1="230.5" x2="174" y1="793" y2="876" gradientUnits="userSpaceOnUse">
   <stop id="stop965" stop-color="#2B2B2B" offset="0"/>
   <stop id="stop967" stop-color="#2B2B2B" stop-opacity="0" offset="1"/>
  </linearGradient>
  <linearGradient id="paint11_linear_180_3902" x1="245.5" x2="191" y1="796" y2="852.07" gradientUnits="userSpaceOnUse">
   <stop id="stop970" stop-color="#0B0B0B" offset="0"/>
   <stop id="stop972" stop-color="#CDCDCD" stop-opacity=".48" offset="1"/>
  </linearGradient>
  <linearGradient id="paint12_linear_180_3902" x1="212.4" x2="212" y1="54" y2="65.999" gradientUnits="userSpaceOnUse">
   <stop id="stop975" offset="0"/>
   <stop id="stop977" stop-color="#A3A3A3" offset="1"/>
  </linearGradient>
  <linearGradient id="paint13_linear_180_3902" x1="208.7" x2="208.7" y1="60.396" y2="53.937" gradientUnits="userSpaceOnUse">
   <stop id="stop980" offset="0"/>
   <stop id="stop982" stop-color="#fff" stop-opacity=".33" offset="1"/>
  </linearGradient>
  <linearGradient id="paint14_linear_180_3902" x1="145" x2="135.31" y1="49.25" y2="75.734" gradientUnits="userSpaceOnUse">
   <stop id="stop985" offset="0"/>
   <stop id="stop987" stop-color="#A3A3A3" offset="1"/>
  </linearGradient>
  <linearGradient id="paint15_linear_180_3902" x1="144.16" x2="144.16" y1="65.241" y2="49.093" gradientUnits="userSpaceOnUse">
   <stop id="stop990" offset="0"/>
   <stop id="stop992" stop-color="#fff" stop-opacity=".49" offset="1"/>
  </linearGradient>
 </defs>
</svg>
