<svg width="481" height="972" viewBox="0 0 481 972" fill="none" xmlns="http://www.w3.org/2000/svg">
  <path fill-rule="evenodd" clip-rule="evenodd"
    d="M2.29387 70.7175C2.29387 31.6613 33.9462 0 72.9913 0H404.813C443.858 0 475.51 31.6613 475.51 70.7175V293.136H477.791C479.05 293.136 480.071 294.157 480.071 295.417V406.055C480.071 407.315 479.05 408.337 477.791 408.337H475.51V901.078C475.51 940.134 443.858 971.796 404.813 971.796H72.9913C33.9462 971.796 2.29387 940.134 2.29387 901.078V435.711C1.03435 435.711 0.0133057 434.69 0.0133057 433.43V363.853C0.0133057 362.593 1.03435 361.572 2.29387 361.572V342.182C1.03435 342.182 0.0133057 341.16 0.0133057 339.9V270.323C0.0133057 269.064 1.03435 268.042 2.29387 268.042V237.246C1.03435 237.246 0.0133057 236.225 0.0133057 234.965V201.887C0.0133057 200.627 1.03435 199.606 2.29387 199.606V70.7175Z"
    fill="#B3B3B3" />
  <mask id="mask0_9_371" style="mask-type:alpha" maskUnits="userSpaceOnUse" x="0" y="0" width="481" height="972">
    <path fill-rule="evenodd" clip-rule="evenodd"
      d="M2.29411 70.7175C2.29411 31.6613 33.9464 -3.05176e-05 72.9915 -3.05176e-05H404.813C443.858 -3.05176e-05 475.511 31.6613 475.511 70.7175V293.135H477.791C479.051 293.135 480.072 294.157 480.072 295.417V406.055C480.072 407.315 479.051 408.337 477.791 408.337H475.511V901.078C475.511 940.134 443.858 971.796 404.813 971.796H72.9915C33.9464 971.796 2.29411 940.134 2.29411 901.078V435.711C1.03459 435.711 0.0135498 434.69 0.0135498 433.43V363.853C0.0135498 362.593 1.03459 361.572 2.29411 361.572V342.181C1.03459 342.181 0.0135498 341.16 0.0135498 339.9V270.323C0.0135498 269.063 1.03459 268.042 2.29411 268.042V237.246C1.03459 237.246 0.0135498 236.224 0.0135498 234.965V201.887C0.0135498 200.627 1.03459 199.606 2.29411 199.606V70.7175Z"
      fill="#76D7FA" />
  </mask>
  <g mask="url(#mask0_9_371)">
    <g style="mix-blend-mode:overlay" opacity="0.4">
      <path fill-rule="evenodd" clip-rule="evenodd"
        d="M402.533 6.84361H75.2721C38.7461 6.84361 9.13589 36.4623 9.13589 72.9987V898.797C9.13589 935.333 38.7461 964.952 75.2721 964.952H402.533C439.059 964.952 468.669 935.333 468.669 898.797V72.9987C468.669 36.4623 439.059 6.84361 402.533 6.84361ZM75.2721 5.703C38.1163 5.703 7.99561 35.8323 7.99561 72.9987V898.797C7.99561 935.963 38.1163 966.092 75.2721 966.092H402.533C439.688 966.092 469.809 935.963 469.809 898.797V72.9987C469.809 35.8323 439.688 5.703 402.533 5.703H75.2721Z"
        fill="url(#paint0_radial_9_371)" />
    </g>
    <g style="mix-blend-mode:overlay" opacity="0.3">
      <path fill-rule="evenodd" clip-rule="evenodd"
        d="M402.533 6.84361H75.2721C38.7461 6.84361 9.13589 36.4623 9.13589 72.9987V898.797C9.13589 935.333 38.7461 964.952 75.2721 964.952H402.533C439.059 964.952 468.669 935.333 468.669 898.797V72.9987C468.669 36.4623 439.059 6.84361 402.533 6.84361ZM75.2721 5.703C38.1163 5.703 7.99561 35.8323 7.99561 72.9987V898.797C7.99561 935.963 38.1163 966.092 75.2721 966.092H402.533C439.688 966.092 469.809 935.963 469.809 898.797V72.9987C469.809 35.8323 439.688 5.703 402.533 5.703H75.2721Z"
        fill="url(#paint1_linear_9_371)" />
    </g>
  </g>
  <g style="mix-blend-mode:overlay">
    <path
      d="M480.071 406.055C480.071 407.315 479.254 408.337 478.247 408.337L475.51 408.337L475.51 293.135L478.247 293.135C479.254 293.135 480.071 294.157 480.071 295.417L480.071 406.055Z"
      fill="url(#paint2_linear_9_371)" fill-opacity="0.3" />
    <path
      d="M480.071 406.055C480.071 407.315 479.254 408.337 478.247 408.337L475.51 408.337L475.51 293.135L478.247 293.135C479.254 293.135 480.071 294.157 480.071 295.417L480.071 406.055Z"
      fill="url(#paint3_linear_9_371)" fill-opacity="0.3" />
    <path
      d="M0.0133057 363.853C0.0133057 362.593 1.03435 361.572 2.29387 361.572V361.572V435.711V435.711C1.03435 435.711 0.0133057 434.69 0.0133057 433.43V363.853Z"
      fill="url(#paint4_linear_9_371)" fill-opacity="0.3" />
    <path
      d="M0.0133057 363.853C0.0133057 362.593 1.03435 361.572 2.29387 361.572V361.572V435.711V435.711C1.03435 435.711 0.0133057 434.69 0.0133057 433.43V363.853Z"
      fill="url(#paint5_linear_9_371)" fill-opacity="0.3" />
    <path
      d="M0.0133057 270.323C0.0133057 269.064 1.03435 268.042 2.29387 268.042V268.042V342.182V342.182C1.03435 342.182 0.0133057 341.16 0.0133057 339.9V270.323Z"
      fill="url(#paint6_linear_9_371)" fill-opacity="0.3" />
    <path
      d="M0.0133057 270.323C0.0133057 269.064 1.03435 268.042 2.29387 268.042V268.042V342.182V342.182C1.03435 342.182 0.0133057 341.16 0.0133057 339.9V270.323Z"
      fill="url(#paint7_linear_9_371)" fill-opacity="0.3" />
    <path
      d="M0.0133057 201.887C0.0133057 200.627 1.03435 199.606 2.29387 199.606V199.606V237.246V237.246C1.03435 237.246 0.0133057 236.225 0.0133057 234.965V201.887Z"
      fill="url(#paint8_linear_9_371)" fill-opacity="0.3" />
    <path
      d="M0.0133057 201.887C0.0133057 200.627 1.03435 199.606 2.29387 199.606V199.606V237.246V237.246C1.03435 237.246 0.0133057 236.225 0.0133057 234.965V201.887Z"
      fill="url(#paint9_linear_9_371)" fill-opacity="0.3" />
  </g>
  <g style="mix-blend-mode:multiply" opacity="0.2">
    <path opacity="0.5"
      d="M199.562 6.84369H280.522V9.1249C280.522 11.6447 278.48 13.6873 275.961 13.6873H204.123C201.604 13.6873 199.562 11.6447 199.562 9.1249V6.84369Z"
      fill="url(#paint10_linear_9_371)" />
    <g style="mix-blend-mode:soft-light">
      <path fill-rule="evenodd" clip-rule="evenodd"
        d="M279.382 7.98423H200.703V9.12484C200.703 11.0147 202.235 12.5467 204.124 12.5467H275.962C277.851 12.5467 279.382 11.0147 279.382 9.12484V7.98423ZM199.563 6.84363V9.12484C199.563 11.6446 201.605 13.6873 204.124 13.6873H275.962C278.481 13.6873 280.523 11.6446 280.523 9.12484V6.84363H199.563Z"
        fill="url(#paint11_linear_9_371)" />
    </g>
    <g style="mix-blend-mode:lighten" opacity="0.1">
      <path
        d="M187.02 34.2181C187.02 39.8876 182.425 44.4836 176.757 44.4836C171.089 44.4836 166.495 39.8876 166.495 34.2181C166.495 28.5487 171.089 23.9527 176.757 23.9527C182.425 23.9527 187.02 28.5487 187.02 34.2181Z"
        fill="url(#paint12_linear_9_371)" />
    </g>
    <path opacity="0.5"
      d="M182.859 34.3273C182.859 37.5372 180.216 40.1394 176.957 40.1394C173.698 40.1394 171.056 37.5372 171.056 34.3273C171.056 31.1173 173.698 28.5151 176.957 28.5151C180.216 28.5151 182.859 31.1173 182.859 34.3273Z"
      fill="url(#paint13_linear_9_371)" />
    <g style="mix-blend-mode:soft-light">
      <path fill-rule="evenodd" clip-rule="evenodd"
        d="M176.957 39.3625C179.781 39.3625 182.07 37.1081 182.07 34.3273C182.07 31.5464 179.781 29.292 176.957 29.292C174.134 29.292 171.845 31.5464 171.845 34.3273C171.845 37.1081 174.134 39.3625 176.957 39.3625ZM176.957 40.1394C180.216 40.1394 182.859 37.5372 182.859 34.3273C182.859 31.1173 180.216 28.5151 176.957 28.5151C173.698 28.5151 171.056 31.1173 171.056 34.3273C171.056 37.5372 173.698 40.1394 176.957 40.1394Z"
        fill="url(#paint14_linear_9_371)" />
    </g>
  </g>
  <mask id="mask1_9_371" style="mask-type:alpha" maskUnits="userSpaceOnUse" x="24" y="23" width="429" height="926">
    <path fill-rule="evenodd" clip-rule="evenodd"
      d="M72.9359 23C46.4616 23 24.9999 44.444 24.9999 70.8966V901.103C24.9999 927.556 46.4616 949 72.9359 949H405.064C431.538 949 453 927.556 453 901.103V70.8966C453 44.444 431.538 23 405.064 23H333.064C328.595 23 327.453 25.8471 327.453 30.2497C327.453 44.1959 324.029 57.782 303.322 57.782H174.678C153.971 57.782 150.547 44.1959 150.547 30.2497C150.547 25.8471 149.405 23 144.936 23H72.9359Z"
      fill="white" />
  </mask>
  <g mask="url(#mask1_9_371)">
    <rect x="24.9999" y="23" width="428" height="926" rx="4" fill="white" />
  </g>
  <clipPath id="clipPath">
    <path fill-rule="evenodd" clip-rule="evenodd"
      d="M72.936 23C46.4617 23 25 44.444 25 70.8966V901.103C25 927.556 46.4617 949 72.936 949H405.064C431.538 949 453 927.556 453 901.103V70.8966C453 44.444 431.538 23 405.064 23H333.064C328.595 23 327.453 25.8471 327.453 30.2497C327.453 44.1959 324.029 57.782 303.322 57.782H174.678C153.971 57.782 150.547 44.1959 150.547 30.2497C150.547 25.8471 149.405 23 144.936 23H72.936Z"
      fill="#C4C4C4" />
  </clipPath>
  <defs>
    <radialGradient id="paint0_radial_9_371" cx="0" cy="0" r="1" gradientUnits="userSpaceOnUse"
      gradientTransform="translate(469.809 174.229) rotate(156.405) scale(482.892 1060.38)">
      <stop stop-color="#636363" />
      <stop offset="1" />
    </radialGradient>
    <linearGradient id="paint1_linear_9_371" x1="245.793" y1="213.49" x2="469.829" y2="175.082"
      gradientUnits="userSpaceOnUse">
      <stop stop-color="#636363" stop-opacity="0" />
      <stop offset="1" stop-color="#3D3D3D" />
    </linearGradient>
    <linearGradient id="paint2_linear_9_371" x1="475.51" y1="366.852" x2="480.071" y2="366.852"
      gradientUnits="userSpaceOnUse">
      <stop />
      <stop offset="1" stop-color="white" />
    </linearGradient>
    <linearGradient id="paint3_linear_9_371" x1="477.791" y1="408.337" x2="477.791" y2="293.135"
      gradientUnits="userSpaceOnUse">
      <stop />
      <stop offset="0.10159" stop-opacity="0" />
      <stop offset="0.890418" stop-opacity="0" />
      <stop offset="1" />
    </linearGradient>
    <linearGradient id="paint4_linear_9_371" x1="3.08462" y1="388.27" x2="0.0133056" y2="388.27"
      gradientUnits="userSpaceOnUse">
      <stop />
      <stop offset="1" stop-color="white" />
    </linearGradient>
    <linearGradient id="paint5_linear_9_371" x1="1.15359" y1="361.572" x2="1.15359" y2="435.711"
      gradientUnits="userSpaceOnUse">
      <stop />
      <stop offset="0.10159" stop-opacity="0" />
      <stop offset="0.890418" stop-opacity="0" />
      <stop offset="1" />
    </linearGradient>
    <linearGradient id="paint6_linear_9_371" x1="3.08462" y1="294.74" x2="0.0133056" y2="294.74"
      gradientUnits="userSpaceOnUse">
      <stop />
      <stop offset="1" stop-color="white" />
    </linearGradient>
    <linearGradient id="paint7_linear_9_371" x1="1.15359" y1="268.042" x2="1.15359" y2="342.182"
      gradientUnits="userSpaceOnUse">
      <stop />
      <stop offset="0.10159" stop-opacity="0" />
      <stop offset="0.890418" stop-opacity="0" />
      <stop offset="1" />
    </linearGradient>
    <linearGradient id="paint8_linear_9_371" x1="3.08462" y1="213.16" x2="0.0133056" y2="213.16"
      gradientUnits="userSpaceOnUse">
      <stop />
      <stop offset="1" stop-color="white" />
    </linearGradient>
    <linearGradient id="paint9_linear_9_371" x1="1.15359" y1="199.606" x2="1.15359" y2="237.246"
      gradientUnits="userSpaceOnUse">
      <stop />
      <stop offset="0.10159" stop-opacity="0" />
      <stop offset="0.890418" stop-opacity="0" />
      <stop offset="1" />
    </linearGradient>
    <linearGradient id="paint10_linear_9_371" x1="240.042" y1="6.84369" x2="240.042" y2="13.6873"
      gradientUnits="userSpaceOnUse">
      <stop stop-color="#121212" />
      <stop offset="1" stop-color="#585858" />
    </linearGradient>
    <linearGradient id="paint11_linear_9_371" x1="235.332" y1="13.6873" x2="235.332" y2="10.8357"
      gradientUnits="userSpaceOnUse">
      <stop stop-color="#2A2A2A" />
      <stop offset="1" stop-opacity="0" />
    </linearGradient>
    <linearGradient id="paint12_linear_9_371" x1="176.757" y1="23.9527" x2="176.757" y2="44.4836"
      gradientUnits="userSpaceOnUse">
      <stop stop-color="white" />
      <stop offset="1" stop-color="white" stop-opacity="0" />
    </linearGradient>
    <linearGradient id="paint13_linear_9_371" x1="176.957" y1="28.5151" x2="176.957" y2="40.1394"
      gradientUnits="userSpaceOnUse">
      <stop stop-color="#121212" />
      <stop offset="1" stop-color="#464646" />
    </linearGradient>
    <linearGradient id="paint14_linear_9_371" x1="176.345" y1="40.2756" x2="176.345" y2="28.6212"
      gradientUnits="userSpaceOnUse">
      <stop stop-color="#2A2A2A" />
      <stop offset="0.493053" stop-opacity="0" />
    </linearGradient>
  </defs>
</svg>