<svg id="svg817" fill="none" version="1.1" width="422" height="881" viewBox="0 0 422.83 881" xmlns="http://www.w3.org/2000/svg">
 <path id="path658" d="m60.404 0c-32.169 0-58.247 26.039-58.247 58.159v51.881c-1.2568 0.44347-2.1573 1.6403-2.1573 3.0471v26.926c0 1.4066 0.90047 2.6036 2.1573 3.0471v46.679c-1.2568 0.44349-2.1573 1.6406-2.1573 3.0471v51.698c0 1.4066 0.90047 2.6036 2.1573 3.0471v19.753c-1.2568 0.44349-2.1573 1.6406-2.1573 3.0471v51.698c0 1.4065 0.90047 2.6036 2.1573 3.0471v497.77c0 32.121 26.078 58.159 58.247 58.159h300.94c32.169 0 58.247-26.038 58.247-58.159v-575.13c1.788 0 3.2366-1.4463 3.2366-3.2308v-57.083c0-1.7845-1.4487-3.2308-3.2366-3.2308v-126.01c0-32.12-26.078-58.159-58.247-58.159z" clip-rule="evenodd" fill="#b3b3b3" fill-rule="evenodd" stroke-width="1.1702"/>
 <mask id="mask0_201_4884" x="0" y="0" width="362" height="753" maskUnits="userSpaceOnUse">
  <path id="path660" d="m51.853 0.026367c-27.491 0-49.777 22.252-49.777 49.702v44.336c-1.0741 0.379-1.8436 1.4018-1.8436 2.604v23.01c0 1.202 0.76953 2.225 1.8436 2.604v39.891c-1.0741 0.379-1.8436 1.402-1.8436 2.604v44.18c0 1.202 0.76953 2.225 1.8436 2.604v16.881c-1.0741 0.379-1.8436 1.402-1.8436 2.604v44.18c0 1.202 0.76953 2.225 1.8436 2.604v425.38c0 27.45 22.286 49.702 49.777 49.702h257.18c27.491 0 49.777-22.252 49.777-49.702v-491.5c1.528 0 2.766-1.236 2.766-2.761v-48.782c0-1.525-1.238-2.761-2.766-2.761v-107.69c0-27.45-22.286-49.702-49.777-49.702z" clip-rule="evenodd" fill="#f3e1d7" fill-rule="evenodd"/>
 </mask>
 <g id="g671" transform="matrix(1.1702 0 0 1.1702 -.2714 -.03086)" mask="url(#mask0_201_4884)">
  <g id="g665" opacity=".5" style="mix-blend-mode:overlay">
   <path id="path663" d="m50.853 5.9697h259.29c23.679 0 42.875 19.166 42.875 42.809v654.59c0 23.643-19.196 42.809-42.875 42.809h-259.29c-23.679 0-42.874-19.166-42.874-42.809v-654.59c0-23.643 19.195-42.809 42.874-42.809zm0 0.85277c-23.207 0-42.02 18.785-42.02 41.956v654.59c0 23.172 18.813 41.956 42.02 41.956h259.29c23.207 0 42.021-18.784 42.021-41.956v-654.59c0-23.172-18.814-41.956-42.021-41.956z" clip-rule="evenodd" fill="url(#paint0_linear_201_4884)" fill-rule="evenodd"/>
  </g>
  <g id="g669" opacity=".4" style="mix-blend-mode:overlay">
   <path id="path667" d="m50.853 5.9697h259.29c23.679 0 42.875 19.166 42.875 42.809v654.59c0 23.643-19.196 42.809-42.875 42.809h-259.29c-23.679 0-42.874-19.166-42.874-42.809v-654.59c0-23.643 19.195-42.809 42.874-42.809zm0 0.85277c-23.207 0-42.02 18.785-42.02 41.956v654.59c0 23.172 18.813 41.956 42.02 41.956h259.29c23.207 0 42.021-18.784 42.021-41.956v-654.59c0-23.172-18.814-41.956-42.021-41.956z" clip-rule="evenodd" fill="url(#paint1_radial_201_4884)" fill-rule="evenodd"/>
  </g>
 </g>
 <g id="g689" transform="matrix(1.1702 0 0 1.1702 -.2714 -.03086)" fill-opacity=".3" style="mix-blend-mode:overlay">
  <path id="path673" d="m358.81 157.42c1.527 0 2.765 1.236 2.765 2.761v48.781c0 1.525-1.238 2.761-2.765 2.761z" fill="url(#paint2_linear_201_4884)"/>
  <path id="path675" d="m358.81 157.42c1.527 0 2.765 1.236 2.765 2.761v48.781c0 1.525-1.238 2.761-2.765 2.761z" fill="url(#paint3_linear_201_4884)"/>
  <g clip-rule="evenodd" fill-rule="evenodd">
   <path id="path677" d="m2.0755 228.44c-1.074 0.379-1.8436 1.402-1.8436 2.604v44.18c0 1.202 0.76956 2.225 1.8436 2.604z" fill="url(#paint4_linear_201_4884)"/>
   <path id="path679" d="m2.0755 228.44c-1.074 0.379-1.8436 1.402-1.8436 2.604v44.18c0 1.202 0.76956 2.225 1.8436 2.604z" fill="url(#paint5_linear_201_4884)"/>
   <path id="path681" d="m2.0755 162.18c-1.074 0.379-1.8436 1.402-1.8436 2.604v44.18c0 1.202 0.76956 2.225 1.8436 2.604z" fill="url(#paint6_linear_201_4884)"/>
   <path id="path683" d="m2.0755 162.18c-1.074 0.379-1.8436 1.402-1.8436 2.604v44.18c0 1.202 0.76956 2.225 1.8436 2.604z" fill="url(#paint7_linear_201_4884)"/>
   <path id="path685" d="m2.0755 94.062c-1.074 0.379-1.8436 1.4019-1.8436 2.6041v23.01c0 1.202 0.76956 2.225 1.8436 2.604z" fill="url(#paint8_linear_201_4884)"/>
   <path id="path687" d="m2.0755 94.062c-1.074 0.379-1.8436 1.4019-1.8436 2.6041v23.01c0 1.202 0.76956 2.225 1.8436 2.604z" fill="url(#paint9_linear_201_4884)"/>
  </g>
 </g>
 <g id="g693" transform="matrix(1.1702 0 0 1.1702 -.2714 -.03086)" opacity=".1" style="mix-blend-mode:multiply">
  <ellipse id="ellipse691" cx="180.44" cy="705.52" rx="29.037" ry="28.993" fill="url(#paint10_linear_201_4884)"/>
 </g>
 <g id="g697" transform="matrix(1.1702 0 0 1.1702 -.2714 -.03086)" style="mix-blend-mode:overlay">
  <path id="path695" d="m161.87 724.06c10.259 10.244 26.893 10.244 37.153 0s10.259-26.852 0-37.096c-10.26-10.244-26.894-10.244-37.153 0-10.26 10.244-10.26 26.852 0 37.096zm-1.956 1.953c11.34 11.322 29.725 11.322 41.064 0 11.34-11.322 11.34-29.68 0-41.002-11.339-11.322-29.724-11.322-41.064 0-11.339 11.322-11.339 29.68 0 41.002z" clip-rule="evenodd" fill="url(#paint11_linear_201_4884)" fill-rule="evenodd"/>
 </g>
 <g id="g701" transform="matrix(1.1702 0 0 1.1702 -.2714 -.03086)" opacity=".2" style="mix-blend-mode:multiply">
  <path id="path699" d="m150.48 48.75c0-1.5211 1.235-2.7541 2.758-2.7541h55.165c1.523 0 2.758 1.233 2.758 2.7541 0 1.521-1.235 2.754-2.758 2.754h-55.165c-1.523 0-2.758-1.233-2.758-2.754z" fill="url(#paint12_linear_201_4884)"/>
 </g>
 <g id="g705" transform="matrix(1.1702 0 0 1.1702 -.2714 -.03086)" style="mix-blend-mode:overlay">
  <path id="path703" d="m208.41 46.916h-55.165c-1.014 0-1.836 0.821-1.836 1.8337s0.822 1.8336 1.836 1.8336h55.165c1.014 0 1.836-0.8209 1.836-1.8336s-0.822-1.8337-1.836-1.8337zm-55.165-0.9204c-1.523 0-2.758 1.233-2.758 2.7541 0 1.521 1.235 2.754 2.758 2.754h55.165c1.523 0 2.758-1.233 2.758-2.754 0-1.5211-1.235-2.7541-2.758-2.7541z" clip-rule="evenodd" fill="url(#paint13_linear_201_4884)" fill-rule="evenodd"/>
 </g>
 <g id="g709" transform="matrix(1.1702 0 0 1.1702 -.2714 -.03086)" opacity=".2" style="mix-blend-mode:multiply">
  <path id="path707" d="m130.17 48.75c0 3.8026-3.088 6.8852-6.896 6.8852s-6.896-3.0826-6.896-6.8852 3.088-6.8852 6.896-6.8852 6.896 3.0826 6.896 6.8852z" fill="url(#paint14_linear_201_4884)"/>
 </g>
 <g id="g713" transform="matrix(1.1702 0 0 1.1702 -.2714 -.03086)" style="mix-blend-mode:overlay">
  <path id="path711" d="m123.27 54.715c3.299 0 5.974-2.6705 5.974-5.9648 0-3.2942-2.675-5.9648-5.974-5.9648s-5.974 2.6706-5.974 5.9648c0 3.2943 2.675 5.9648 5.974 5.9648zm0 0.9204c3.808 0 6.896-3.0826 6.896-6.8852s-3.088-6.8852-6.896-6.8852-6.896 3.0826-6.896 6.8852 3.088 6.8852 6.896 6.8852z" clip-rule="evenodd" fill="url(#paint15_linear_201_4884)" fill-rule="evenodd"/>
 </g>
 <clipPath id="clipPath">
  <rect id="rect715" x="23.998" y="110.72" width="375" height="667" rx="5.823" fill="#fff" stroke-width="1.1674"/>
  <rect id="rect717" x="23.34" y="109.96" width="376.58" height="668.91" rx="5.8475" stroke="#181818" stroke-width="2.343" style="mix-blend-mode:overlay"/>
 </clipPath>
 <defs id="defs815">
  <linearGradient id="paint0_linear_201_4884" x1="185.65" x2="353.2" y1="164.04" y2="135.83" gradientUnits="userSpaceOnUse">
   <stop id="stop719" stop-color="#636363" stop-opacity="0" offset="0"/>
   <stop id="stop721" offset="1"/>
  </linearGradient>
  <radialGradient id="paint1_radial_201_4884" cx="0" cy="0" r="1" gradientTransform="matrix(-330.63 147.38 -328.09 -736.03 353.02 134.47)" gradientUnits="userSpaceOnUse">
   <stop id="stop724" stop-color="#636363" offset="0"/>
   <stop id="stop726" offset="1"/>
  </radialGradient>
  <linearGradient id="paint2_linear_201_4884" x1="358.81" x2="361.58" y1="173.69" y2="173.69" gradientUnits="userSpaceOnUse">
   <stop id="stop729" offset="0"/>
   <stop id="stop731" stop-color="#787878" stop-opacity=".4" offset="1"/>
  </linearGradient>
  <linearGradient id="paint3_linear_201_4884" x1="360.19" x2="360.19" y1="157.42" y2="211.72" gradientUnits="userSpaceOnUse">
   <stop id="stop734" offset="0"/>
   <stop id="stop736" stop-opacity="0" offset=".10159"/>
   <stop id="stop738" stop-opacity="0" offset=".89042"/>
   <stop id="stop740" offset="1"/>
  </linearGradient>
  <linearGradient id="paint4_linear_201_4884" x1="2.7148" x2=".23193" y1="246.23" y2="246.23" gradientUnits="userSpaceOnUse">
   <stop id="stop743" offset="0"/>
   <stop id="stop745" stop-color="#787878" stop-opacity=".4" offset="1"/>
  </linearGradient>
  <linearGradient id="paint5_linear_201_4884" x1="1.1537" x2="1.1537" y1="228.44" y2="277.83" gradientUnits="userSpaceOnUse">
   <stop id="stop748" offset="0"/>
   <stop id="stop750" stop-opacity="0" offset=".10159"/>
   <stop id="stop752" stop-opacity="0" offset=".89042"/>
   <stop id="stop754" offset="1"/>
  </linearGradient>
  <linearGradient id="paint6_linear_201_4884" x1="2.7148" x2=".23193" y1="179.96" y2="179.96" gradientUnits="userSpaceOnUse">
   <stop id="stop757" offset="0"/>
   <stop id="stop759" stop-color="#787878" stop-opacity=".4" offset="1"/>
  </linearGradient>
  <linearGradient id="paint7_linear_201_4884" x1="1.1537" x2="1.1537" y1="162.18" y2="211.56" gradientUnits="userSpaceOnUse">
   <stop id="stop762" offset="0"/>
   <stop id="stop764" stop-opacity="0" offset=".10159"/>
   <stop id="stop766" stop-opacity="0" offset=".89042"/>
   <stop id="stop768" offset="1"/>
  </linearGradient>
  <linearGradient id="paint8_linear_201_4884" x1="2.7148" x2=".23193" y1="104.22" y2="104.22" gradientUnits="userSpaceOnUse">
   <stop id="stop771" offset="0"/>
   <stop id="stop773" stop-color="#787878" stop-opacity=".4" offset="1"/>
  </linearGradient>
  <linearGradient id="paint9_linear_201_4884" x1="1.1537" x2="1.1537" y1="94.062" y2="122.28" gradientUnits="userSpaceOnUse">
   <stop id="stop776" offset="0"/>
   <stop id="stop778" stop-opacity="0" offset=".10159"/>
   <stop id="stop780" stop-opacity="0" offset=".89042"/>
   <stop id="stop782" offset="1"/>
  </linearGradient>
  <linearGradient id="paint10_linear_201_4884" x1="196.3" x2="148.14" y1="676.25" y2="747.1" gradientUnits="userSpaceOnUse">
   <stop id="stop785" stop-color="#2B2B2B" offset="0"/>
   <stop id="stop787" stop-color="#2B2B2B" stop-opacity="0" offset="1"/>
  </linearGradient>
  <linearGradient id="paint11_linear_201_4884" x1="209.11" x2="162.64" y1="678.81" y2="726.69" gradientUnits="userSpaceOnUse">
   <stop id="stop790" stop-color="#0B0B0B" offset="0"/>
   <stop id="stop792" stop-color="#CDCDCD" stop-opacity=".48" offset="1"/>
  </linearGradient>
  <linearGradient id="paint12_linear_201_4884" x1="180.84" x2="180.5" y1="46.05" y2="56.283" gradientUnits="userSpaceOnUse">
   <stop id="stop795" offset="0"/>
   <stop id="stop797" stop-color="#A3A3A3" offset="1"/>
  </linearGradient>
  <linearGradient id="paint13_linear_201_4884" x1="177.68" x2="177.68" y1="51.504" y2="45.996" gradientUnits="userSpaceOnUse">
   <stop id="stop800" offset="0"/>
   <stop id="stop802" stop-color="#fff" stop-opacity=".33" offset="1"/>
  </linearGradient>
  <linearGradient id="paint14_linear_201_4884" x1="123.28" x2="115.02" y1="42" y2="64.593" gradientUnits="userSpaceOnUse">
   <stop id="stop805" offset="0"/>
   <stop id="stop807" stop-color="#A3A3A3" offset="1"/>
  </linearGradient>
  <linearGradient id="paint15_linear_201_4884" x1="122.56" x2="122.56" y1="55.636" y2="41.865" gradientUnits="userSpaceOnUse">
   <stop id="stop810" offset="0"/>
   <stop id="stop812" stop-color="#fff" stop-opacity=".49" offset="1"/>
  </linearGradient>
 </defs>
</svg>
