<svg width="78" height="16" viewBox="0 0 78 16" fill="none" xmlns="http://www.w3.org/2000/svg">
  <g fill="#000">
    <path opacity="0.25" fill-rule="evenodd" clip-rule="evenodd"
      d="M16.5 2H17.5C18.0523 2 18.5 2.44772 18.5 3V11C18.5 11.5523 18.0523 12 17.5 12H16.5C15.9477 12 15.5 11.5523 15.5 11V3C15.5 2.44772 15.9477 2 16.5 2Z" />
    <path fill-rule="evenodd" clip-rule="evenodd"
      d="M13 4H12C11.4477 4 11 4.44772 11 5V11C11 11.5523 11.4477 12 12 12H13C13.5523 12 14 11.5523 14 11V5C14 4.44772 13.5523 4 13 4ZM7.5 6H8.5C9.05228 6 9.5 6.44772 9.5 7V11C9.5 11.5523 9.05228 12 8.5 12H7.5C6.94772 12 6.5 11.5523 6.5 11V7C6.5 6.44772 6.94772 6 7.5 6ZM3 7.5H4C4.55228 7.5 5 7.94772 5 8.5V11C5 11.5523 4.55228 12 4 12H3C2.44772 12 2 11.5523 2 11V8.5C2 7.94772 2.44772 7.5 3 7.5Z" />
    <path
      d="M26.0781 11H27.1328V7.33789H30.877V6.40039H27.1328V3.49414H31.2109V2.54492H26.0781V11ZM33.3055 3.46484C33.6922 3.46484 34.0086 3.14844 34.0086 2.76172C34.0086 2.375 33.6922 2.05859 33.3055 2.05859C32.9187 2.05859 32.6023 2.375 32.6023 2.76172C32.6023 3.14844 32.9187 3.46484 33.3055 3.46484ZM32.7898 11H33.8094V4.68359H32.7898V11ZM38.2828 13.2266C40.0055 13.2266 41.0953 12.3242 41.0953 10.9121V4.68359H40.0758V5.72656H40.0055C39.6187 5.01172 38.9273 4.57227 38.0367 4.57227C36.3844 4.57227 35.3648 5.85547 35.3648 7.625V7.63672C35.3648 9.40625 36.3785 10.6719 38.0133 10.6719C38.8805 10.6719 39.5953 10.2793 39.9937 9.58203H40.0875V10.8594C40.0875 11.791 39.4137 12.3242 38.2828 12.3242C37.3746 12.3242 36.8121 11.9844 36.7008 11.5039L36.6949 11.498H35.6402L35.6285 11.5039C35.7867 12.541 36.7594 13.2266 38.2828 13.2266ZM38.2359 9.76953C37.0641 9.76953 36.4078 8.89062 36.4078 7.63672V7.625C36.4078 6.37109 37.0641 5.47461 38.2359 5.47461C39.402 5.47461 40.1109 6.37109 40.1109 7.625V7.63672C40.1109 8.89062 39.4078 9.76953 38.2359 9.76953ZM42.9438 11H43.9633V7.08594C43.9633 6.19531 44.5902 5.47461 45.4164 5.47461C46.2133 5.47461 46.7289 5.96094 46.7289 6.71094V11H47.7484V6.93945C47.7484 6.13672 48.3285 5.47461 49.2074 5.47461C50.098 5.47461 50.5258 5.9375 50.5258 6.86914V11H51.5453V6.63477C51.5453 5.31055 50.8246 4.57227 49.5355 4.57227C48.6625 4.57227 47.9418 5.01172 47.602 5.67969H47.5082C47.2152 5.02344 46.6176 4.57227 45.7621 4.57227C44.9359 4.57227 44.3383 4.96484 44.057 5.64453H43.9633V4.68359H42.9438V11ZM55.0695 11.1113C55.9191 11.1113 56.5812 10.7422 56.9797 10.0684H57.0734V11H58.093V6.67578C58.093 5.36328 57.2316 4.57227 55.6906 4.57227C54.343 4.57227 53.382 5.24023 53.218 6.23047L53.2121 6.26562H54.2316L54.2375 6.24805C54.4016 5.75586 54.8996 5.47461 55.6555 5.47461C56.5988 5.47461 57.0734 5.89648 57.0734 6.67578V7.25L55.2629 7.36133C53.7922 7.44922 52.9602 8.09961 52.9602 9.22461V9.23633C52.9602 10.3848 53.8684 11.1113 55.0695 11.1113ZM54.0031 9.21289V9.20117C54.0031 8.57422 54.425 8.23438 55.3859 8.17578L57.0734 8.07031V8.64453C57.0734 9.54688 56.3176 10.2266 55.2805 10.2266C54.548 10.2266 54.0031 9.85156 54.0031 9.21289Z" />
    <path fill-rule="evenodd" clip-rule="evenodd"
      d="M76.9828 4.52294C75.0717 2.89057 72.6574 2 70.1327 2C67.6006 2 65.1795 2.89589 63.2661 4.53708L63.1036 4.67646C62.9722 4.78918 62.9647 4.98954 63.0873 5.11176L64.2142 6.23557C64.3236 6.34466 64.4985 6.3521 64.6168 6.2527L64.7564 6.13541C66.2633 4.86943 68.1552 4.18035 70.1327 4.18035C72.1035 4.18035 73.9894 4.86472 75.494 6.12283L75.6336 6.23952C75.7519 6.33847 75.9264 6.33084 76.0356 6.22195L77.1627 5.09797C77.2855 4.97558 77.2777 4.77488 77.1459 4.66228L76.9828 4.52294ZM70.1327 5.46979C71.7236 5.46979 73.251 5.99754 74.4953 6.97486L74.6711 7.11298C74.8113 7.2231 74.8236 7.43059 74.6974 7.55643L73.5667 8.68407C73.4621 8.78836 73.2966 8.80034 73.178 8.7122L73.0401 8.60976C72.1997 7.98518 71.1864 7.65015 70.1327 7.65015C69.0726 7.65015 68.0533 7.98934 67.2101 8.62109L67.0721 8.72448C66.9535 8.81334 66.7874 8.80164 66.6825 8.69703L65.5522 7.56981C65.4262 7.44423 65.4382 7.23727 65.5777 7.12694L65.7526 6.98871C66.9998 6.00267 68.5342 5.46979 70.1327 5.46979ZM70.1327 8.93959C70.7722 8.93959 71.3936 9.10763 71.9411 9.42805L72.163 9.55788C72.3311 9.65631 72.3607 9.88666 72.2228 10.0242L70.3287 11.913C70.2124 12.029 70.0238 12.029 69.9074 11.913L68.0255 10.0363C67.8882 9.8994 67.9169 9.67022 68.0836 9.57107L68.303 9.44065C68.8555 9.11212 69.4848 8.93959 70.1327 8.93959Z" />
  </g>
</svg>