<svg width="54" height="21" viewBox="0 0 54 21" fill="none" xmlns="http://www.w3.org/2000/svg">
  <g fill="#000000">
    <path
      d="M16.3208 16.2563C19.0088 16.2563 20.6055 14.1543 20.6055 10.5947C20.6055 9.25439 20.3491 8.12646 19.8584 7.25488C19.1479 5.8999 17.9248 5.16748 16.3794 5.16748C14.0796 5.16748 12.4536 6.71289 12.4536 8.88086C12.4536 10.917 13.9185 12.3965 15.9326 12.3965C17.1704 12.3965 18.1738 11.8179 18.6719 10.8145H18.6938C18.6938 10.8145 18.7231 10.8145 18.7305 10.8145C18.7451 10.8145 18.7964 10.8145 18.7964 10.8145C18.7964 13.2314 17.8809 14.6743 16.3354 14.6743C15.4272 14.6743 14.7241 14.1763 14.4824 13.3779H12.6001C12.915 15.1138 14.3872 16.2563 16.3208 16.2563ZM16.3867 10.895C15.1709 10.895 14.3066 10.0308 14.3066 8.82227C14.3066 7.64307 15.2148 6.74219 16.394 6.74219C17.5732 6.74219 18.4814 7.65771 18.4814 8.85156C18.4814 10.0308 17.5952 10.895 16.3867 10.895Z" />
    <path
      d="M23.6966 16.1538C24.3924 16.1538 24.8685 15.6558 24.8685 14.9966C24.8685 14.3301 24.3924 13.8394 23.6966 13.8394C23.0081 13.8394 22.5247 14.3301 22.5247 14.9966C22.5247 15.6558 23.0081 16.1538 23.6966 16.1538ZM23.6966 10.6606C24.3924 10.6606 24.8685 10.1699 24.8685 9.51074C24.8685 8.84424 24.3924 8.35352 23.6966 8.35352C23.0081 8.35352 22.5247 8.84424 22.5247 9.51074C22.5247 10.1699 23.0081 10.6606 23.6966 10.6606Z" />
    <path
      d="M31.7242 16H33.5333V14.0298H34.9615V12.4331H33.5333V5.43115H30.8673C28.9996 8.24365 27.5128 10.5947 26.5606 12.3452V14.0298H31.7242V16ZM28.3111 12.3672C29.5416 10.1992 30.6402 8.46338 31.651 6.96924H31.7535V12.4771H28.3111V12.3672Z" />
    <path d="M38.9901 16H40.8798V5.43115H38.9975L36.2362 7.36475V9.18115L38.8656 7.33545H38.9901V16Z" />
  </g>
</svg>