<svg width="102" height="18" viewBox="0 0 102 18" fill="none" xmlns="http://www.w3.org/2000/svg">
  <g fill="#000">
    <path fill-rule="evenodd" clip-rule="evenodd"
      d="M4.70939 2.66394C4.97566 2.39767 4.97566 1.96597 4.70939 1.6997C4.44312 1.43343 4.01142 1.43343 3.74515 1.6997L1.6997 3.74515C1.43343 4.01142 1.43343 4.44312 1.6997 4.70939C1.96597 4.97566 2.39767 4.97566 2.66394 4.70939L4.70939 2.66394ZM14.2548 1.6997C13.9886 1.43343 13.5569 1.43343 13.2906 1.6997C13.0243 1.96597 13.0243 2.39767 13.2906 2.66394L15.3361 4.70939C15.6023 4.97566 16.034 4.97566 16.3003 4.70939C16.5666 4.44312 16.5666 4.01142 16.3003 3.74515L14.2548 1.6997ZM9.00002 4.22731C5.98756 4.22731 3.54548 6.6694 3.54548 9.68186C3.54548 12.6943 5.98756 15.1364 9.00002 15.1364C12.0125 15.1364 14.4546 12.6943 14.4546 9.68186C14.4546 6.6694 12.0125 4.22731 9.00002 4.22731ZM2.18184 9.68186C2.18184 5.91628 5.23444 2.86368 9.00002 2.86368C12.7656 2.86368 15.8182 5.91628 15.8182 9.68186C15.8182 13.4474 12.7656 16.5 9.00002 16.5C5.23444 16.5 2.18184 13.4474 2.18184 9.68186ZM8.99998 5.59092C9.37654 5.59092 9.6818 5.89618 9.6818 6.27274V9.31706L11.4236 10.4781C11.7369 10.687 11.8216 11.1103 11.6128 11.4236C11.4039 11.737 10.9806 11.8217 10.6673 11.6128L8.92523 10.4517C8.73853 10.3271 8.58521 10.1582 8.47935 9.96029C8.37351 9.76241 8.31814 9.54146 8.31816 9.31706V6.27274C8.31816 5.89618 8.62342 5.59092 8.99998 5.59092Z" />
    <path fill-rule="evenodd" clip-rule="evenodd"
      d="M77.9001 4.0001C77.9001 3.50304 77.4972 3.1001 77.0001 3.1001C76.503 3.1001 76.1001 3.50304 76.1001 4.0001V14.0001C76.1001 14.4972 76.503 14.9001 77.0001 14.9001C77.4972 14.9001 77.9001 14.4972 77.9001 14.0001V4.0001ZM71.1999 9.2999C71.1999 8.80285 70.797 8.3999 70.2999 8.3999C69.8028 8.3999 69.3999 8.80285 69.3999 9.2999V13.9999C69.3999 14.497 69.8028 14.8999 70.2999 14.8999C70.797 14.8999 71.1999 14.497 71.1999 13.9999V9.2999ZM67.0001 11.1001C67.4972 11.1001 67.9001 11.503 67.9001 12.0001V14.0001C67.9001 14.4972 67.4972 14.9001 67.0001 14.9001C66.503 14.9001 66.1001 14.4972 66.1001 14.0001V12.0001C66.1001 11.503 66.503 11.1001 67.0001 11.1001ZM74.6 6.70005C74.6 6.20299 74.1971 5.80005 73.7 5.80005C73.203 5.80005 72.8 6.20299 72.8 6.70005V14C72.8 14.4971 73.203 14.9 73.7 14.9C74.1971 14.9 74.6 14.4971 74.6 14V6.70005Z" />
    <path fill-rule="evenodd" clip-rule="evenodd"
      d="M47.4742 5.23251C48.5624 4.78041 49.7295 4.54842 50.9079 4.54996L50.909 4.54996C53.3877 4.54996 55.6296 5.55631 57.2511 7.18469C57.5628 7.49777 58.0694 7.49885 58.3824 7.18709C58.6955 6.87534 58.6966 6.3688 58.3848 6.05572C56.4754 4.13823 53.8306 2.9501 50.9095 2.94996L50.91 2.94996L50.909 3.74996V2.94996L50.9095 2.94996C49.5198 2.94822 48.1436 3.22181 46.8603 3.75494C45.5769 4.28814 44.4118 5.07037 43.4324 6.05644C43.121 6.36992 43.1227 6.87645 43.4362 7.18781C43.7497 7.49917 44.2562 7.49745 44.5676 7.18397C45.398 6.34787 46.3859 5.68461 47.4742 5.23251ZM48.572 8.02621C49.3104 7.71099 50.1051 7.54896 50.908 7.54996H50.9099C51.7128 7.54896 52.5075 7.71099 53.2459 8.02621C53.9842 8.34144 54.6509 8.80331 55.2055 9.38383C55.5107 9.7033 56.0171 9.71487 56.3366 9.40967C56.656 9.10446 56.6676 8.59806 56.3624 8.27859C55.6582 7.54146 54.8117 6.95498 53.8741 6.55471C52.9368 6.15456 51.9281 5.94883 50.909 5.94996L50.9099 5.94996L50.909 6.74996L50.908 5.94996L50.909 5.94996C49.8898 5.94883 48.8811 6.15456 47.9438 6.55471C47.0062 6.95498 46.1597 7.54146 45.4555 8.27859C45.1503 8.59806 45.1619 9.10446 45.4813 9.40967C45.8008 9.71487 46.3072 9.7033 46.6124 9.38383C47.167 8.80331 47.8337 8.34144 48.572 8.02621ZM49.6908 10.8122C50.0732 10.6389 50.4882 10.5495 50.9081 10.55L50.909 10.55C51.7932 10.55 52.586 10.9383 53.1276 11.5556C53.419 11.8877 53.9245 11.9207 54.2566 11.6293C54.5887 11.3379 54.6217 10.8325 54.3303 10.5003C53.498 9.55176 52.2735 8.95009 50.9094 8.94996L50.9099 8.94996L50.909 9.74996V8.94996H50.9094C50.2613 8.9493 49.6206 9.08736 49.0303 9.35488C48.4399 9.62245 47.9136 10.0133 47.4868 10.5013C47.1959 10.8338 47.2297 11.3392 47.5622 11.6301C47.8948 11.921 48.4002 11.8872 48.6911 11.5547C48.9675 11.2387 49.3084 10.9855 49.6908 10.8122ZM52 13.2C52 13.7522 51.5523 14.2 51 14.2C50.4477 14.2 50 13.7522 50 13.2C50 12.6477 50.4477 12.2 51 12.2C51.5523 12.2 52 12.6477 52 13.2Z" />
    <path fill-rule="evenodd" clip-rule="evenodd"
      d="M29.699 2.06944C29.927 1.95803 30.1999 1.98207 30.4039 2.13155L34.7308 5.30269C34.9028 5.42879 35.0029 5.62765 34.9999 5.83781C34.997 6.04796 34.8915 6.24409 34.716 6.36557L30.91 9L34.716 11.6344C34.8915 11.7559 34.997 11.952 34.9999 12.1622C35.0029 12.3723 34.9028 12.5712 34.7308 12.6973L30.4039 15.8685C30.1999 16.0179 29.927 16.042 29.699 15.9306C29.471 15.8191 29.327 15.5914 29.327 15.3423V10.0957L26.0622 12.3555C25.7588 12.5655 25.3387 12.4954 25.1239 12.199C24.909 11.9025 24.9807 11.492 25.2841 11.2821L28.5811 9L25.2841 6.71792C24.9807 6.50796 24.909 6.09746 25.1239 5.80104C25.3387 5.50462 25.7588 5.43453 26.0622 5.6445L29.327 7.90429V2.65772C29.327 2.4086 29.471 2.18085 29.699 2.06944ZM30.6731 10.4481L33.1844 12.1863L30.6731 14.0268V10.4481ZM30.6731 7.55194V3.97316L33.1844 5.81367L30.6731 7.55194Z" />
    <path fill-rule="evenodd" clip-rule="evenodd"
      d="M86.159 4.40901C86.581 3.98705 87.1533 3.75 87.75 3.75H96.75C97.3467 3.75 97.919 3.98705 98.341 4.40901C98.7629 4.83097 99 5.40326 99 6V6.12868C99.3134 6.2395 99.6014 6.41946 99.841 6.65901C100.263 7.08097 100.5 7.65326 100.5 8.25V9.75C100.5 10.3467 100.263 10.919 99.841 11.341C99.6014 11.5805 99.3134 11.7605 99 11.8713V12C99 12.5967 98.7629 13.169 98.341 13.591C97.919 14.0129 97.3467 14.25 96.75 14.25H87.75C87.1533 14.25 86.581 14.0129 86.159 13.591C85.7371 13.169 85.5 12.5967 85.5 12V6C85.5 5.40326 85.7371 4.83097 86.159 4.40901ZM87.75 5.25C87.5511 5.25 87.3603 5.32902 87.2197 5.46967C87.079 5.61032 87 5.80109 87 6V12C87 12.1989 87.079 12.3897 87.2197 12.5303C87.3603 12.671 87.5511 12.75 87.75 12.75H96.75C96.9489 12.75 97.1397 12.671 97.2803 12.5303C97.421 12.3897 97.5 12.1989 97.5 12V11.25C97.5 10.8358 97.8358 10.5 98.25 10.5C98.4489 10.5 98.6397 10.421 98.7803 10.2803C98.921 10.1397 99 9.94891 99 9.75V8.25C99 8.05109 98.921 7.86032 98.7803 7.71967C98.6397 7.57902 98.4489 7.5 98.25 7.5C97.8358 7.5 97.5 7.16421 97.5 6.75V6C97.5 5.80109 97.421 5.61032 97.2803 5.46967C97.1397 5.32902 96.9489 5.25 96.75 5.25H87.75ZM89.25 6.75C89.6642 6.75 90 7.08579 90 7.5V10.5C90 10.9142 89.6642 11.25 89.25 11.25C88.8358 11.25 88.5 10.9142 88.5 10.5V7.5C88.5 7.08579 88.8358 6.75 89.25 6.75ZM92.25 6.75C92.6642 6.75 93 7.08579 93 7.5V10.5C93 10.9142 92.6642 11.25 92.25 11.25C91.8358 11.25 91.5 10.9142 91.5 10.5V7.5C91.5 7.08579 91.8358 6.75 92.25 6.75ZM95.25 6.75C95.6642 6.75 96 7.08579 96 7.5V10.5C96 10.9142 95.6642 11.25 95.25 11.25C94.8358 11.25 94.5 10.9142 94.5 10.5V7.5C94.5 7.08579 94.8358 6.75 95.25 6.75Z" />
  </g>
</svg>