<svg width="91" height="17" viewBox="0 0 91 17" fill="none" xmlns="http://www.w3.org/2000/svg">
  <g fill="#000">
    <path opacity="0.35" fill-rule="evenodd" clip-rule="evenodd"
      d="M66.5 1.5H85.5C86.8807 1.5 88 2.61929 88 4V10.5C88 11.8807 86.8807 13 85.5 13H66.5C65.1193 13 64 11.8807 64 10.5V4C64 2.61929 65.1193 1.5 66.5 1.5ZM66.5 2.5C65.6716 2.5 65 3.17157 65 4V10.5C65 11.3284 65.6716 12 66.5 12H85.5C86.3284 12 87 11.3284 87 10.5V4C87 3.17157 86.3284 2.5 85.5 2.5H66.5Z" />
    <path opacity="0.4" fill-rule="evenodd" clip-rule="evenodd"
      d="M89 4.7998C89.8904 5.25498 90.5 6.18128 90.5 7.24995C90.5 8.31862 89.8904 9.24492 89 9.7001V4.7998Z" />
    <path fill-rule="evenodd" clip-rule="evenodd"
      d="M67 3.5H85C85.5523 3.5 86 3.94772 86 4.5V10C86 10.5523 85.5523 11 85 11H67C66.4477 11 66 10.5523 66 10V4.5C66 3.94772 66.4477 3.5 67 3.5Z" />
    <path
      d="M32.2188 11.3H33.2734V2.84497H32.2246L29.9746 4.46216V5.57544L32.125 4.01685H32.2188V11.3ZM38.5469 11.4993C40.416 11.4993 41.541 9.79419 41.541 7.07544V7.06372C41.541 4.34497 40.416 2.64575 38.5469 2.64575C36.6777 2.64575 35.5645 4.34497 35.5645 7.06372V7.07544C35.5645 9.79419 36.6777 11.4993 38.5469 11.4993ZM38.5469 10.5793C37.334 10.5793 36.625 9.23169 36.625 7.07544V7.06372C36.625 4.90747 37.334 3.57153 38.5469 3.57153C39.7598 3.57153 40.4805 4.90747 40.4805 7.06372V7.07544C40.4805 9.23169 39.7598 10.5793 38.5469 10.5793ZM46.1055 11.4993C47.9746 11.4993 49.0996 9.79419 49.0996 7.07544V7.06372C49.0996 4.34497 47.9746 2.64575 46.1055 2.64575C44.2363 2.64575 43.123 4.34497 43.123 7.06372V7.07544C43.123 9.79419 44.2363 11.4993 46.1055 11.4993ZM46.1055 10.5793C44.8926 10.5793 44.1836 9.23169 44.1836 7.07544V7.06372C44.1836 4.90747 44.8926 3.57153 46.1055 3.57153C47.3184 3.57153 48.0391 4.90747 48.0391 7.06372V7.07544C48.0391 9.23169 47.3184 10.5793 46.1055 10.5793ZM52.4102 7.29224C53.4883 7.29224 54.1445 6.41333 54.1445 5.01294V5.00708C54.1445 3.60669 53.4883 2.73364 52.4102 2.73364C51.332 2.73364 50.6816 3.60669 50.6816 5.00708V5.01294C50.6816 6.41333 51.332 7.29224 52.4102 7.29224ZM53.0254 11.3L58.7969 2.84497H57.8652L52.0938 11.3H53.0254ZM52.4102 6.59497C51.8301 6.59497 51.4961 6.00317 51.4961 5.01294V5.00708C51.4961 4.01685 51.8301 3.43091 52.4102 3.43091C52.9902 3.43091 53.3301 4.01685 53.3301 5.00708V5.01294C53.3301 6.00317 52.9902 6.59497 52.4102 6.59497ZM58.4688 11.4114C59.5469 11.4114 60.2031 10.5325 60.2031 9.13208V9.12622C60.2031 7.72583 59.5469 6.85278 58.4688 6.85278C57.3906 6.85278 56.7402 7.72583 56.7402 9.12622V9.13208C56.7402 10.5325 57.3906 11.4114 58.4688 11.4114ZM58.4688 10.7141C57.8887 10.7141 57.5547 10.1223 57.5547 9.13208V9.12622C57.5547 8.13599 57.8887 7.55005 58.4688 7.55005C59.0488 7.55005 59.3887 8.13599 59.3887 9.12622V9.13208C59.3887 10.1223 59.0488 10.7141 58.4688 10.7141Z" />
    <path fill-rule="evenodd" clip-rule="evenodd"
      d="M2.26912 4.69225C2.1 4.46378 2 4.18107 2 3.875C2 3.11561 2.61561 2.5 3.375 2.5C3.64743 2.5 3.90135 2.57923 4.11498 2.7159C3.34423 3.20596 2.70675 3.88693 2.26912 4.69225ZM11.37 7.255C11.37 9.67125 9.41125 11.63 6.995 11.63C4.57875 11.63 2.62 9.67125 2.62 7.255C2.62 4.83875 4.57875 2.88 6.995 2.88C9.41125 2.88 11.37 4.83875 11.37 7.255ZM7.38 7.875H5.25V7.12H6.63V4.5H7.38V7.875ZM10.625 2.5C10.3505 2.5 10.0947 2.58046 9.88004 2.71909C10.651 3.21049 11.2883 3.89306 11.7251 4.70001C11.8977 4.4702 12 4.18455 12 3.875C12 3.11561 11.3844 2.5 10.625 2.5Z" />
    <path fill-rule="evenodd" clip-rule="evenodd"
      d="M20.9998 6.98339V6.97121L18.0435 4.28366L18.7161 3.54372L20.9998 5.61975V1.11975L24.9931 4.75003L22.5181 7.00003L24.9931 9.25003L20.9998 12.8803V8.33485L18.7161 10.4109L18.0435 9.67094L20.9998 6.98339ZM21.9998 6.11975L23.5065 4.75003L21.9998 3.3803V6.11975ZM23.5065 9.25003L21.9998 10.6198V7.8803L23.5065 9.25003Z" />
  </g>
</svg>