<svg width="68" height="21" viewBox="0 0 68 21" fill="none" xmlns="http://www.w3.org/2000/svg">
  <g fill="#000000">
    <path opacity="0.35"
      d="M43.5 12C43.5 10.8034 44.47 9.83337 45.6667 9.83337H62.3333C63.53 9.83337 64.5 10.8034 64.5 12V18C64.5 19.1967 63.53 20.1667 62.3333 20.1667H45.6667C44.47 20.1667 43.5 19.1967 43.5 18V12Z" />
    <path opacity="0.4"
      d="M66 13.0001V17.0001C66.8047 16.6613 67.328 15.8732 67.328 15.0001C67.328 14.1269 66.8047 13.3388 66 13.0001Z" />
    <path
      d="M45 12.6667C45 11.9303 45.597 11.3334 46.3333 11.3334H61.6667C62.403 11.3334 63 11.9303 63 12.6667V17.3334C63 18.0698 62.403 18.6667 61.6667 18.6667H46.3333C45.597 18.6667 45 18.0698 45 17.3334V12.6667Z" />
    <path fill-rule="evenodd" clip-rule="evenodd"
      d="M30.33 11.608C32.5459 11.6081 34.677 12.4596 36.283 13.9863C36.4039 14.1042 36.5972 14.1027 36.7163 13.983L37.8723 12.8163C37.9326 12.7556 37.9662 12.6734 37.9657 12.5878C37.9652 12.5022 37.9306 12.4204 37.8696 12.3603C33.6545 8.3208 27.0047 8.3208 22.7896 12.3603C22.7286 12.4203 22.6939 12.5021 22.6934 12.5877C22.6928 12.6733 22.7264 12.7556 22.7866 12.8163L23.943 13.983C24.062 14.1029 24.2554 14.1044 24.3763 13.9863C25.9825 12.4595 28.1139 11.608 30.33 11.608ZM30.33 15.4037C31.5475 15.4036 32.7215 15.8561 33.624 16.6733C33.746 16.7893 33.9383 16.7868 34.0573 16.6677L35.212 15.501C35.2728 15.4398 35.3065 15.3568 35.3056 15.2705C35.3048 15.1843 35.2693 15.102 35.2073 15.042C32.4591 12.4856 28.2032 12.4856 25.455 15.042C25.3929 15.102 25.3575 15.1843 25.3567 15.2706C25.3558 15.3569 25.3897 15.4399 25.4506 15.501L26.605 16.6677C26.724 16.7868 26.9162 16.7893 27.0383 16.6733C27.9402 15.8567 29.1133 15.4042 30.33 15.4037ZM32.643 17.9575C32.6447 18.044 32.6107 18.1274 32.549 18.188L30.5516 20.2037C30.4931 20.2629 30.4133 20.2963 30.33 20.2963C30.2467 20.2963 30.1668 20.2629 30.1083 20.2037L28.1106 18.188C28.0489 18.1274 28.015 18.0439 28.0168 17.9574C28.0186 17.8709 28.0561 17.789 28.1203 17.731C29.3959 16.6521 31.2641 16.6521 32.5396 17.731C32.6038 17.7891 32.6412 17.871 32.643 17.9575Z" />
    <path fill-rule="evenodd" clip-rule="evenodd"
      d="M16.6665 9.66663H15.6665C15.1142 9.66663 14.6665 10.1143 14.6665 10.6666V19.3333C14.6665 19.8856 15.1142 20.3333 15.6665 20.3333H16.6665C17.2188 20.3333 17.6665 19.8856 17.6665 19.3333V10.6666C17.6665 10.1143 17.2188 9.66663 16.6665 9.66663ZM10.9998 12H11.9998C12.5521 12 12.9998 12.4477 12.9998 13V19.3333C12.9998 19.8856 12.5521 20.3333 11.9998 20.3333H10.9998C10.4476 20.3333 9.99984 19.8856 9.99984 19.3333V13C9.99984 12.4477 10.4476 12 10.9998 12ZM7.33317 14.3333H6.33317C5.78089 14.3333 5.33317 14.781 5.33317 15.3333V19.3333C5.33317 19.8856 5.78089 20.3333 6.33317 20.3333H7.33317C7.88546 20.3333 8.33317 19.8856 8.33317 19.3333V15.3333C8.33317 14.781 7.88546 14.3333 7.33317 14.3333ZM2.6665 16.3333H1.6665C1.11422 16.3333 0.666504 16.781 0.666504 17.3333V19.3333C0.666504 19.8856 1.11422 20.3333 1.6665 20.3333H2.6665C3.21879 20.3333 3.6665 19.8856 3.6665 19.3333V17.3333C3.6665 16.781 3.21879 16.3333 2.6665 16.3333Z" />
  </g>
</svg>