<svg width="54" height="18" viewBox="0 0 54 18" fill="none" xmlns="http://www.w3.org/2000/svg">
  <g fill="#000">
    <path
      d="M7.30918 14C6.97407 14 6.63431 13.9499 6.28989 13.8497C5.94548 13.7495 5.61968 13.5993 5.3125 13.3989C5.01463 13.1894 4.74934 12.9253 4.51662 12.6066C4.28391 12.2878 4.1117 11.9098 4 11.4727L5.39628 10.9262C5.51729 11.4089 5.73604 11.8051 6.05253 12.1148C6.37832 12.4153 6.79255 12.5656 7.29521 12.5656C7.54654 12.5656 7.78391 12.5246 8.00731 12.4426C8.23072 12.3515 8.42154 12.2332 8.57979 12.0874C8.73803 11.9326 8.8637 11.7505 8.95678 11.541C9.04987 11.3315 9.09641 11.0993 9.09641 10.8443C9.09641 10.5893 9.04987 10.357 8.95678 10.1475C8.87301 9.92896 8.75199 9.74226 8.59375 9.58743C8.43551 9.4326 8.24468 9.31421 8.02128 9.23224C7.79787 9.14117 7.55585 9.09563 7.29521 9.09563C6.98803 9.09563 6.70878 9.16393 6.45745 9.30055C6.20612 9.42805 5.99668 9.59654 5.82912 9.80601L4.29322 9.13661L4.86569 4.43716H10.0738V5.81694H6.16423L5.81516 8.24863L5.89894 8.27596C6.10372 8.12113 6.34109 7.98907 6.61104 7.87978C6.88098 7.77049 7.21144 7.71585 7.60239 7.71585C8.00266 7.71585 8.38431 7.79326 8.74734 7.94809C9.11968 8.09381 9.44548 8.30328 9.72473 8.5765C10.004 8.84973 10.2274 9.1776 10.3949 9.56011C10.5625 9.94262 10.6463 10.3661 10.6463 10.8306C10.6463 11.286 10.5625 11.7095 10.3949 12.1011C10.2274 12.4836 9.99468 12.816 9.69681 13.0984C9.39894 13.3807 9.04521 13.6038 8.63564 13.7678C8.23537 13.9226 7.79322 14 7.30918 14Z" />
    <path
      d="M13.0682 13.8634C12.7703 13.8634 12.5143 13.7632 12.3002 13.5628C12.0954 13.3534 11.993 13.1029 11.993 12.8115C11.993 12.52 12.0954 12.2696 12.3002 12.0601C12.5143 11.8506 12.7703 11.7459 13.0682 11.7459C13.366 11.7459 13.622 11.8506 13.8361 12.0601C14.0502 12.2696 14.1573 12.52 14.1573 12.8115C14.1573 13.1029 14.0502 13.3534 13.8361 13.5628C13.622 13.7632 13.366 13.8634 13.0682 13.8634ZM13.0682 9.06831C12.7703 9.06831 12.5143 8.96812 12.3002 8.76776C12.0954 8.55829 11.993 8.30783 11.993 8.01639C11.993 7.72495 12.0954 7.47905 12.3002 7.27869C12.5143 7.06922 12.7703 6.96448 13.0682 6.96448C13.366 6.96448 13.622 7.06922 13.8361 7.27869C14.0502 7.47905 14.1573 7.72495 14.1573 8.01639C14.1573 8.30783 14.0502 8.55829 13.8361 8.76776C13.622 8.96812 13.366 9.06831 13.0682 9.06831Z" />
    <path d="M17.7454 13.7814V6.26776L15.9721 7.01913L15.3857 5.72131L18.1922 4.43716H19.2952V13.7814H17.7454Z" />
    <path
      d="M24.2422 14C23.9071 14 23.572 13.9545 23.2369 13.8634C22.9018 13.7723 22.5853 13.6311 22.2874 13.4399C21.9988 13.2395 21.7382 12.9891 21.5055 12.6885C21.2728 12.388 21.0959 12.0282 20.9749 11.6093L22.427 11.0219C22.5574 11.5137 22.7808 11.8916 23.0972 12.1557C23.4137 12.4199 23.7954 12.5519 24.2422 12.5519C24.4656 12.5519 24.6797 12.5155 24.8845 12.4426C25.0986 12.3698 25.2847 12.2696 25.443 12.1421C25.6012 12.0055 25.7269 11.8506 25.82 11.6776C25.9131 11.4954 25.9596 11.2951 25.9596 11.0765C25.9596 10.8579 25.9084 10.6576 25.806 10.4754C25.7129 10.2933 25.5826 10.1384 25.4151 10.0109C25.2475 9.88342 25.0474 9.78324 24.8147 9.71038C24.5913 9.63752 24.3492 9.60109 24.0886 9.60109H23.2648V8.19399H24.0048C24.2282 8.19399 24.433 8.16667 24.6192 8.11202C24.8147 8.04827 24.9869 7.96175 25.1358 7.85246C25.2847 7.74317 25.4011 7.60656 25.4849 7.44262C25.5687 7.26958 25.6105 7.07377 25.6105 6.85519C25.6105 6.48178 25.4709 6.19035 25.1917 5.98087C24.9217 5.76229 24.5773 5.65301 24.1584 5.65301C23.9257 5.65301 23.7209 5.68488 23.5441 5.74863C23.3765 5.81239 23.2322 5.89891 23.1112 6.0082C22.9902 6.11749 22.8878 6.24044 22.804 6.37705C22.7296 6.50455 22.6691 6.63661 22.6225 6.77322L21.1983 6.18579C21.2728 5.96721 21.3891 5.74408 21.5474 5.51639C21.7056 5.2796 21.9058 5.06557 22.1478 4.87432C22.3898 4.68306 22.6737 4.52823 22.9995 4.40984C23.3346 4.28233 23.7209 4.21858 24.1584 4.21858C24.6052 4.21858 25.0148 4.28233 25.3871 4.40984C25.7595 4.53734 26.0806 4.71494 26.3506 4.94262C26.6205 5.17031 26.83 5.43898 26.9789 5.74863C27.1278 6.05829 27.2023 6.39526 27.2023 6.75956C27.2023 7.02368 27.1651 7.26503 27.0906 7.48361C27.0254 7.70219 26.9324 7.898 26.8113 8.07104C26.6903 8.23497 26.5554 8.37614 26.4064 8.49454C26.2575 8.61293 26.1039 8.71311 25.9457 8.79508V8.87705C26.1597 8.96812 26.3645 9.08652 26.56 9.23224C26.7555 9.36885 26.923 9.53279 27.0627 9.72404C27.2116 9.9153 27.328 10.1339 27.4117 10.3798C27.4955 10.6166 27.5374 10.8761 27.5374 11.1585C27.5374 11.5683 27.4536 11.9508 27.2861 12.306C27.1185 12.6521 26.8858 12.9526 26.5879 13.2077C26.2994 13.4536 25.955 13.6448 25.5547 13.7814C25.1544 13.9271 24.7169 14 24.2422 14Z" />
    <path
      d="M32.1678 13.7814V4H35.6306C36.0774 4 36.4963 4.07286 36.8872 4.21858C37.2875 4.3643 37.6366 4.56922 37.9344 4.83333C38.2323 5.09745 38.465 5.41621 38.6326 5.78962C38.8094 6.15392 38.8979 6.5592 38.8979 7.00546C38.8979 7.44262 38.8094 7.84791 38.6326 8.22131C38.465 8.58561 38.2323 8.89982 37.9344 9.16393C37.6366 9.42805 37.2875 9.63297 36.8872 9.77869C36.4963 9.92441 36.0774 9.99727 35.6306 9.99727H33.7456V13.7814H32.1678ZM35.6725 8.52186C35.9331 8.52186 36.1658 8.48087 36.3706 8.39891C36.5754 8.30783 36.7476 8.18944 36.8872 8.04372C37.0268 7.898 37.1339 7.73406 37.2084 7.55191C37.2828 7.36976 37.3201 7.18761 37.3201 7.00546C37.3201 6.81421 37.2828 6.6275 37.2084 6.44536C37.1339 6.26321 37.0268 6.10382 36.8872 5.96721C36.7476 5.82149 36.5754 5.7031 36.3706 5.61202C36.1658 5.52095 35.9331 5.47541 35.6725 5.47541H33.7456V8.52186H35.6725Z" />
    <path
      d="M40.24 4H41.8178L45.0851 9.56011H45.1689L48.4362 4H50V13.7814H48.4362V8.46721L48.52 6.82787H48.4362L45.5878 11.7049H44.6523L41.8178 6.82787H41.734L41.8178 8.46721V13.7814H40.24V4Z" />
  </g>
</svg>