<svg width="47" height="10" viewBox="0 0 47 10" fill="none" xmlns="http://www.w3.org/2000/svg">
  <g fill="#000">
    <path
      d="M3.2793 0.333984C1.44531 0.333984 0.138672 1.58789 0.138672 3.30469V3.31641C0.138672 4.92188 1.27539 6.10547 2.89844 6.10547C4.05859 6.10547 4.79688 5.51367 5.10742 4.8457H5.22461C5.19531 6.55664 4.63867 7.96875 3.24414 7.96875C2.5 7.96875 1.97852 7.58203 1.75586 6.99023L1.73828 6.93164H0.25L0.261719 6.99609C0.53125 8.29102 1.69141 9.21094 3.24414 9.21094C5.37109 9.21094 6.6543 7.52344 6.6543 4.67578V4.66406C6.6543 1.61719 5.08398 0.333984 3.2793 0.333984ZM3.27344 4.94531C2.3125 4.94531 1.61523 4.24219 1.61523 3.26367V3.25195C1.61523 2.30859 2.35938 1.56445 3.29102 1.56445C4.22852 1.56445 4.96094 2.32031 4.96094 3.28711V3.29883C4.96094 4.25391 4.22852 4.94531 3.27344 4.94531ZM9.31445 3.52148C9.85352 3.52148 10.2461 3.11133 10.2461 2.5957C10.2461 2.07422 9.85352 1.66992 9.31445 1.66992C8.78125 1.66992 8.38281 2.07422 8.38281 2.5957C8.38281 3.11133 8.78125 3.52148 9.31445 3.52148ZM9.31445 7.86914C9.85352 7.86914 10.2461 7.46484 10.2461 6.94336C10.2461 6.42188 9.85352 6.01758 9.31445 6.01758C8.78125 6.01758 8.38281 6.42188 8.38281 6.94336C8.38281 7.46484 8.78125 7.86914 9.31445 7.86914ZM16.0762 9H17.5234V7.37695H18.6602V6.12891H17.5234V0.544922H15.3848C14.2363 2.29102 13.0352 4.23633 11.9395 6.14062V7.37695H16.0762V9ZM13.3457 6.16406V6.07617C14.166 4.64062 15.1445 3.07617 16.0117 1.75195H16.0996V6.16406H13.3457ZM22.1641 9H23.6758V0.544922H22.1699L19.9609 2.09766V3.52148L22.0645 2.0332H22.1641V9ZM28.7559 9H30.3379L31.041 6.81445H34.1699L34.8789 9H36.4609L33.4609 0.544922H31.7559L28.7559 9ZM32.5586 2.11523H32.6582L33.7949 5.64844H31.4219L32.5586 2.11523ZM37.9141 9H39.2793V2.98828H39.3789L41.7227 9H42.7539L45.0977 2.98828H45.2031V9H46.5625V0.544922H44.8281L42.291 7.04883H42.1914L39.6484 0.544922H37.9141V9Z" />
  </g>
</svg>