<svg width="60" height="60" viewBox="0 0 60 60" fill="none" xmlns="http://www.w3.org/2000/svg">
<rect x="5.5" y="54.5" width="38" height="49" rx="1.5" transform="rotate(-90 5.5 54.5)" stroke="#333333"/>
<path d="M9.03125 10.0098H6.86914L6.85742 9.10156H8.82031C9.14453 9.10156 9.42773 9.04688 9.66992 8.9375C9.91211 8.82812 10.0996 8.67188 10.2324 8.46875C10.3691 8.26172 10.4375 8.01562 10.4375 7.73047C10.4375 7.41797 10.377 7.16406 10.2559 6.96875C10.1387 6.76953 9.95703 6.625 9.71094 6.53516C9.46875 6.44141 9.16016 6.39453 8.78516 6.39453H7.12109V14H5.99023V5.46875H8.78516C9.22266 5.46875 9.61328 5.51367 9.95703 5.60352C10.3008 5.68945 10.5918 5.82617 10.8301 6.01367C11.0723 6.19727 11.2559 6.43164 11.3809 6.7168C11.5059 7.00195 11.5684 7.34375 11.5684 7.74219C11.5684 8.09375 11.4785 8.41211 11.2988 8.69727C11.1191 8.97852 10.8691 9.20898 10.5488 9.38867C10.2324 9.56836 9.86133 9.68359 9.43555 9.73438L9.03125 10.0098ZM8.97852 14H6.42383L7.0625 13.0801H8.97852C9.33789 13.0801 9.64258 13.0176 9.89258 12.8926C10.1465 12.7676 10.3398 12.5918 10.4727 12.3652C10.6055 12.1348 10.6719 11.8633 10.6719 11.5508C10.6719 11.2344 10.6152 10.9609 10.502 10.7305C10.3887 10.5 10.2109 10.3223 9.96875 10.1973C9.72656 10.0723 9.41406 10.0098 9.03125 10.0098H7.41992L7.43164 9.10156H9.63477L9.875 9.42969C10.2852 9.46484 10.6328 9.58203 10.918 9.78125C11.2031 9.97656 11.4199 10.2266 11.5684 10.5312C11.7207 10.8359 11.7969 11.1719 11.7969 11.5391C11.7969 12.0703 11.6797 12.5195 11.4453 12.8867C11.2148 13.25 10.8887 13.5273 10.4668 13.7188C10.0449 13.9062 9.54883 14 8.97852 14ZM13.0156 10.9004V10.7656C13.0156 10.3086 13.082 9.88477 13.2148 9.49414C13.3477 9.09961 13.5391 8.75781 13.7891 8.46875C14.0391 8.17578 14.3418 7.94922 14.6973 7.78906C15.0527 7.625 15.4512 7.54297 15.8926 7.54297C16.3379 7.54297 16.7383 7.625 17.0938 7.78906C17.4531 7.94922 17.7578 8.17578 18.0078 8.46875C18.2617 8.75781 18.4551 9.09961 18.5879 9.49414C18.7207 9.88477 18.7871 10.3086 18.7871 10.7656V10.9004C18.7871 11.3574 18.7207 11.7812 18.5879 12.1719C18.4551 12.5625 18.2617 12.9043 18.0078 13.1973C17.7578 13.4863 17.4551 13.7129 17.0996 13.877C16.748 14.0371 16.3496 14.1172 15.9043 14.1172C15.459 14.1172 15.0586 14.0371 14.7031 13.877C14.3477 13.7129 14.043 13.4863 13.7891 13.1973C13.5391 12.9043 13.3477 12.5625 13.2148 12.1719C13.082 11.7812 13.0156 11.3574 13.0156 10.9004ZM14.0996 10.7656V10.9004C14.0996 11.2168 14.1367 11.5156 14.2109 11.7969C14.2852 12.0742 14.3965 12.3203 14.5449 12.5352C14.6973 12.75 14.8867 12.9199 15.1133 13.0449C15.3398 13.166 15.6035 13.2266 15.9043 13.2266C16.2012 13.2266 16.4609 13.166 16.6836 13.0449C16.9102 12.9199 17.0977 12.75 17.2461 12.5352C17.3945 12.3203 17.5059 12.0742 17.5801 11.7969C17.6582 11.5156 17.6973 11.2168 17.6973 10.9004V10.7656C17.6973 10.4531 17.6582 10.1582 17.5801 9.88086C17.5059 9.59961 17.3926 9.35156 17.2402 9.13672C17.0918 8.91797 16.9043 8.74609 16.6777 8.62109C16.4551 8.49609 16.1934 8.43359 15.8926 8.43359C15.5957 8.43359 15.334 8.49609 15.1074 8.62109C14.8848 8.74609 14.6973 8.91797 14.5449 9.13672C14.3965 9.35156 14.2852 9.59961 14.2109 9.88086C14.1367 10.1582 14.0996 10.4531 14.0996 10.7656ZM20.75 7.66016L22.1387 9.96875L23.5449 7.66016H24.8164L22.7422 10.7891L24.8809 14H23.627L22.1621 11.6211L20.6973 14H19.4375L21.5703 10.7891L19.502 7.66016H20.75Z" fill="#333333"/>
<rect x="0.5" y="0.5" width="59" height="59" rx="3.5" stroke="#B3B3B3"/>
</svg>
