<svg width="19" height="18" viewBox="0 0 19 18" fill="none" xmlns="http://www.w3.org/2000/svg">
<path d="M8.87207 4.5C8.87207 4.08579 9.20786 3.75 9.62207 3.75C10.0363 3.75 10.3721 4.08579 10.3721 4.5V8.25H14.1221C14.5363 8.25 14.8721 8.58579 14.8721 9C14.8721 9.41421 14.5363 9.75 14.1221 9.75H10.3721V13.5C10.3721 13.9142 10.0363 14.25 9.62207 14.25C9.20786 14.25 8.87207 13.9142 8.87207 13.5V9.75H5.12207C4.70786 9.75 4.37207 9.41421 4.37207 9C4.37207 8.58579 4.70786 8.25 5.12207 8.25H8.87207V4.5Z" fill="white"/>
<path fill-rule="evenodd" clip-rule="evenodd" d="M3.62207 0C1.96522 0 0.62207 1.34315 0.62207 3V15C0.62207 16.6569 1.96522 18 3.62207 18H15.6221C17.2789 18 18.6221 16.6569 18.6221 15V3C18.6221 1.34315 17.2789 0 15.6221 0H3.62207ZM15.6221 1.5H3.62207C2.79364 1.5 2.12207 2.17157 2.12207 3V15C2.12207 15.8284 2.79364 16.5 3.62207 16.5H15.6221C16.4505 16.5 17.1221 15.8284 17.1221 15V3C17.1221 2.17157 16.4505 1.5 15.6221 1.5Z" fill="white"/>
</svg>
