<svg width="60" height="60" viewBox="0 0 60 60" fill="none" xmlns="http://www.w3.org/2000/svg">
<rect x="6.5" y="39.5" width="19" height="47" rx="1.5" transform="rotate(-90 6.5 39.5)" fill="#E6E6E6" stroke="#333333"/>
<path d="M13.7031 30.3447H11.1807L11.167 29.2852H13.457C13.8353 29.2852 14.1657 29.2214 14.4482 29.0938C14.7308 28.9661 14.9495 28.7839 15.1045 28.5469C15.264 28.3053 15.3438 28.0182 15.3438 27.6855C15.3438 27.321 15.2731 27.0247 15.1318 26.7969C14.9951 26.5645 14.7832 26.3958 14.4961 26.291C14.2135 26.1816 13.8535 26.127 13.416 26.127H11.4746V35H10.1553V25.0469H13.416C13.9264 25.0469 14.3822 25.0993 14.7832 25.2041C15.1842 25.3044 15.5238 25.4639 15.8018 25.6826C16.0843 25.8968 16.2985 26.1702 16.4443 26.5029C16.5902 26.8356 16.6631 27.2344 16.6631 27.6992C16.6631 28.1094 16.5583 28.4808 16.3486 28.8135C16.139 29.1416 15.8473 29.4105 15.4736 29.6201C15.1045 29.8298 14.6715 29.9642 14.1748 30.0234L13.7031 30.3447ZM13.6416 35H10.6611L11.4062 33.9268H13.6416C14.0609 33.9268 14.4163 33.8538 14.708 33.708C15.0042 33.5622 15.2298 33.3571 15.3848 33.0928C15.5397 32.8239 15.6172 32.5072 15.6172 32.1426C15.6172 31.7734 15.5511 31.4544 15.4189 31.1855C15.2868 30.9167 15.0794 30.7093 14.7969 30.5635C14.5143 30.4176 14.1497 30.3447 13.7031 30.3447H11.8232L11.8369 29.2852H14.4072L14.6875 29.668C15.166 29.709 15.5716 29.8457 15.9043 30.0781C16.237 30.306 16.4899 30.5977 16.6631 30.9531C16.8408 31.3086 16.9297 31.7005 16.9297 32.1289C16.9297 32.7487 16.793 33.2728 16.5195 33.7012C16.2507 34.125 15.8701 34.4486 15.3779 34.6719C14.8857 34.8906 14.307 35 13.6416 35ZM23.2119 33.291V27.6035H24.4834V35H23.2734L23.2119 33.291ZM23.4512 31.7324L23.9775 31.7188C23.9775 32.2109 23.9251 32.6667 23.8203 33.0859C23.7201 33.5007 23.556 33.8607 23.3281 34.166C23.1003 34.4714 22.8018 34.7106 22.4326 34.8838C22.0635 35.0524 21.6146 35.1367 21.0859 35.1367C20.7259 35.1367 20.3955 35.0843 20.0947 34.9795C19.7985 34.8747 19.5433 34.7129 19.3291 34.4941C19.1149 34.2754 18.9486 33.9906 18.8301 33.6396C18.7161 33.2887 18.6592 32.8672 18.6592 32.375V27.6035H19.9238V32.3887C19.9238 32.7214 19.9603 32.9971 20.0332 33.2158C20.1107 33.43 20.2132 33.6009 20.3408 33.7285C20.473 33.8516 20.6188 33.9382 20.7783 33.9883C20.9424 34.0384 21.111 34.0635 21.2842 34.0635C21.8219 34.0635 22.248 33.9609 22.5625 33.7559C22.877 33.5462 23.1025 33.266 23.2393 32.915C23.3805 32.5596 23.4512 32.1654 23.4512 31.7324ZM29.5078 27.6035V28.5742H25.5088V27.6035H29.5078ZM26.8623 25.8057H28.127V33.168C28.127 33.4186 28.1657 33.6077 28.2432 33.7354C28.3206 33.863 28.4209 33.9473 28.5439 33.9883C28.667 34.0293 28.7992 34.0498 28.9404 34.0498C29.0452 34.0498 29.1546 34.0407 29.2686 34.0225C29.387 33.9997 29.4759 33.9814 29.5352 33.9678L29.542 35C29.4417 35.0319 29.3096 35.0615 29.1455 35.0889C28.986 35.1208 28.7923 35.1367 28.5645 35.1367C28.2546 35.1367 27.9697 35.0752 27.71 34.9521C27.4502 34.8291 27.2428 34.624 27.0879 34.3369C26.9375 34.0452 26.8623 33.6533 26.8623 33.1611V25.8057ZM34.0879 27.6035V28.5742H30.0889V27.6035H34.0879ZM31.4424 25.8057H32.707V33.168C32.707 33.4186 32.7458 33.6077 32.8232 33.7354C32.9007 33.863 33.001 33.9473 33.124 33.9883C33.2471 34.0293 33.3792 34.0498 33.5205 34.0498C33.6253 34.0498 33.7347 34.0407 33.8486 34.0225C33.9671 33.9997 34.056 33.9814 34.1152 33.9678L34.1221 35C34.0218 35.0319 33.8896 35.0615 33.7256 35.0889C33.5661 35.1208 33.3724 35.1367 33.1445 35.1367C32.8346 35.1367 32.5498 35.0752 32.29 34.9521C32.0303 34.8291 31.8229 34.624 31.668 34.3369C31.5176 34.0452 31.4424 33.6533 31.4424 33.1611V25.8057ZM35.0996 31.3838V31.2266C35.0996 30.6934 35.1771 30.1989 35.332 29.7432C35.487 29.2829 35.7103 28.8841 36.002 28.5469C36.2936 28.2051 36.6468 27.9408 37.0615 27.7539C37.4762 27.5625 37.9411 27.4668 38.4561 27.4668C38.9756 27.4668 39.4427 27.5625 39.8574 27.7539C40.2767 27.9408 40.6322 28.2051 40.9238 28.5469C41.2201 28.8841 41.4456 29.2829 41.6006 29.7432C41.7555 30.1989 41.833 30.6934 41.833 31.2266V31.3838C41.833 31.917 41.7555 32.4115 41.6006 32.8672C41.4456 33.3229 41.2201 33.7217 40.9238 34.0635C40.6322 34.4007 40.279 34.665 39.8643 34.8564C39.4541 35.0433 38.9893 35.1367 38.4697 35.1367C37.9502 35.1367 37.4831 35.0433 37.0684 34.8564C36.6536 34.665 36.2982 34.4007 36.002 34.0635C35.7103 33.7217 35.487 33.3229 35.332 32.8672C35.1771 32.4115 35.0996 31.917 35.0996 31.3838ZM36.3643 31.2266V31.3838C36.3643 31.7529 36.4076 32.1016 36.4941 32.4297C36.5807 32.7533 36.7106 33.0404 36.8838 33.291C37.0615 33.5417 37.2826 33.7399 37.5469 33.8857C37.8112 34.027 38.1188 34.0977 38.4697 34.0977C38.8161 34.0977 39.1191 34.027 39.3789 33.8857C39.6432 33.7399 39.862 33.5417 40.0352 33.291C40.2083 33.0404 40.3382 32.7533 40.4248 32.4297C40.516 32.1016 40.5615 31.7529 40.5615 31.3838V31.2266C40.5615 30.862 40.516 30.5179 40.4248 30.1943C40.3382 29.8662 40.2061 29.5768 40.0283 29.3262C39.8551 29.071 39.6364 28.8704 39.3721 28.7246C39.1123 28.5788 38.807 28.5059 38.4561 28.5059C38.1097 28.5059 37.8044 28.5788 37.54 28.7246C37.2803 28.8704 37.0615 29.071 36.8838 29.3262C36.7106 29.5768 36.5807 29.8662 36.4941 30.1943C36.4076 30.5179 36.3643 30.862 36.3643 31.2266ZM44.6836 29.1826V35H43.4189V27.6035H44.6152L44.6836 29.1826ZM44.3828 31.0215L43.8564 31.001C43.861 30.4951 43.9362 30.028 44.082 29.5996C44.2279 29.1667 44.4329 28.7907 44.6973 28.4717C44.9616 28.1527 45.276 27.9066 45.6406 27.7334C46.0098 27.5557 46.4176 27.4668 46.8643 27.4668C47.2288 27.4668 47.557 27.5169 47.8486 27.6172C48.1403 27.7129 48.3887 27.8678 48.5938 28.082C48.8034 28.2962 48.9629 28.5742 49.0723 28.916C49.1816 29.2533 49.2363 29.6657 49.2363 30.1533V35H47.9648V30.1396C47.9648 29.7523 47.9079 29.4424 47.7939 29.21C47.68 28.973 47.5137 28.8021 47.2949 28.6973C47.0762 28.5879 46.8073 28.5332 46.4883 28.5332C46.1738 28.5332 45.8867 28.5993 45.627 28.7314C45.3717 28.8636 45.1507 29.0459 44.9639 29.2783C44.7816 29.5107 44.638 29.7773 44.5332 30.0781C44.4329 30.3743 44.3828 30.6888 44.3828 31.0215Z" fill="black"/>
<rect x="0.5" y="0.5" width="59" height="59" rx="3.5" stroke="#B3B3B3"/>
</svg>
