<svg width="60" height="60" viewBox="0 0 60 60" fill="none" xmlns="http://www.w3.org/2000/svg">
<rect x="6.5" y="52.5" width="47" height="47" rx="1.5" transform="rotate(-90 6.5 52.5)" stroke="#333333"/>
<path d="M47.3536 8.64645C47.1583 8.45118 46.8417 8.45118 46.6464 8.64645L43.4645 11.8284C43.2692 12.0237 43.2692 12.3403 43.4645 12.5355C43.6597 12.7308 43.9763 12.7308 44.1716 12.5355L47 9.70711L49.8284 12.5355C50.0237 12.7308 50.3403 12.7308 50.5355 12.5355C50.7308 12.3403 50.7308 12.0237 50.5355 11.8284L47.3536 8.64645ZM46.6464 48.3536C46.8417 48.5488 47.1583 48.5488 47.3536 48.3536L50.5355 45.1716C50.7308 44.9763 50.7308 44.6597 50.5355 44.4645C50.3403 44.2692 50.0237 44.2692 49.8284 44.4645L47 47.2929L44.1716 44.4645C43.9763 44.2692 43.6597 44.2692 43.4645 44.4645C43.2692 44.6597 43.2692 44.9763 43.4645 45.1716L46.6464 48.3536ZM46.5 9V48H47.5V9H46.5Z" fill="black"/>
<rect x="0.5" y="0.5" width="59" height="59" rx="3.5" stroke="#B3B3B3"/>
</svg>
