<svg width="14" height="14" viewBox="0 0 14 14" fill="none" xmlns="http://www.w3.org/2000/svg">
<path d="M4.52513 5.23223C4.32986 5.03697 4.32986 4.72039 4.52512 4.52513C4.72039 4.32986 5.03697 4.32986 5.23223 4.52513L7 6.29289L8.76777 4.52513C8.96303 4.32986 9.27961 4.32986 9.47487 4.52513C9.67013 4.72039 9.67013 5.03697 9.47487 5.23223L7.70711 7L9.47487 8.76777C9.67013 8.96303 9.67013 9.27961 9.47487 9.47487C9.27961 9.67014 8.96303 9.67014 8.76777 9.47487L7 7.70711L5.23223 9.47487C5.03697 9.67014 4.72039 9.67014 4.52512 9.47487C4.32986 9.27961 4.32986 8.96303 4.52512 8.76777L6.29289 7L4.52513 5.23223Z" fill="#333333"/>
<path fill-rule="evenodd" clip-rule="evenodd" d="M13.5 7C13.5 10.5899 10.5899 13.5 7 13.5C3.41015 13.5 0.5 10.5899 0.5 7C0.5 3.41015 3.41015 0.5 7 0.5C10.5899 0.5 13.5 3.41015 13.5 7ZM12.5 7C12.5 10.0376 10.0376 12.5 7 12.5C3.96243 12.5 1.5 10.0376 1.5 7C1.5 3.96243 3.96243 1.5 7 1.5C10.0376 1.5 12.5 3.96243 12.5 7Z" fill="#333333"/>
</svg>
