<svg width="32" height="32" viewBox="0 0 32 32" fill="none" xmlns="http://www.w3.org/2000/svg">
<path d="M11.2049 12.575C10.8266 12.1966 10.8266 11.5833 11.2049 11.2049C11.5833 10.8266 12.1966 10.8266 12.5749 11.2049L16 14.63L19.425 11.2049C19.8034 10.8266 20.4167 10.8266 20.7951 11.2049C21.1734 11.5833 21.1734 12.1966 20.7951 12.575L17.37 16L20.7951 19.425C21.1734 19.8034 21.1734 20.4167 20.7951 20.7951C20.4167 21.1734 19.8034 21.1734 19.425 20.7951L16 17.37L12.5749 20.7951C12.1966 21.1734 11.5833 21.1734 11.2049 20.7951C10.8266 20.4167 10.8266 19.8034 11.2049 19.425L14.63 16L11.2049 12.575Z" fill="#333333"/>
<path fill-rule="evenodd" clip-rule="evenodd" d="M28.5938 16C28.5938 22.9553 22.9553 28.5938 16 28.5938C9.04466 28.5938 3.40625 22.9553 3.40625 16C3.40625 9.04466 9.04466 3.40625 16 3.40625C22.9553 3.40625 28.5938 9.04466 28.5938 16ZM26.6562 16C26.6562 21.8853 21.8853 26.6562 16 26.6562C10.1147 26.6562 5.34375 21.8853 5.34375 16C5.34375 10.1147 10.1147 5.34375 16 5.34375C21.8853 5.34375 26.6562 10.1147 26.6562 16Z" fill="#333333"/>
</svg>
