<svg width="12" height="12" viewBox="0 0 12 12" fill="none" xmlns="http://www.w3.org/2000/svg">
<path d="M4.14384 4.67417C3.9974 4.52773 3.9974 4.29029 4.14384 4.14384C4.29029 3.9974 4.52773 3.9974 4.67417 4.14384L6 5.46967L7.32582 4.14384C7.47227 3.9974 7.70971 3.9974 7.85615 4.14384C8.0026 4.29029 8.0026 4.52773 7.85615 4.67417L6.53033 6L7.85615 7.32583C8.0026 7.47227 8.0026 7.70971 7.85615 7.85616C7.70971 8.0026 7.47227 8.0026 7.32582 7.85616L6 6.53033L4.67417 7.85616C4.52773 8.0026 4.29029 8.0026 4.14384 7.85616C3.9974 7.70971 3.9974 7.47227 4.14384 7.32583L5.46967 6L4.14384 4.67417Z" fill="#333333"/>
<path fill-rule="evenodd" clip-rule="evenodd" d="M10.875 6C10.875 8.69239 8.69239 10.875 6 10.875C3.30761 10.875 1.125 8.69239 1.125 6C1.125 3.30761 3.30761 1.125 6 1.125C8.69239 1.125 10.875 3.30761 10.875 6ZM10.125 6C10.125 8.27817 8.27817 10.125 6 10.125C3.72183 10.125 1.875 8.27817 1.875 6C1.875 3.72183 3.72183 1.875 6 1.875C8.27817 1.875 10.125 3.72183 10.125 6Z" fill="#333333"/>
</svg>
