<svg width="24" height="24" viewBox="0 0 24 24" fill="none" xmlns="http://www.w3.org/2000/svg">
<path d="M6.96967 9.96967C7.26256 9.67678 7.73744 9.67678 8.03033 9.96967L11.0303 12.9697C11.3232 13.2626 11.3232 13.7374 11.0303 14.0303L8.03033 17.0303C7.73744 17.3232 7.26256 17.3232 6.96967 17.0303C6.67678 16.7374 6.67678 16.2626 6.96967 15.9697L9.43934 13.5L6.96967 11.0303C6.67678 10.7374 6.67678 10.2626 6.96967 9.96967Z" fill="white"/>
<path d="M12.75 15.75C12.3358 15.75 12 16.0858 12 16.5C12 16.9142 12.3358 17.25 12.75 17.25H16.5C16.9142 17.25 17.25 16.9142 17.25 16.5C17.25 16.0858 16.9142 15.75 16.5 15.75H12.75Z" fill="white"/>
<path fill-rule="evenodd" clip-rule="evenodd" d="M6 3C4.34315 3 3 4.34315 3 6V18C3 19.6569 4.34315 21 6 21H18C19.6569 21 21 19.6569 21 18V6C21 4.34315 19.6569 3 18 3H6ZM18 4.5H6C5.17157 4.5 4.5 5.17157 4.5 6V18C4.5 18.8284 5.17157 19.5 6 19.5H18C18.8284 19.5 19.5 18.8284 19.5 18V6C19.5 5.17157 18.8284 4.5 18 4.5Z" fill="white"/>
</svg>
