<svg width="60" height="60" viewBox="0 0 60 60" fill="none" xmlns="http://www.w3.org/2000/svg">
<path fill-rule="evenodd" clip-rule="evenodd" d="M6 26.7271C6 25.2211 6.89547 24 7.99983 24H22.0002C23.1045 24 24 25.2211 24 26.7271V51.2729C24 52.7789 23.1045 54 22.0002 54H7.99983C6.89547 54 6 52.7789 6 51.2729V26.7271Z" fill="#333333" stroke="white" stroke-miterlimit="22.9256"/>
<path fill-rule="evenodd" clip-rule="evenodd" d="M20 17.727C20 16.221 20.9451 15 22.1108 15H36.8892C38.0549 15 39 16.221 39 17.727V42.273C39 43.779 38.0549 45 36.8892 45H22.1108C20.9451 45 20 43.779 20 42.273V17.727Z" fill="#333333" stroke="white" stroke-miterlimit="22.9256"/>
<path fill-rule="evenodd" clip-rule="evenodd" d="M36 8.72709C36 7.22112 36.8954 6 37.9997 6H52.0002C53.1045 6 54 7.22112 54 8.72709V33.2729C54 34.7789 53.1045 36 52.0002 36H37.9997C36.8954 36 36 34.7789 36 33.2729V8.72709Z" fill="#333333" stroke="white" stroke-miterlimit="22.9256"/>
<path d="M56 0.5H4C2.067 0.5 0.5 2.067 0.5 4V56C0.5 57.933 2.067 59.5 4 59.5H56C57.933 59.5 59.5 57.933 59.5 56V4C59.5 2.067 57.933 0.5 56 0.5Z" stroke="#B3B3B3"/>
</svg>
