<svg width="36" height="36" viewBox="0 0 36 36" fill="none" xmlns="http://www.w3.org/2000/svg">
<path d="M17.25 9C17.25 8.58579 17.5858 8.25 18 8.25C18.4142 8.25 18.75 8.58579 18.75 9V22.9393L22.7197 18.9697C23.0126 18.6768 23.4874 18.6768 23.7803 18.9697C24.0732 19.2626 24.0732 19.7374 23.7803 20.0303L18.5303 25.2803C18.2374 25.5732 17.7626 25.5732 17.4697 25.2803L12.2197 20.0303C11.9268 19.7374 11.9268 19.2626 12.2197 18.9697C12.5126 18.6768 12.9874 18.6768 13.2803 18.9697L17.25 22.9393V9Z" fill="#333333"/>
<path d="M12 27C12 26.5858 12.3358 26.25 12.75 26.25H23.25C23.6642 26.25 24 26.5858 24 27C24 27.4142 23.6642 27.75 23.25 27.75H12.75C12.3358 27.75 12 27.4142 12 27Z" fill="#333333"/>
</svg>
