<svg width="12" height="14" viewBox="0 0 12 14" fill="none" xmlns="http://www.w3.org/2000/svg">
<path fill-rule="evenodd" clip-rule="evenodd" d="M2.5 2.5C2.5 1.39543 3.39543 0.5 4.5 0.5H9.5C10.6046 0.5 11.5 1.39543 11.5 2.5V9.5C11.5 10.6046 10.6046 11.5 9.5 11.5H4.5C3.39543 11.5 2.5 10.6046 2.5 9.5V2.5ZM4.5 1.5H9.5C10.0523 1.5 10.5 1.94772 10.5 2.5V9.5C10.5 10.0523 10.0523 10.5 9.5 10.5H4.5C3.94772 10.5 3.5 10.0523 3.5 9.5V2.5C3.5 1.94772 3.94772 1.5 4.5 1.5Z" fill="#333333"/>
<path d="M0.5 3.5C0.5 2.94772 0.947715 2.5 1.5 2.5V9.75C1.5 10.1111 1.57113 10.4687 1.70933 10.8024C1.84753 11.136 2.0501 11.4392 2.30546 11.6945C2.56082 11.9499 2.86398 12.1525 3.19762 12.2907C3.53127 12.4289 3.88886 12.5 4.25 12.5H9C9 13.0523 8.55229 13.5 8 13.5H4.25C3.75754 13.5 3.26991 13.403 2.81494 13.2145C2.35997 13.0261 1.94657 12.7499 1.59835 12.4017C1.25013 12.0534 0.973907 11.64 0.785452 11.1851C0.596997 10.7301 0.5 10.2425 0.5 9.75V3.5Z" fill="#333333"/>
</svg>
