<svg width="36" height="36" viewBox="0 0 36 36" fill="none" xmlns="http://www.w3.org/2000/svg">
<path fill-rule="evenodd" clip-rule="evenodd" d="M12.75 11.25C12.75 9.59315 14.0931 8.25 15.75 8.25H23.25C24.9069 8.25 26.25 9.59315 26.25 11.25V21.75C26.25 23.4069 24.9069 24.75 23.25 24.75H15.75C14.0931 24.75 12.75 23.4069 12.75 21.75V11.25ZM15.75 9.75H23.25C24.0784 9.75 24.75 10.4216 24.75 11.25V21.75C24.75 22.5784 24.0784 23.25 23.25 23.25H15.75C14.9216 23.25 14.25 22.5784 14.25 21.75V11.25C14.25 10.4216 14.9216 9.75 15.75 9.75Z" fill="#333333"/>
<path d="M9.75 12.75C9.75 11.9216 10.4216 11.25 11.25 11.25V22.125C11.25 22.6667 11.3567 23.2031 11.564 23.7036C11.7713 24.204 12.0751 24.6588 12.4582 25.0418C12.8412 25.4249 13.296 25.7287 13.7964 25.936C14.2969 26.1433 14.8333 26.25 15.375 26.25H22.5C22.5 27.0784 21.8284 27.75 21 27.75H15.375C14.6363 27.75 13.9049 27.6045 13.2224 27.3218C12.5399 27.0391 11.9199 26.6248 11.3975 26.1025C10.8752 25.5801 10.4609 24.9601 10.1782 24.2776C9.89549 23.5951 9.75 22.8637 9.75 22.125V12.75Z" fill="#333333"/>
</svg>
