<svg width="30" height="30" viewBox="0 0 30 30" fill="none" xmlns="http://www.w3.org/2000/svg">
<path d="M16.8269 7.64404C16.8269 8.67958 15.9874 9.51904 14.9519 9.51904C13.9164 9.51904 13.0769 8.67958 13.0769 7.64404C13.0769 6.60851 13.9164 5.76904 14.9519 5.76904C15.9874 5.76904 16.8269 6.60851 16.8269 7.64404Z" fill="white"/>
<path d="M16.8269 15.144C16.8269 16.1796 15.9874 17.019 14.9519 17.019C13.9164 17.019 13.0769 16.1796 13.0769 15.144C13.0769 14.1085 13.9164 13.269 14.9519 13.269C15.9874 13.269 16.8269 14.1085 16.8269 15.144Z" fill="white"/>
<path d="M14.9519 24.519C15.9874 24.519 16.8269 23.6796 16.8269 22.644C16.8269 21.6085 15.9874 20.769 14.9519 20.769C13.9164 20.769 13.0769 21.6085 13.0769 22.644C13.0769 23.6796 13.9164 24.519 14.9519 24.519Z" fill="white"/>
</svg>
