<svg width="24" height="24" viewBox="0 0 24 24" fill="none" xmlns="http://www.w3.org/2000/svg">
<path fill-rule="evenodd" clip-rule="evenodd" d="M12.3107 6.75L10.409 4.84835C9.70575 4.14509 8.75192 3.75 7.75736 3.75H4.5C3.25736 3.75 2.25 4.75736 2.25 6V17.25C2.25 18.9069 3.59315 20.25 5.25 20.25H11.6367C11.3269 19.7872 11.0728 19.284 10.8841 18.75H5.25C4.42157 18.75 3.75 18.0784 3.75 17.25V10.5H8C8.81139 10.5 9.60089 10.2368 10.25 9.75L12.25 8.25H18.75C19.5784 8.25 20.25 8.92157 20.25 9.75V10.4516C20.7961 10.723 21.3002 11.0662 21.75 11.4688V9.75C21.75 8.09315 20.4069 6.75 18.75 6.75H12.3107ZM4.5 5.25C4.08579 5.25 3.75 5.58579 3.75 6V9H8C8.48683 9 8.96053 8.8421 9.35 8.55L10.8582 7.41885L9.34835 5.90901C8.92639 5.48705 8.3541 5.25 7.75736 5.25H4.5Z" fill="#404040"/>
<path fill-rule="evenodd" clip-rule="evenodd" d="M17.25 11.25C14.3505 11.25 12 13.6005 12 16.5C12 19.3995 14.3505 21.75 17.25 21.75C20.1495 21.75 22.5 19.3995 22.5 16.5C22.5 13.6005 20.1495 11.25 17.25 11.25ZM16.5 18.75V16.0607L15.5303 17.0303C15.2374 17.3232 14.7626 17.3232 14.4697 17.0303C14.1768 16.7374 14.1768 16.2626 14.4697 15.9697L16.7197 13.7197C17.0126 13.4268 17.4874 13.4268 17.7803 13.7197L20.0303 15.9697C20.3232 16.2626 20.3232 16.7374 20.0303 17.0303C19.7374 17.3232 19.2626 17.3232 18.9697 17.0303L18 16.0607V18.75C18 19.1642 17.6642 19.5 17.25 19.5C16.8358 19.5 16.5 19.1642 16.5 18.75Z" fill="#404040"/>
</svg>
