<svg width="16" height="16" viewBox="0 0 16 16" fill="none" xmlns="http://www.w3.org/2000/svg">
<path d="M2.5 2C2.22386 2 2 2.22386 2 2.5V5.5C2 5.77614 2.22386 6 2.5 6C2.77614 6 3 5.77614 3 5.5V3.70711L5.18198 5.88909C5.37724 6.08435 5.69383 6.08435 5.88909 5.88909C6.08435 5.69383 6.08435 5.37724 5.88909 5.18198L3.70711 3H5.5C5.77614 3 6 2.77614 6 2.5C6 2.22386 5.77614 2 5.5 2H2.5Z" fill="#404040"/>
<path d="M13.5355 2C13.8117 2 14.0355 2.22386 14.0355 2.5V5.5C14.0355 5.77614 13.8117 6 13.5355 6C13.2594 6 13.0355 5.77614 13.0355 5.5V3.70711L10.8536 5.88909C10.6583 6.08435 10.3417 6.08435 10.1464 5.88909C9.95118 5.69383 9.95118 5.37724 10.1464 5.18198L12.3284 3H10.5355C10.2594 3 10.0355 2.77614 10.0355 2.5C10.0355 2.22386 10.2594 2 10.5355 2H13.5355Z" fill="#404040"/>
<path d="M2 13.5355C2 13.8117 2.22386 14.0355 2.5 14.0355H5.5C5.77614 14.0355 6 13.8117 6 13.5355C6 13.2594 5.77614 13.0355 5.5 13.0355H3.70711L5.88909 10.8536C6.08435 10.6583 6.08435 10.3417 5.88909 10.1464C5.69383 9.95118 5.37724 9.95118 5.18198 10.1464L3 12.3284V10.5355C3 10.2594 2.77614 10.0355 2.5 10.0355C2.22386 10.0355 2 10.2594 2 10.5355V13.5355Z" fill="#404040"/>
<path d="M13.5355 14.0355C13.8117 14.0355 14.0355 13.8117 14.0355 13.5355V10.5355C14.0355 10.2594 13.8117 10.0355 13.5355 10.0355C13.2594 10.0355 13.0355 10.2594 13.0355 10.5355V12.3284L10.8536 10.1464C10.6583 9.95118 10.3417 9.95118 10.1464 10.1464C9.95118 10.3417 9.95118 10.6583 10.1464 10.8536L12.3284 13.0355H10.5355C10.2594 13.0355 10.0355 13.2594 10.0355 13.5355C10.0355 13.8117 10.2594 14.0355 10.5355 14.0355H13.5355Z" fill="#404040"/>
</svg>
