<svg width="24" height="24" viewBox="0 0 24 24" fill="none" xmlns="http://www.w3.org/2000/svg">
<path fill-rule="evenodd" clip-rule="evenodd" d="M3.5 3C3.22386 3 3 3.22386 3 3.5V20.5C3 20.7761 3.22386 21 3.5 21H20.5C20.7761 21 21 20.7761 21 20.5V3.5C21 3.22386 20.7761 3 20.5 3H3.5ZM1 3.5C1 2.11929 2.11929 1 3.5 1H20.5C21.8807 1 23 2.11929 23 3.5V20.5C23 21.8807 21.8807 23 20.5 23H3.5C2.11929 23 1 21.8807 1 20.5V3.5ZM5 6C5 5.44772 5.44772 5 6 5H10C10.5523 5 11 5.44772 11 6V10C11 10.5523 10.5523 11 10 11H6C5.44772 11 5 10.5523 5 10V6ZM7 7V9H9V7H7ZM13 6C13 5.44772 13.4477 5 14 5H18C18.5523 5 19 5.44772 19 6V10C19 10.5523 18.5523 11 18 11H14C13.4477 11 13 10.5523 13 10V6ZM15 7V9H17V7H15ZM5 14C5 13.4477 5.44772 13 6 13H10C10.5523 13 11 13.4477 11 14V18C11 18.5523 10.5523 19 10 19H6C5.44772 19 5 18.5523 5 18V14ZM7 15V17H9V15H7ZM13 14C13 13.4477 13.4477 13 14 13H18C18.5523 13 19 13.4477 19 14V18C19 18.5523 18.5523 19 18 19H14C13.4477 19 13 18.5523 13 18V14ZM15 15V17H17V15H15Z" fill="#323E48"/>
</svg>
