<svg width="36" height="36" viewBox="0 0 36 36" fill="none" xmlns="http://www.w3.org/2000/svg">
<path d="M23.25 11H25.75V10H23.25V11ZM25.75 10.5H23.25V11.5H25.75V10.5ZM23.25 10.5C23.3881 10.5 23.5 10.6119 23.5 10.75H22.5C22.5 11.1642 22.8358 11.5 23.25 11.5V10.5ZM25.5 10.75C25.5 10.6119 25.6119 10.5 25.75 10.5V11.5C26.1642 11.5 26.5 11.1642 26.5 10.75H25.5ZM25.75 11C25.6119 11 25.5 10.8881 25.5 10.75H26.5C26.5 10.3358 26.1642 10 25.75 10V11ZM23.25 10C22.8358 10 22.5 10.3358 22.5 10.75H23.5C23.5 10.8881 23.3881 11 23.25 11V10ZM23.25 14H25.75V13H23.25V14ZM25.75 13.5H23.25V14.5H25.75V13.5ZM23.25 13.5C23.3881 13.5 23.5 13.6119 23.5 13.75H22.5C22.5 14.1642 22.8358 14.5 23.25 14.5V13.5ZM25.5 13.75C25.5 13.6119 25.6119 13.5 25.75 13.5V14.5C26.1642 14.5 26.5 14.1642 26.5 13.75H25.5ZM25.75 14C25.6119 14 25.5 13.8881 25.5 13.75H26.5C26.5 13.3358 26.1642 13 25.75 13V14ZM23.25 13C22.8358 13 22.5 13.3358 22.5 13.75H23.5C23.5 13.8881 23.3881 14 23.25 14V13ZM23.25 17H25.75V16H23.25V17ZM25.75 16.5H23.25V17.5H25.75V16.5ZM23.25 16.5C23.3881 16.5 23.5 16.6119 23.5 16.75H22.5C22.5 17.1642 22.8358 17.5 23.25 17.5V16.5ZM25.5 16.75C25.5 16.6119 25.6119 16.5 25.75 16.5V17.5C26.1642 17.5 26.5 17.1642 26.5 16.75H25.5ZM25.75 17C25.6119 17 25.5 16.8881 25.5 16.75H26.5C26.5 16.3358 26.1642 16 25.75 16V17ZM23.25 16C22.8358 16 22.5 16.3358 22.5 16.75H23.5C23.5 16.8881 23.3881 17 23.25 17V16ZM9 8.5H27V7.5H9V8.5ZM27.5 9V27H28.5V9H27.5ZM27 27.5H9V28.5H27V27.5ZM8.5 27V9H7.5V27H8.5ZM9 27.5C8.72386 27.5 8.5 27.2761 8.5 27H7.5C7.5 27.8284 8.17157 28.5 9 28.5V27.5ZM27.5 27C27.5 27.2761 27.2761 27.5 27 27.5V28.5C27.8284 28.5 28.5 27.8284 28.5 27H27.5ZM27 8.5C27.2761 8.5 27.5 8.72386 27.5 9H28.5C28.5 8.17157 27.8284 7.5 27 7.5V8.5ZM9 7.5C8.17157 7.5 7.5 8.17157 7.5 9H8.5C8.5 8.72386 8.72386 8.5 9 8.5V7.5ZM21 8V28H22V8H21Z" fill="#333333"/>
</svg>
