<svg width="37" height="36" viewBox="0 0 37 36" fill="none" xmlns="http://www.w3.org/2000/svg">
<path d="M11.1279 11H13.6279V10H11.1279V11ZM13.6279 10.5H11.1279V11.5H13.6279V10.5ZM11.1279 10.5C11.266 10.5 11.3779 10.6119 11.3779 10.75H10.3779C10.3779 11.1642 10.7137 11.5 11.1279 11.5V10.5ZM13.3779 10.75C13.3779 10.6119 13.4899 10.5 13.6279 10.5V11.5C14.0421 11.5 14.3779 11.1642 14.3779 10.75H13.3779ZM13.6279 11C13.4899 11 13.3779 10.8881 13.3779 10.75H14.3779C14.3779 10.3358 14.0421 10 13.6279 10V11ZM11.1279 10C10.7137 10 10.3779 10.3358 10.3779 10.75H11.3779C11.3779 10.8881 11.266 11 11.1279 11V10ZM11.1279 14H13.6279V13H11.1279V14ZM13.6279 13.5H11.1279V14.5H13.6279V13.5ZM11.1279 13.5C11.266 13.5 11.3779 13.6119 11.3779 13.75H10.3779C10.3779 14.1642 10.7137 14.5 11.1279 14.5V13.5ZM13.3779 13.75C13.3779 13.6119 13.4899 13.5 13.6279 13.5V14.5C14.0421 14.5 14.3779 14.1642 14.3779 13.75H13.3779ZM13.6279 14C13.4899 14 13.3779 13.8881 13.3779 13.75H14.3779C14.3779 13.3358 14.0421 13 13.6279 13V14ZM11.1279 13C10.7137 13 10.3779 13.3358 10.3779 13.75H11.3779C11.3779 13.8881 11.266 14 11.1279 14V13ZM11.1279 17H13.6279V16H11.1279V17ZM13.6279 16.5H11.1279V17.5H13.6279V16.5ZM11.1279 16.5C11.266 16.5 11.3779 16.6119 11.3779 16.75H10.3779C10.3779 17.1642 10.7137 17.5 11.1279 17.5V16.5ZM13.3779 16.75C13.3779 16.6119 13.4899 16.5 13.6279 16.5V17.5C14.0421 17.5 14.3779 17.1642 14.3779 16.75H13.3779ZM13.6279 17C13.4899 17 13.3779 16.8881 13.3779 16.75H14.3779C14.3779 16.3358 14.0421 16 13.6279 16V17ZM11.1279 16C10.7137 16 10.3779 16.3358 10.3779 16.75H11.3779C11.3779 16.8881 11.266 17 11.1279 17V16ZM9.87793 8.5H27.8779V7.5H9.87793V8.5ZM28.3779 9V27H29.3779V9H28.3779ZM27.8779 27.5H9.87793V28.5H27.8779V27.5ZM9.37793 27V9H8.37793V27H9.37793ZM9.87793 27.5C9.60179 27.5 9.37793 27.2761 9.37793 27H8.37793C8.37793 27.8284 9.0495 28.5 9.87793 28.5V27.5ZM28.3779 27C28.3779 27.2761 28.1541 27.5 27.8779 27.5V28.5C28.7064 28.5 29.3779 27.8284 29.3779 27H28.3779ZM27.8779 8.5C28.1541 8.5 28.3779 8.72386 28.3779 9H29.3779C29.3779 8.17157 28.7064 7.5 27.8779 7.5V8.5ZM9.87793 7.5C9.0495 7.5 8.37793 8.17157 8.37793 9H9.37793C9.37793 8.72386 9.60179 8.5 9.87793 8.5V7.5ZM14.8779 8V28H15.8779V8H14.8779Z" fill="#333333"/>
</svg>
