<svg width="25" height="24" viewBox="0 0 25 24" fill="none" xmlns="http://www.w3.org/2000/svg">
<path fill-rule="evenodd" clip-rule="evenodd" d="M18.5 8.625C18.5 10.0747 17.3247 11.25 15.875 11.25C14.4253 11.25 13.25 10.0747 13.25 8.625C13.25 7.17525 14.4253 6 15.875 6C17.3247 6 18.5 7.17525 18.5 8.625ZM17 8.625C17 9.24632 16.4963 9.75 15.875 9.75C15.2537 9.75 14.75 9.24632 14.75 8.625C14.75 8.00368 15.2537 7.5 15.875 7.5C16.4963 7.5 17 8.00368 17 8.625Z" fill="#333333"/>
<path fill-rule="evenodd" clip-rule="evenodd" d="M6.5 3C4.84315 3 3.5 4.34315 3.5 6V18C3.5 19.6569 4.84315 21 6.5 21H18.5C20.1569 21 21.5 19.6569 21.5 18V6C21.5 4.34315 20.1569 3 18.5 3H6.5ZM18.5 4.5H6.5C5.67157 4.5 5 5.17157 5 6V18C5 18.1508 5.02225 18.2964 5.06365 18.4337L11.4966 12.6441C12.067 12.1307 12.933 12.1307 13.5034 12.6441L19.9363 18.4337C19.9777 18.2964 20 18.1508 20 18V6C20 5.17157 19.3284 4.5 18.5 4.5ZM6.5 19.5C6.38423 19.5 6.27153 19.4869 6.16329 19.4621L12.5 13.759L18.8367 19.4621C18.7285 19.4869 18.6158 19.5 18.5 19.5H6.5Z" fill="#333333"/>
</svg>
