<svg width="24" height="25" viewBox="0 0 24 25" fill="none" xmlns="http://www.w3.org/2000/svg">
<path d="M11.25 8.43934V2.75C11.25 2.33579 11.5858 2 12 2C12.4142 2 12.75 2.33579 12.75 2.75V8.43934L14.4697 6.71967C14.7626 6.42678 15.2374 6.42678 15.5303 6.71967C15.8232 7.01256 15.8232 7.48744 15.5303 7.78033L12.5303 10.7803C12.2374 11.0732 11.7626 11.0732 11.4697 10.7803L8.46967 7.78033C8.17678 7.48744 8.17678 7.01256 8.46967 6.71967C8.76256 6.42678 9.23744 6.42678 9.53033 6.71967L11.25 8.43934Z" fill="#424D78"/>
<path fill-rule="evenodd" clip-rule="evenodd" d="M8.25 18.5H5.25C3.59315 18.5 2.25 17.1569 2.25 15.5V6.5C2.25 4.84315 3.59315 3.5 5.25 3.5H6.75C7.16421 3.5 7.5 3.83579 7.5 4.25C7.5 4.66421 7.16421 5 6.75 5H5.25C4.42157 5 3.75 5.67157 3.75 6.5V15.5C3.75 16.3284 4.42157 17 5.25 17H18.75C19.5784 17 20.25 16.3284 20.25 15.5V6.5C20.25 5.67157 19.5784 5 18.75 5H17.25C16.8358 5 16.5 4.66421 16.5 4.25C16.5 3.83579 16.8358 3.5 17.25 3.5H18.75C20.4069 3.5 21.75 4.84315 21.75 6.5V15.5C21.75 17.1569 20.4069 18.5 18.75 18.5H15.75V20.75H17.25C17.6642 20.75 18 21.0858 18 21.5C18 21.9142 17.6642 22.25 17.25 22.25H6.75C6.33579 22.25 6 21.9142 6 21.5C6 21.0858 6.33579 20.75 6.75 20.75H8.25V18.5ZM14.25 18.5V20.75H9.75V18.5H14.25Z" fill="#424D78"/>
</svg>
