<svg width="36" height="36" viewBox="0 0 36 36" fill="none" xmlns="http://www.w3.org/2000/svg">
  <path
    d="M23.7464 8.48389H23.3765L23.3762 11.2561C23.3765 11.5294 23.5979 11.7508 23.8709 11.7508H26.5167V11.3453L25.9508 10.7614H24.3656V9.12297L23.7464 8.48389Z"
    fill="#333333" />
  <path
    d="M23.463 23.8691V17.3372C23.4632 17.2061 23.4111 17.0802 23.3183 16.9874C23.2255 16.8947 23.0997 16.8425 22.9683 16.8425H8.4947C8.36357 16.8425 8.23769 16.8947 8.14493 16.9874C8.05218 17.0802 8 17.2061 8 17.3372V23.8691C8 24.0002 8.05218 24.1261 8.14493 24.2189C8.23769 24.3116 8.36358 24.3638 8.4947 24.3638H22.9683C23.0997 24.3638 23.2255 24.3116 23.3183 24.2189C23.4111 24.1261 23.4632 24.0002 23.463 23.8691ZM22.4736 23.3744H8.9894V17.8319H22.4736V23.3744Z"
    fill="#333333" />
  <path
    d="M27.8615 10.6012L24.5211 7.15018H24.5214C24.4281 7.05356 24.2994 6.99945 24.165 7H11.348C11.0749 7 10.8533 7.2214 10.8533 7.49471V16.3477H11.8427V7.98941H23.9551L27.0102 11.1456V28.47H11.8427L11.843 24.8586H10.8535V28.9647V28.9645C10.8535 29.2378 11.0752 29.4592 11.3482 29.4592H27.5052C27.6364 29.4594 27.7625 29.4075 27.8553 29.3148C27.948 29.2217 28.0002 29.0959 27.9999 28.9645V10.946C27.9999 10.8177 27.9502 10.6943 27.8613 10.6015L27.8615 10.6012Z"
    fill="#333333" />
  <path
    d="M10.2664 22.3758C10.4395 22.439 10.6219 22.4713 10.8061 22.4716C11.2665 22.4716 12.0392 22.2935 12.0392 21.1009V19.031C12.0389 18.8671 11.9062 18.7343 11.7422 18.7343H11.343C11.179 18.7343 11.0462 18.8671 11.0462 19.031V21.0686C11.0462 21.5385 10.9319 21.5385 10.7738 21.5385V21.5382C10.6962 21.5388 10.6192 21.5252 10.5466 21.4987C10.464 21.4667 10.3715 21.4731 10.2942 21.5161C10.2169 21.5595 10.1628 21.6348 10.1468 21.7218L10.0872 22.0475C10.0618 22.1856 10.1366 22.3225 10.2664 22.3758L10.2664 22.3758Z"
    fill="#333333" />
  <path
    d="M18.7611 22.4465H19.1374C19.3013 22.4465 19.4341 22.3137 19.4344 22.1497V20.8279C19.4344 20.791 19.4344 20.7545 19.4341 20.7186C19.438 20.7247 19.4421 20.731 19.446 20.7374L20.428 22.3071V22.3074C20.4823 22.3938 20.5773 22.4465 20.6795 22.4465H21.0833C21.2473 22.4465 21.3801 22.3137 21.3804 22.1497V19.0564C21.3801 18.8925 21.2473 18.7597 21.0833 18.7597H20.7071C20.5434 18.7597 20.4103 18.8925 20.4103 19.0564V20.4169L19.448 18.8977C19.3936 18.8119 19.2989 18.7597 19.1973 18.7597H18.7611C18.5974 18.7597 18.4644 18.8925 18.4644 19.0564V22.1497C18.4644 22.3137 18.5974 22.4465 18.7611 22.4465L18.7611 22.4465Z"
    fill="#333333" />
  <path
    d="M16.5562 22.4966C17.4189 22.4966 18.2895 21.9012 18.2895 20.5706C18.2895 19.4743 17.5955 18.7085 16.6023 18.7085C15.5817 18.7085 14.8689 19.4986 14.8689 20.6301C14.8686 21.7292 15.5626 22.4966 16.5562 22.4966V22.4966ZM16.5838 19.6281C17.1296 19.6281 17.2737 20.2564 17.2737 20.5888C17.2737 21.0807 17.0589 21.5771 16.5791 21.5771C16.1051 21.5771 15.8892 21.0815 15.8892 20.6208C15.8892 20.1631 16.0711 19.6281 16.5838 19.6281V19.6281Z"
    fill="#333333" />
  <path
    d="M12.3957 22.2479C12.6859 22.4138 13.0152 22.4991 13.3498 22.495C14.3033 22.495 14.7298 21.8987 14.7298 21.3079C14.7298 20.5923 14.2064 20.2983 13.7504 20.1222C13.3252 19.9577 13.3252 19.879 13.3252 19.8026C13.3252 19.6982 13.4321 19.6358 13.6112 19.6358C13.7667 19.6353 13.9196 19.6731 14.0565 19.7462C14.1335 19.7882 14.2252 19.7943 14.3069 19.7623C14.3886 19.7305 14.4518 19.664 14.48 19.5809L14.5902 19.2551C14.6357 19.1201 14.5794 18.9719 14.4554 18.9018C14.199 18.7695 13.9135 18.7044 13.6253 18.7116C12.8736 18.7116 12.3279 19.1897 12.3279 19.8481C12.3279 20.3768 12.6691 20.7657 13.3352 21.002C13.7278 21.153 13.7278 21.2477 13.7278 21.3399C13.7278 21.531 13.5373 21.571 13.3775 21.571V21.5707C13.1798 21.5688 12.9866 21.5144 12.8171 21.4131C12.7387 21.3648 12.642 21.3557 12.5559 21.3885C12.4698 21.4211 12.4038 21.492 12.3773 21.5804L12.2765 21.9152H12.2763C12.2387 22.0403 12.287 22.1753 12.3958 22.2479L12.3957 22.2479Z"
    fill="#333333" />
</svg>