<svg width="60" height="60" viewBox="0 0 60 60" fill="none" xmlns="http://www.w3.org/2000/svg">
<path d="M20.1914 33.9268V35H15.2148V33.9268H20.1914ZM15.4746 25.0469V35H14.1553V25.0469H15.4746ZM25.8721 33.7354V29.9277C25.8721 29.6361 25.8128 29.3831 25.6943 29.1689C25.5804 28.9502 25.4072 28.7816 25.1748 28.6631C24.9424 28.5446 24.6553 28.4854 24.3135 28.4854C23.9945 28.4854 23.7142 28.54 23.4727 28.6494C23.2357 28.7588 23.0488 28.9023 22.9121 29.0801C22.7799 29.2578 22.7139 29.4492 22.7139 29.6543H21.4492C21.4492 29.39 21.5176 29.1279 21.6543 28.8682C21.791 28.6084 21.987 28.3737 22.2422 28.1641C22.502 27.9499 22.8118 27.7812 23.1719 27.6582C23.5365 27.5306 23.9421 27.4668 24.3887 27.4668C24.9264 27.4668 25.4004 27.5579 25.8105 27.7402C26.2253 27.9225 26.5488 28.1982 26.7812 28.5674C27.0182 28.932 27.1367 29.39 27.1367 29.9414V33.3867C27.1367 33.6328 27.1572 33.8949 27.1982 34.1729C27.2438 34.4508 27.3099 34.6901 27.3965 34.8906V35H26.0771C26.0133 34.8542 25.9632 34.6605 25.9268 34.4189C25.8903 34.1729 25.8721 33.945 25.8721 33.7354ZM26.0908 30.5156L26.1045 31.4043H24.8262C24.4661 31.4043 24.1449 31.4339 23.8623 31.4932C23.5798 31.5479 23.3428 31.6322 23.1514 31.7461C22.96 31.86 22.8141 32.0036 22.7139 32.1768C22.6136 32.3454 22.5635 32.5436 22.5635 32.7715C22.5635 33.0039 22.6159 33.2158 22.7207 33.4072C22.8255 33.5986 22.9827 33.7513 23.1924 33.8652C23.4066 33.9746 23.6686 34.0293 23.9785 34.0293C24.3659 34.0293 24.7077 33.9473 25.0039 33.7832C25.3001 33.6191 25.5348 33.4186 25.708 33.1816C25.8857 32.9447 25.9814 32.7145 25.9951 32.4912L26.5352 33.0996C26.5033 33.291 26.4167 33.5029 26.2754 33.7354C26.1341 33.9678 25.945 34.1911 25.708 34.4053C25.4756 34.6149 25.1976 34.7904 24.874 34.9316C24.555 35.0684 24.195 35.1367 23.7939 35.1367C23.2926 35.1367 22.8529 35.0387 22.4746 34.8428C22.1009 34.6468 21.8092 34.3848 21.5996 34.0566C21.3945 33.724 21.292 33.3525 21.292 32.9424C21.292 32.5459 21.3695 32.1973 21.5244 31.8965C21.6794 31.5911 21.9027 31.3382 22.1943 31.1377C22.486 30.9326 22.8369 30.7777 23.2471 30.6729C23.6572 30.568 24.1152 30.5156 24.6211 30.5156H26.0908ZM29.1191 24.5H30.3906V33.5645L30.2812 35H29.1191V24.5ZM35.3877 31.2402V31.3838C35.3877 31.9215 35.3239 32.4206 35.1963 32.8809C35.0687 33.3366 34.8818 33.7331 34.6357 34.0703C34.3896 34.4076 34.0889 34.6696 33.7334 34.8564C33.3779 35.0433 32.9701 35.1367 32.5098 35.1367C32.0404 35.1367 31.6279 35.057 31.2725 34.8975C30.9215 34.7334 30.6253 34.4987 30.3838 34.1934C30.1423 33.888 29.9486 33.5189 29.8027 33.0859C29.6615 32.653 29.5635 32.1654 29.5088 31.623V30.9941C29.5635 30.4473 29.6615 29.9574 29.8027 29.5244C29.9486 29.0915 30.1423 28.7223 30.3838 28.417C30.6253 28.1071 30.9215 27.8724 31.2725 27.7129C31.6234 27.5488 32.0312 27.4668 32.4961 27.4668C32.9609 27.4668 33.3734 27.5579 33.7334 27.7402C34.0934 27.918 34.3942 28.1732 34.6357 28.5059C34.8818 28.8385 35.0687 29.2373 35.1963 29.7021C35.3239 30.1624 35.3877 30.6751 35.3877 31.2402ZM34.1162 31.3838V31.2402C34.1162 30.8711 34.082 30.5247 34.0137 30.2012C33.9453 29.873 33.8359 29.5859 33.6855 29.3398C33.5352 29.0892 33.3369 28.8932 33.0908 28.752C32.8447 28.6061 32.5417 28.5332 32.1816 28.5332C31.8626 28.5332 31.5846 28.5879 31.3477 28.6973C31.1152 28.8066 30.917 28.9548 30.7529 29.1416C30.5889 29.3239 30.4544 29.5335 30.3496 29.7705C30.2493 30.0029 30.1742 30.2445 30.124 30.4951V32.1426C30.1969 32.4616 30.3154 32.7692 30.4795 33.0654C30.6481 33.3571 30.8714 33.5964 31.1494 33.7832C31.432 33.9701 31.7806 34.0635 32.1953 34.0635C32.5371 34.0635 32.8288 33.9951 33.0703 33.8584C33.3164 33.7171 33.5146 33.5234 33.665 33.2773C33.82 33.0312 33.9339 32.7464 34.0068 32.4229C34.0798 32.0993 34.1162 31.7529 34.1162 31.3838ZM40.0566 35.1367C39.5417 35.1367 39.0745 35.0501 38.6553 34.877C38.2406 34.6992 37.8828 34.4508 37.582 34.1318C37.2858 33.8128 37.0579 33.4346 36.8984 32.9971C36.7389 32.5596 36.6592 32.0811 36.6592 31.5615V31.2744C36.6592 30.6729 36.748 30.1374 36.9258 29.668C37.1035 29.194 37.3451 28.793 37.6504 28.4648C37.9557 28.1367 38.3021 27.8883 38.6895 27.7197C39.0768 27.5511 39.4779 27.4668 39.8926 27.4668C40.4212 27.4668 40.877 27.5579 41.2598 27.7402C41.6471 27.9225 41.9639 28.1777 42.21 28.5059C42.4561 28.8294 42.6383 29.2122 42.7568 29.6543C42.8753 30.0918 42.9346 30.5703 42.9346 31.0898V31.6572H37.4111V30.625H41.6699V30.5293C41.6517 30.2012 41.5833 29.8822 41.4648 29.5723C41.3509 29.2624 41.1686 29.0072 40.918 28.8066C40.6673 28.6061 40.3255 28.5059 39.8926 28.5059C39.6055 28.5059 39.3411 28.5674 39.0996 28.6904C38.8581 28.8089 38.6507 28.9867 38.4775 29.2236C38.3044 29.4606 38.1699 29.75 38.0742 30.0918C37.9785 30.4336 37.9307 30.8278 37.9307 31.2744V31.5615C37.9307 31.9124 37.9785 32.2428 38.0742 32.5527C38.1745 32.8581 38.318 33.127 38.5049 33.3594C38.6963 33.5918 38.9264 33.7741 39.1953 33.9062C39.4688 34.0384 39.7786 34.1045 40.125 34.1045C40.5716 34.1045 40.9499 34.0133 41.2598 33.8311C41.5697 33.6488 41.8408 33.4049 42.0732 33.0996L42.8389 33.708C42.6794 33.9495 42.4766 34.1797 42.2305 34.3984C41.9844 34.6172 41.6813 34.7949 41.3213 34.9316C40.9658 35.0684 40.5443 35.1367 40.0566 35.1367ZM45.7852 24.5V35H44.5137V24.5H45.7852Z" fill="black"/>
<rect x="0.5" y="0.5" width="59" height="59" rx="3.5" stroke="#B3B3B3"/>
</svg>
