<svg width="36" height="34" viewBox="0 0 36 34" fill="none" xmlns="http://www.w3.org/2000/svg">
<path fill-rule="evenodd" clip-rule="evenodd" d="M22.4469 27.6505C22.4469 26.9376 23.0232 26.3597 23.7341 26.3597C24.4449 26.3597 25.0212 26.9376 25.0212 27.6505C25.0212 28.3635 24.4449 28.9414 23.7341 28.9414C23.0232 28.9414 22.4469 28.3635 22.4469 27.6505ZM7 25.7142C7 25.0012 7.57629 24.4233 8.28724 24.4233C8.99808 24.4233 9.57437 25.0012 9.57437 25.7142C9.57437 26.4271 8.99808 27.005 8.28724 27.005C7.57629 27.005 7 26.4271 7 25.7142ZM27.4511 7.64511V7.63451H27.3877V7.62391H27.3242V7.61331H27.282V7.60271H27.2397V7.59211H27.1974V7.58151H27.1763V7.57091H27.1446V7.5603H27.1128V7.54971H27.0917V7.5391H27.06V7.5285H27.0389V7.5179H27.0177V7.5073H26.9966V7.4967H26.9754V7.4861H26.9543V7.4755H26.9437V7.4649H26.9226V7.4543H26.912V7.4437H26.8909V7.4331H26.8697V7.4225H26.8592V7.4119H26.8486V7.4013H26.8274V7.3907H26.8169V7.3801H26.8063V7.3695H26.7852V7.3589H26.7746V7.3483H26.764V7.33769H26.7535V7.3271H26.7429V7.31649H26.7217V7.30589H26.7112V7.29529H26.7006V7.28469H26.69V7.27409H26.6795V7.26349H26.6689V7.25289H26.6583V7.24229H26.6478V7.23169H26.6372V7.22109H26.6266V7.19989H26.616V7.18929H26.6055V7.17869H26.5949V7.16809H26.5843V7.15749H26.5738V7.13629H26.5632V7.12568H26.5526V7.11508H26.5421V7.09388H26.5315V7.08328H26.5209V7.06208H26.5103V7.05148H26.4998V7.03028H26.4892V7.00908H26.4786V6.99848H26.4681V6.97728H26.4575V6.95608H26.4469V6.93488H26.4364V6.91368H26.4258V6.89248H26.4152V6.87127H26.4046V6.85007H26.3941V6.81827H26.3835V6.78647H26.3729V6.75467H26.3624V6.72287H26.3518V6.68046H26.3412V6.63806H26.3307V6.59566H26.3201V6.52146H26.3095V6.40485H26.2989V6.28825H26.3095V6.18224H26.3201V6.10804H26.3307V6.05503H26.3412V6.01263H26.3518V5.98083H26.3624V5.93843H26.3729V5.91723H26.3835V5.88543H26.3941V5.85363H26.4046V5.83242H26.4152V5.81122H26.4258V5.79002H26.4364V5.76882H26.4469V5.74762H26.4575V5.72642H26.4681V5.70522H26.4786V5.68402H26.4892V5.67342H26.4998V5.65222H26.5103V5.63102H26.5209V5.62041H26.5315V5.60982H26.5421V5.58861H26.5526V5.57801H26.5632V5.56741H26.5738V5.54621H26.5843V5.53561H26.5949V5.52501H26.6055V5.50381H26.616V5.49321H26.6266V5.48261H26.6372V5.47201H26.6478V5.46141H26.6583V5.45081H26.6689V5.44021H26.6795V5.42961H26.69V5.41901H26.7006V5.40841H26.7112V5.3978H26.7217V5.38721H26.7323V5.3766H26.7429V5.366H26.764V5.3554H26.7746V5.3448H26.7852V5.3342H26.7957V5.3236H26.8169V5.313H26.8274V5.3024H26.838V5.2918H26.8592V5.2812H26.8697V5.2706H26.8909V5.26H26.9014V5.2494H26.9226V5.2388H26.9437V5.2282H26.9543V5.2176H26.9754V5.207H26.9966V5.1964H27.0177V5.18579H27.0389V5.17519H27.06V5.16459H27.0811V5.15399H27.1128V5.14339H27.134V5.13279H27.1657V5.12219H27.1974V5.11159H27.2291V5.10099H27.2714V5.09039H27.3137V5.07979H27.3771V5.06919H27.4405V5.05859H27.7471V5.06919H27.821V5.07979H27.8739V5.09039H27.9162V5.10099H27.9585V5.11159H27.9902V5.12219H28.0219V5.13279H28.0536V5.14339H28.0853V5.15399H28.1064V5.16459H28.1276V5.17519H28.1487V5.18579H28.1699V5.1964H28.191V5.207H28.2121V5.2176H28.2333V5.2282H28.2544V5.2388H28.265V5.2494H28.2861V5.26H28.3073V5.2706H28.3178V5.2812H28.339V5.2918H28.3496V5.3024H28.3601V5.313H28.3813V5.3236H28.3918V5.3342H28.4024V5.3448H28.4235V5.3554H28.4341V5.366H28.4447V5.3766H28.4553V5.38721H28.4658V5.3978H28.4764V5.40841H28.487V5.41901H28.4975V5.42961H28.5081V5.44021H28.5187V5.45081H28.5292V5.46141H28.5398V5.47201H28.5504V5.48261H28.561V5.49321H28.5715V5.50381H28.5821V5.51441H28.5927V5.52501H28.6032V5.54621H28.6138V5.55681H28.6244V5.56741H28.6349V5.58861H28.6455V5.59921H28.6561V5.60982H28.6667V5.63102H28.6772V5.65222H28.6878V5.66282H28.6984V5.68402H28.7089V5.70522H28.7195V5.71582H28.7301V5.73702H28.7407V5.75822H28.7512V5.77942H28.7618V5.80062H28.7724V5.82183H28.7829V5.84303H28.7935V5.87483H28.8041V5.90663H28.8146V5.93843H28.8252V5.95963H28.8358V6.00203H28.8464V6.04444H28.8569V6.08684H28.8675V6.16104H28.8781V6.54266H28.8675V6.61686H28.8569V6.65926H28.8464V6.70167H28.8358V6.73347H28.8252V6.76527H28.8146V6.79707H28.8041V6.82887H28.7935V6.85007H28.7829V6.88187H28.7724V6.90307H28.7618V6.92428H28.7512V6.94548H28.7407V6.96668H28.7301V6.98788H28.7195V6.99848H28.7089V7.01968H28.6984V7.04088H28.6878V7.05148H28.6772V7.07268H28.6667V7.08328H28.6561V7.10448H28.6455V7.11508H28.6349V7.12568H28.6244V7.14689H28.6138V7.15749H28.6032V7.16809H28.5927V7.18929H28.5821V7.19989H28.5715V7.21049H28.561V7.22109H28.5504V7.23169H28.5398V7.24229H28.5292V7.25289H28.5187V7.26349H28.5081V7.27409H28.4975V7.28469H28.487V7.29529H28.4764V7.30589H28.4658V7.31649H28.4553V7.3271H28.4447V7.33769H28.4341V7.3483H28.413V7.3589H28.4024V7.3695H28.3918V7.3801H28.3707V7.3907H28.3601V7.4013H28.3496V7.4119H28.3284V7.4225H28.3178V7.4331H28.2967V7.4437H28.2861V7.4543H28.265V7.4649H28.2439V7.4755H28.2333V7.4861H28.2121V7.4967H28.191V7.5073H28.1699V7.5179H28.1487V7.5285H28.1276V7.5391H28.1064V7.54971H28.0747V7.5603H28.043V7.57091H28.0219V7.58151H27.9902V7.59211H27.9479V7.60271H27.9056V7.61331H27.8739V7.62391H27.8105V7.63451H27.7365V7.64511H27.4511ZM9.57437 12.1599C9.57437 12.8729 8.99808 13.4508 8.28724 13.4508C7.57629 13.4508 7 12.8729 7 12.1599C7 11.4469 7.57629 10.869 8.28724 10.869C8.99808 10.869 9.57437 11.4469 9.57437 12.1599ZM11.5052 20.2278C10.2611 20.2278 9.25259 21.2391 9.25259 22.4867C9.25259 23.7344 10.2611 24.7459 11.5052 24.7459C12.7492 24.7459 13.7578 23.7344 13.7578 22.4867C13.7578 21.2391 12.7492 20.2278 11.5052 20.2278ZM21.1256 23.7778H21.1263C21.8384 23.7778 22.4406 24.3435 22.4467 25.0574C22.4527 25.7793 21.868 26.3656 21.1483 26.3596C20.4364 26.3535 19.8723 25.7495 19.8723 25.0354V25.0347C19.8723 24.8752 19.7434 24.746 19.5845 24.746H18.6303C17.3991 24.746 16.3611 23.774 16.3331 22.5396C16.3037 21.2501 17.3519 20.199 18.6377 20.2285C19.8686 20.2565 20.8377 21.2975 20.8377 22.5322V23.4891C20.8377 23.6485 20.9666 23.7778 21.1256 23.7778ZM25.01 7.64181C24.2979 7.64775 23.7339 8.25176 23.7339 8.96581V8.96666C23.7339 9.12609 23.605 9.25542 23.446 9.25542H22.4919C21.2606 9.25542 20.2228 10.2273 20.1947 11.4617C20.1654 12.751 21.2136 13.8023 22.4993 13.7729C23.7302 13.7447 24.6992 12.7039 24.6992 11.469V10.5122C24.6992 10.3528 24.8282 10.2236 24.9872 10.2236H24.988C25.7 10.2236 26.3022 9.65781 26.3082 8.94376C26.3144 8.22197 25.7296 7.63566 25.01 7.64181ZM17.2976 18.8917V18.9371C17.2976 20.2058 16.2547 21.2302 14.9817 21.1953C13.7547 21.1615 12.7924 20.121 12.7924 18.8901C12.7924 18.2031 12.237 17.6461 11.552 17.6461H11.5505C10.3192 17.6461 9.2812 16.6743 9.25319 15.4398C9.22391 14.1504 10.272 13.0993 11.5578 13.1286C12.7888 13.1567 13.7578 14.1977 13.7578 15.4324V15.4341C13.7578 16.1211 14.313 16.678 14.9981 16.678H15.045H15.0903C15.7762 16.678 16.3322 16.1203 16.3322 15.4324C16.3322 14.1977 17.3013 13.1567 18.5321 13.1286C19.818 13.0993 20.8661 14.1504 20.8367 15.4398C20.8088 16.6743 19.7707 17.6461 18.5396 17.6461C17.8537 17.6461 17.2976 18.2038 17.2976 18.8917Z" fill="#333333"/>
</svg>
