<svg width="60" height="60" viewBox="0 0 60 60" fill="none" xmlns="http://www.w3.org/2000/svg">
<rect x="6.5" y="39.5" width="19" height="47" rx="1.5" transform="rotate(-90 6.5 39.5)" stroke="#333333"/>
<path d="M10.9844 34.3301C10.9844 34.1159 11.0505 33.9359 11.1826 33.79C11.3193 33.6396 11.5153 33.5645 11.7705 33.5645C12.0257 33.5645 12.2194 33.6396 12.3516 33.79C12.4883 33.9359 12.5566 34.1159 12.5566 34.3301C12.5566 34.5397 12.4883 34.7174 12.3516 34.8633C12.2194 35.0091 12.0257 35.082 11.7705 35.082C11.5153 35.082 11.3193 35.0091 11.1826 34.8633C11.0505 34.7174 10.9844 34.5397 10.9844 34.3301ZM14.6758 34.3301C14.6758 34.1159 14.7419 33.9359 14.874 33.79C15.0107 33.6396 15.2067 33.5645 15.4619 33.5645C15.7171 33.5645 15.9108 33.6396 16.043 33.79C16.1797 33.9359 16.248 34.1159 16.248 34.3301C16.248 34.5397 16.1797 34.7174 16.043 34.8633C15.9108 35.0091 15.7171 35.082 15.4619 35.082C15.2067 35.082 15.0107 35.0091 14.874 34.8633C14.7419 34.7174 14.6758 34.5397 14.6758 34.3301ZM18.3672 34.3301C18.3672 34.1159 18.4333 33.9359 18.5654 33.79C18.7021 33.6396 18.8981 33.5645 19.1533 33.5645C19.4085 33.5645 19.6022 33.6396 19.7344 33.79C19.8711 33.9359 19.9395 34.1159 19.9395 34.3301C19.9395 34.5397 19.8711 34.7174 19.7344 34.8633C19.6022 35.0091 19.4085 35.082 19.1533 35.082C18.8981 35.082 18.7021 35.0091 18.5654 34.8633C18.4333 34.7174 18.3672 34.5397 18.3672 34.3301ZM22.0586 34.3301C22.0586 34.1159 22.1247 33.9359 22.2568 33.79C22.3936 33.6396 22.5895 33.5645 22.8447 33.5645C23.0999 33.5645 23.2936 33.6396 23.4258 33.79C23.5625 33.9359 23.6309 34.1159 23.6309 34.3301C23.6309 34.5397 23.5625 34.7174 23.4258 34.8633C23.2936 35.0091 23.0999 35.082 22.8447 35.082C22.5895 35.082 22.3936 35.0091 22.2568 34.8633C22.1247 34.7174 22.0586 34.5397 22.0586 34.3301ZM25.75 34.3301C25.75 34.1159 25.8161 33.9359 25.9482 33.79C26.085 33.6396 26.2809 33.5645 26.5361 33.5645C26.7913 33.5645 26.985 33.6396 27.1172 33.79C27.2539 33.9359 27.3223 34.1159 27.3223 34.3301C27.3223 34.5397 27.2539 34.7174 27.1172 34.8633C26.985 35.0091 26.7913 35.082 26.5361 35.082C26.2809 35.082 26.085 35.0091 25.9482 34.8633C25.8161 34.7174 25.75 34.5397 25.75 34.3301ZM29.4414 34.3301C29.4414 34.1159 29.5075 33.9359 29.6396 33.79C29.7764 33.6396 29.9723 33.5645 30.2275 33.5645C30.4827 33.5645 30.6764 33.6396 30.8086 33.79C30.9453 33.9359 31.0137 34.1159 31.0137 34.3301C31.0137 34.5397 30.9453 34.7174 30.8086 34.8633C30.6764 35.0091 30.4827 35.082 30.2275 35.082C29.9723 35.082 29.7764 35.0091 29.6396 34.8633C29.5075 34.7174 29.4414 34.5397 29.4414 34.3301ZM33.1328 34.3301C33.1328 34.1159 33.1989 33.9359 33.3311 33.79C33.4678 33.6396 33.6637 33.5645 33.9189 33.5645C34.1742 33.5645 34.3678 33.6396 34.5 33.79C34.6367 33.9359 34.7051 34.1159 34.7051 34.3301C34.7051 34.5397 34.6367 34.7174 34.5 34.8633C34.3678 35.0091 34.1742 35.082 33.9189 35.082C33.6637 35.082 33.4678 35.0091 33.3311 34.8633C33.1989 34.7174 33.1328 34.5397 33.1328 34.3301ZM36.8242 34.3301C36.8242 34.1159 36.8903 33.9359 37.0225 33.79C37.1592 33.6396 37.3551 33.5645 37.6104 33.5645C37.8656 33.5645 38.0592 33.6396 38.1914 33.79C38.3281 33.9359 38.3965 34.1159 38.3965 34.3301C38.3965 34.5397 38.3281 34.7174 38.1914 34.8633C38.0592 35.0091 37.8656 35.082 37.6104 35.082C37.3551 35.082 37.1592 35.0091 37.0225 34.8633C36.8903 34.7174 36.8242 34.5397 36.8242 34.3301ZM40.5156 34.3301C40.5156 34.1159 40.5817 33.9359 40.7139 33.79C40.8506 33.6396 41.0465 33.5645 41.3018 33.5645C41.557 33.5645 41.7507 33.6396 41.8828 33.79C42.0195 33.9359 42.0879 34.1159 42.0879 34.3301C42.0879 34.5397 42.0195 34.7174 41.8828 34.8633C41.7507 35.0091 41.557 35.082 41.3018 35.082C41.0465 35.082 40.8506 35.0091 40.7139 34.8633C40.5817 34.7174 40.5156 34.5397 40.5156 34.3301ZM44.207 34.3301C44.207 34.1159 44.2731 33.9359 44.4053 33.79C44.542 33.6396 44.738 33.5645 44.9932 33.5645C45.2484 33.5645 45.4421 33.6396 45.5742 33.79C45.7109 33.9359 45.7793 34.1159 45.7793 34.3301C45.7793 34.5397 45.7109 34.7174 45.5742 34.8633C45.4421 35.0091 45.2484 35.082 44.9932 35.082C44.738 35.082 44.542 35.0091 44.4053 34.8633C44.2731 34.7174 44.207 34.5397 44.207 34.3301ZM47.8984 34.3301C47.8984 34.1159 47.9645 33.9359 48.0967 33.79C48.2334 33.6396 48.4294 33.5645 48.6846 33.5645C48.9398 33.5645 49.1335 33.6396 49.2656 33.79C49.4023 33.9359 49.4707 34.1159 49.4707 34.3301C49.4707 34.5397 49.4023 34.7174 49.2656 34.8633C49.1335 35.0091 48.9398 35.082 48.6846 35.082C48.4294 35.082 48.2334 35.0091 48.0967 34.8633C47.9645 34.7174 47.8984 34.5397 47.8984 34.3301Z" fill="black"/>
<rect x="0.5" y="0.5" width="59" height="59" rx="3.5" stroke="#B3B3B3"/>
</svg>
