<svg width="36" height="36" viewBox="0 0 36 36" fill="none" xmlns="http://www.w3.org/2000/svg">
<path fill-rule="evenodd" clip-rule="evenodd" d="M20.3734 9.58915C21.0766 8.88589 22.0305 8.4908 23.025 8.4908C24.0196 8.4908 24.9734 8.88589 25.6767 9.58915C26.3799 10.2924 26.775 11.2462 26.775 12.2408C26.775 13.2354 26.3799 14.1892 25.6767 14.8925L14.5397 26.0294C14.3991 26.17 14.2083 26.2491 14.0094 26.2491L9.76678 26.2491C9.35256 26.2491 9.01678 25.9133 9.01678 25.4991L9.01677 21.2564C9.01677 21.0575 9.09579 20.8667 9.23644 20.7261L20.3734 9.58915ZM23.025 9.9908C23.6218 9.9908 24.1941 10.2279 24.616 10.6498C25.038 11.0718 25.275 11.6441 25.275 12.2408C25.275 12.5796 25.1986 12.9105 25.0554 13.2105L22.0554 10.2105C22.3553 10.0672 22.6862 9.9908 23.025 9.9908ZM10.5168 24.7491L10.5168 21.5671L20.9037 11.1801L24.0857 14.3621L13.6988 24.7491L10.5168 24.7491Z" fill="#333333"/>
</svg>
