<svg width="36" height="36" viewBox="0 0 36 36" fill="none" xmlns="http://www.w3.org/2000/svg">
<path d="M17.25 13.5C17.25 13.0858 17.5858 12.75 18 12.75C18.4142 12.75 18.75 13.0858 18.75 13.5V17.25H22.5C22.9142 17.25 23.25 17.5858 23.25 18C23.25 18.4142 22.9142 18.75 22.5 18.75H18.75V22.5C18.75 22.9142 18.4142 23.25 18 23.25C17.5858 23.25 17.25 22.9142 17.25 22.5V18.75H13.5C13.0858 18.75 12.75 18.4142 12.75 18C12.75 17.5858 13.0858 17.25 13.5 17.25H17.25V13.5Z" fill="#333333"/>
<path fill-rule="evenodd" clip-rule="evenodd" d="M12 9C10.3431 9 9 10.3431 9 12V24C9 25.6569 10.3431 27 12 27H24C25.6569 27 27 25.6569 27 24V12C27 10.3431 25.6569 9 24 9H12ZM24 10.5H12C11.1716 10.5 10.5 11.1716 10.5 12V24C10.5 24.8284 11.1716 25.5 12 25.5H24C24.8284 25.5 25.5 24.8284 25.5 24V12C25.5 11.1716 24.8284 10.5 24 10.5Z" fill="#333333"/>
</svg>
