<svg width="36" height="36" viewBox="0 0 36 36" fill="none" xmlns="http://www.w3.org/2000/svg">
  <path
    d="M21.1429 24.2859C21.1429 22.5526 19.7334 21.143 18.0001 21.143C16.2668 21.143 14.8572 22.5526 14.8572 24.2859C14.8572 26.0192 16.2668 27.4288 18.0001 27.4288C19.7334 27.4288 21.1429 26.0192 21.1429 24.2859ZM18.0001 25.8573C17.1338 25.8573 16.4286 25.1521 16.4286 24.2859C16.4286 23.4197 17.1338 22.7144 18.0001 22.7144C18.8663 22.7144 19.5715 23.4197 19.5715 24.2859C19.5715 25.1521 18.8663 25.8573 18.0001 25.8573Z"
    fill="#333333" />
  <path
    d="M28.2145 7H7.78572C7.35147 7 7 7.35147 7 7.78572V24.2859C7 24.3813 7.02262 24.4725 7.05525 24.5595C7.06191 24.5772 7.06717 24.5944 7.07489 24.6114C7.1112 24.6907 7.15925 24.763 7.21976 24.8264C7.23186 24.8391 7.24537 24.8487 7.25817 24.8605C7.28465 24.8847 7.30851 24.9112 7.33832 24.9318C11.4028 27.7457 14.6909 29.0002 17.9999 29.0002C21.3089 29.0002 24.5973 27.7457 28.6615 24.932C28.6913 24.9113 28.7155 24.8848 28.7418 24.8606C28.7546 24.8489 28.7681 24.8393 28.7801 24.8266C28.8406 24.7631 28.8888 24.6907 28.9249 24.6116C28.9328 24.5946 28.9381 24.5772 28.9446 24.5595C28.9774 24.4725 29 24.3813 29 24.2859V7.78572C29 7.35147 28.6485 7 28.2143 7H28.2145ZM8.57145 18.3256L15.643 11.2541L22.9448 18.556C23.0983 18.7093 23.2992 18.7861 23.5002 18.7861C23.7012 18.7861 23.9022 18.7093 24.0557 18.5558C24.3626 18.2489 24.3626 17.7517 24.0557 17.4447L21.8611 15.2501L25.0717 12.0399L27.4288 14.3971V22.8263C23.9215 20.5903 20.9671 19.5717 18.0002 19.5717C15.0333 19.5717 12.079 20.5904 8.57149 22.8265L8.57145 18.3256ZM27.4288 8.57145V12.1747L25.6271 10.373C25.3202 10.0661 24.8229 10.0661 24.516 10.373L20.75 14.139L16.1982 9.58723C15.8912 9.28031 15.394 9.28031 15.0871 9.58723L8.57145 16.1033V8.57163L27.4288 8.57145ZM18.0001 27.4288C15.2869 27.4288 12.5378 26.4535 9.19598 24.2859C12.5376 22.1183 15.2869 21.143 18.0001 21.143C20.7133 21.143 23.4625 22.1183 26.8043 24.2859C23.4625 26.4535 20.7133 27.4288 18.0001 27.4288Z"
    fill="#333333" />
</svg>