<svg width="36" height="36" viewBox="0 0 36 36" fill="none" xmlns="http://www.w3.org/2000/svg">
<path fill-rule="evenodd" clip-rule="evenodd" d="M24 27C25.6569 27 27 25.6569 27 24V13.9926C27 13.197 26.6839 12.4339 26.1213 11.8713L24.1287 9.87868C23.6836 9.43355 23.1129 9.14275 22.5 9.04071V9H12C10.3431 9 9 10.3431 9 12V24C9 25.6569 10.3431 27 12 27H24ZM25.5 24V13.9926C25.5 13.5948 25.342 13.2133 25.0607 12.932L23.068 10.9393C22.9064 10.7778 22.7118 10.6569 22.5 10.5832V13.5C22.5 14.3284 21.8284 15 21 15H15C14.1716 15 13.5 14.3284 13.5 13.5V10.5H12C11.1716 10.5 10.5 11.1716 10.5 12V24C10.5 24.8284 11.1716 25.5 12 25.5L12 19.5C12 18.6716 12.6716 18 13.5 18H22.5C23.3284 18 24 18.6716 24 19.5V25.5C24.8284 25.5 25.5 24.8284 25.5 24ZM22.5 25.5V20C22.5 19.7239 22.2761 19.5 22 19.5H14C13.7239 19.5 13.5 19.7239 13.5 20V25.5H22.5ZM15 10.5H21V13C21 13.2761 20.7761 13.5 20.5 13.5H15.5C15.2239 13.5 15 13.2761 15 13V10.5Z" fill="#404040"/>
</svg>
