<svg width="36" height="36" viewBox="0 0 36 36" fill="none" xmlns="http://www.w3.org/2000/svg">
  <path
    d="M13.6921 30H22.3078H22.3076C23.0215 29.9992 23.7059 29.6979 24.2105 29.1624C24.7154 28.6266 24.9993 27.9004 25 27.1429V8.85705C24.9993 8.09959 24.7153 7.37333 24.2105 6.83764C23.7059 6.3021 23.0215 6.00078 22.3076 6H13.6924C12.9786 6.00096 12.2943 6.3021 11.7895 6.83779C11.2848 7.37352 11.0009 8.09959 11 8.85705V27.1429C11.0009 27.9004 11.2849 28.6265 11.7895 29.1622C12.2943 29.6979 12.9787 29.9991 13.6924 30H13.6921ZM12.0767 8.85715C12.0771 8.40276 12.2475 7.96691 12.5504 7.6457C12.8533 7.32428 13.2638 7.14347 13.6921 7.14288H22.3078H22.3076C22.736 7.14345 23.1465 7.32426 23.4494 7.6457C23.7522 7.96694 23.9226 8.40277 23.923 8.85715V24.2856H12.077L12.0767 8.85715ZM12.0767 25.4283H23.9232L23.923 27.1428C23.9226 27.5971 23.7523 28.033 23.4494 28.3542C23.1465 28.6756 22.7359 28.8564 22.3076 28.857H13.6924C13.264 28.8564 12.8535 28.6756 12.5506 28.3542C12.2478 28.033 12.0774 27.5971 12.077 27.1428L12.0767 25.4283Z"
    fill="#333333" />
</svg>