<svg width="60" height="60" viewBox="0 0 60 60" fill="none" xmlns="http://www.w3.org/2000/svg">
<rect x="6.5" y="39.5" width="19" height="47" rx="1.5" transform="rotate(-90 6.5 39.5)" stroke="#333333"/>
<path fill-rule="evenodd" clip-rule="evenodd" d="M47.2268 31.5719C48.7195 29.7505 48.6157 27.0583 46.9155 25.3581C45.1047 23.5473 42.1689 23.5473 40.3581 25.3581C38.5473 27.1689 38.5473 30.1047 40.3581 31.9155C42.0583 33.6157 44.7505 33.7195 46.5719 32.2268C46.577 32.2324 46.5822 32.2379 46.5876 32.2434L49.5385 35.1942C49.7195 35.3753 50.0131 35.3753 50.1942 35.1942C50.3753 35.0131 50.3753 34.7195 50.1942 34.5385L47.2434 31.5876C47.2379 31.5822 47.2324 31.577 47.2268 31.5719ZM46.2597 26.0138C47.7084 27.4624 47.7084 29.8111 46.2597 31.2597C44.8111 32.7084 42.4624 32.7084 41.0138 31.2597C39.5652 29.8111 39.5652 27.4624 41.0138 26.0138C42.4624 24.5652 44.8111 24.5652 46.2597 26.0138Z" fill="#404040"/>
<rect x="0.5" y="0.5" width="59" height="59" rx="3.5" stroke="#B3B3B3"/>
</svg>
