<svg width="36" height="36" viewBox="0 0 36 36" fill="none" xmlns="http://www.w3.org/2000/svg">
<path fill-rule="evenodd" clip-rule="evenodd" d="M22 18C22 20.2091 20.2091 22 18 22C15.7909 22 14 20.2091 14 18C14 15.7909 15.7909 14 18 14C20.2091 14 22 15.7909 22 18ZM20.5 18C20.5 19.3807 19.3807 20.5 18 20.5C16.6193 20.5 15.5 19.3807 15.5 18C15.5 16.6193 16.6193 15.5 18 15.5C19.3807 15.5 20.5 16.6193 20.5 18Z" fill="#333333"/>
<path fill-rule="evenodd" clip-rule="evenodd" d="M21.5679 10.8397L21.1608 8.80388C21.0673 8.33646 20.6569 8 20.1802 8H15.8198C15.3431 8 14.9327 8.33646 14.8392 8.80388L14.432 10.8397C14.1257 10.9923 13.8295 11.1645 13.5452 11.3551L11.5748 10.7009C11.1224 10.5507 10.6269 10.7407 10.3909 11.1549L8.23215 14.9434C7.99616 15.3575 8.0853 15.8807 8.44513 16.1933L10.0124 17.555C9.99631 17.8433 9.99587 18.1323 10.0111 18.4206L8.43969 19.7775C8.0789 20.089 7.98816 20.6119 8.2229 21.0268L10.3701 24.8219C10.6048 25.2368 11.0998 25.4283 11.5526 25.2795L13.525 24.6313C13.8155 24.8273 14.1185 25.004 14.432 25.1603L14.8392 27.1961C14.9327 27.6635 15.3431 28 15.8198 28H20.1802C20.6569 28 21.0673 27.6635 21.1608 27.1961L21.5679 25.1603C21.8742 25.0077 22.1705 24.8355 22.4547 24.645L24.4251 25.2991C24.8775 25.4493 25.373 25.2593 25.609 24.8451L27.7678 21.0566C28.0038 20.6425 27.9147 20.1193 27.5548 19.8067L25.9876 18.445C26.0037 18.1566 26.0041 17.8677 25.9889 17.5794L27.5603 16.2225C27.9211 15.911 28.0118 15.3881 27.7771 14.9732L25.6299 11.1781C25.3952 10.7632 24.9002 10.5717 24.4474 10.7205L22.475 11.3687C22.1844 11.1726 21.8814 10.9959 21.5679 10.8397ZM16.2297 9.5L15.8045 11.6259C15.7704 11.7963 15.6498 11.9354 15.4895 12.0025C14.966 12.222 14.4772 12.5079 14.0338 12.8499C13.8962 12.956 13.7155 12.9921 13.5505 12.9373L11.4913 12.2537L9.73836 15.3299L11.3759 16.7526C11.5069 16.8665 11.5681 17.0399 11.5473 17.2122C11.5161 17.4704 11.5 17.7333 11.5 18C11.5 18.2599 11.5153 18.5162 11.5449 18.7681C11.5652 18.9405 11.5035 19.1137 11.3721 19.2272L9.73027 20.6449L11.4738 23.7265L13.5351 23.0491C13.7002 22.9948 13.8808 23.0314 14.0182 23.138C14.4657 23.4853 14.9598 23.7754 15.4895 23.9975C15.6498 24.0646 15.7704 24.2037 15.8045 24.3741L16.2297 26.5H19.7703L20.1955 24.3741C20.2295 24.2038 20.3502 24.0646 20.5105 23.9975C21.034 23.778 21.5228 23.4921 21.9661 23.1501C22.1038 23.044 22.2845 23.0079 22.4495 23.0627L24.5087 23.7463L26.2616 20.6701L24.6241 19.2474C24.4931 19.1336 24.4319 18.9601 24.4527 18.7878C24.4839 18.5296 24.5 18.2667 24.5 18C24.5 17.7401 24.4847 17.4838 24.4551 17.2319C24.4348 17.0595 24.4965 16.8863 24.6279 16.7728L24.8539 16.5776L24.8481 16.5499L24.8984 16.5392L26.2697 15.3551L24.5262 12.2735L22.4649 12.9509C22.2998 13.0052 22.1192 12.9686 21.9818 12.862C21.5343 12.5147 21.0402 12.2245 20.5105 12.0025C20.3502 11.9354 20.2295 11.7962 20.1955 11.6259L19.7703 9.5H16.2297Z" fill="#333333"/>
</svg>
