<svg width="12" height="12" viewBox="0 0 12 12" fill="none" xmlns="http://www.w3.org/2000/svg">
<path fill-rule="evenodd" clip-rule="evenodd" d="M3.375 2.625C3.375 1.79657 4.04657 1.125 4.875 1.125H8.625C9.45343 1.125 10.125 1.79657 10.125 2.625V7.875C10.125 8.70343 9.45343 9.375 8.625 9.375H4.875C4.04657 9.375 3.375 8.70343 3.375 7.875V2.625ZM4.875 1.875H8.625C9.03921 1.875 9.375 2.21079 9.375 2.625V7.875C9.375 8.28921 9.03921 8.625 8.625 8.625H4.875C4.46079 8.625 4.125 8.28921 4.125 7.875V2.625C4.125 2.21079 4.46079 1.875 4.875 1.875Z" fill="#333333"/>
<path d="M1.875 3.375C1.875 2.96079 2.21079 2.625 2.625 2.625V8.0625C2.625 8.33335 2.67835 8.60155 2.782 8.85178C2.88565 9.10202 3.03757 9.32939 3.22909 9.52091C3.42061 9.71243 3.64798 9.86435 3.89822 9.968C4.14845 10.0717 4.41665 10.125 4.6875 10.125H8.25C8.25 10.5392 7.91421 10.875 7.5 10.875H4.6875C4.31816 10.875 3.95243 10.8023 3.6112 10.6609C3.26997 10.5196 2.95993 10.3124 2.69876 10.0512C2.4376 9.79007 2.23043 9.48003 2.08909 9.1388C1.94775 8.79757 1.875 8.43184 1.875 8.0625V3.375Z" fill="#333333"/>
</svg>
