<svg width="60" height="60" viewBox="0 0 60 60" fill="none" xmlns="http://www.w3.org/2000/svg">
<path d="M21.833 25.0469V35H20.5342V25.0469H21.833ZM25.0322 25.0469V26.127H17.3418V25.0469H25.0322ZM28.7031 35.1367C28.1882 35.1367 27.721 35.0501 27.3018 34.877C26.887 34.6992 26.5293 34.4508 26.2285 34.1318C25.9323 33.8128 25.7044 33.4346 25.5449 32.9971C25.3854 32.5596 25.3057 32.0811 25.3057 31.5615V31.2744C25.3057 30.6729 25.3945 30.1374 25.5723 29.668C25.75 29.194 25.9915 28.793 26.2969 28.4648C26.6022 28.1367 26.9486 27.8883 27.3359 27.7197C27.7233 27.5511 28.1243 27.4668 28.5391 27.4668C29.0677 27.4668 29.5234 27.5579 29.9062 27.7402C30.2936 27.9225 30.6104 28.1777 30.8564 28.5059C31.1025 28.8294 31.2848 29.2122 31.4033 29.6543C31.5218 30.0918 31.5811 30.5703 31.5811 31.0898V31.6572H26.0576V30.625H30.3164V30.5293C30.2982 30.2012 30.2298 29.8822 30.1113 29.5723C29.9974 29.2624 29.8151 29.0072 29.5645 28.8066C29.3138 28.6061 28.972 28.5059 28.5391 28.5059C28.252 28.5059 27.9876 28.5674 27.7461 28.6904C27.5046 28.8089 27.2972 28.9867 27.124 29.2236C26.9508 29.4606 26.8164 29.75 26.7207 30.0918C26.625 30.4336 26.5771 30.8278 26.5771 31.2744V31.5615C26.5771 31.9124 26.625 32.2428 26.7207 32.5527C26.821 32.8581 26.9645 33.127 27.1514 33.3594C27.3428 33.5918 27.5729 33.7741 27.8418 33.9062C28.1152 34.0384 28.4251 34.1045 28.7715 34.1045C29.2181 34.1045 29.5964 34.0133 29.9062 33.8311C30.2161 33.6488 30.4873 33.4049 30.7197 33.0996L31.4854 33.708C31.3258 33.9495 31.123 34.1797 30.877 34.3984C30.6309 34.6172 30.3278 34.7949 29.9678 34.9316C29.6123 35.0684 29.1908 35.1367 28.7031 35.1367ZM33.9121 27.6035L35.5322 30.2969L37.1729 27.6035H38.6562L36.2363 31.2539L38.7314 35H37.2686L35.5596 32.2246L33.8506 35H32.3809L34.8691 31.2539L32.4561 27.6035H33.9121ZM43.0996 27.6035V28.5742H39.1006V27.6035H43.0996ZM40.4541 25.8057H41.7188V33.168C41.7188 33.4186 41.7575 33.6077 41.835 33.7354C41.9124 33.863 42.0127 33.9473 42.1357 33.9883C42.2588 34.0293 42.391 34.0498 42.5322 34.0498C42.637 34.0498 42.7464 34.0407 42.8604 34.0225C42.9788 33.9997 43.0677 33.9814 43.127 33.9678L43.1338 35C43.0335 35.0319 42.9014 35.0615 42.7373 35.0889C42.5778 35.1208 42.3841 35.1367 42.1562 35.1367C41.8464 35.1367 41.5615 35.0752 41.3018 34.9521C41.042 34.8291 40.8346 34.624 40.6797 34.3369C40.5293 34.0452 40.4541 33.6533 40.4541 33.1611V25.8057Z" fill="black"/>
<rect x="0.5" y="0.5" width="59" height="59" rx="3.5" stroke="#B3B3B3"/>
</svg>
