<svg width="36" height="36" viewBox="0 0 36 36" fill="none" xmlns="http://www.w3.org/2000/svg">
<path d="M15 15.75C15 15.3358 15.3358 15 15.75 15C16.1642 15 16.5 15.3358 16.5 15.75V21.75C16.5 22.1642 16.1642 22.5 15.75 22.5C15.3358 22.5 15 22.1642 15 21.75V15.75Z" fill="#333333"/>
<path d="M20.25 15C19.8358 15 19.5 15.3358 19.5 15.75V21.75C19.5 22.1642 19.8358 22.5 20.25 22.5C20.6642 22.5 21 22.1642 21 21.75V15.75C21 15.3358 20.6642 15 20.25 15Z" fill="#333333"/>
<path fill-rule="evenodd" clip-rule="evenodd" d="M13.5 11.25V9.75C13.5 8.92157 14.1716 8.25 15 8.25H21C21.8284 8.25 22.5 8.92157 22.5 9.75V11.25H26.25C26.6642 11.25 27 11.5858 27 12C27 12.4142 26.6642 12.75 26.25 12.75H25.3636L24.248 25.0216C24.1076 26.5668 22.812 27.75 21.2604 27.75H14.7396C13.188 27.75 11.8924 26.5668 11.752 25.0216L10.6364 12.75H9.75C9.33579 12.75 9 12.4142 9 12C9 11.5858 9.33579 11.25 9.75 11.25H13.5ZM20.85 9.75C20.9328 9.75 21 9.81716 21 9.9V11.25H15V9.9C15 9.81716 15.0672 9.75 15.15 9.75H20.85ZM12.1425 12.75L13.2458 24.8858C13.316 25.6584 13.9638 26.25 14.7396 26.25H21.2604C22.0362 26.25 22.684 25.6584 22.7542 24.8858L23.8575 12.75H12.1425Z" fill="#333333"/>
</svg>
