<svg width="12" height="14" viewBox="0 0 12 14" fill="none" xmlns="http://www.w3.org/2000/svg">
<path d="M4 5.5C4 5.22386 4.22386 5 4.5 5C4.77614 5 5 5.22386 5 5.5V9.5C5 9.77614 4.77614 10 4.5 10C4.22386 10 4 9.77614 4 9.5V5.5Z" fill="#333333"/>
<path d="M7.5 5C7.22386 5 7 5.22386 7 5.5V9.5C7 9.77614 7.22386 10 7.5 10C7.77614 10 8 9.77614 8 9.5V5.5C8 5.22386 7.77614 5 7.5 5Z" fill="#333333"/>
<path fill-rule="evenodd" clip-rule="evenodd" d="M3 2.5V1.5C3 0.947715 3.44772 0.5 4 0.5H8C8.55228 0.5 9 0.947715 9 1.5V2.5H11.5C11.7761 2.5 12 2.72386 12 3C12 3.27614 11.7761 3.5 11.5 3.5H10.9091L10.1654 11.6811C10.0717 12.7112 9.20798 13.5 8.17357 13.5H3.82643C2.79202 13.5 1.92829 12.7112 1.83464 11.6811L1.09091 3.5H0.5C0.223858 3.5 0 3.27614 0 3C0 2.72386 0.223858 2.5 0.5 2.5H3ZM7.9 1.5C7.95523 1.5 8 1.54477 8 1.6V2.5H4V1.6C4 1.54477 4.04477 1.5 4.1 1.5H7.9ZM2.09503 3.5L2.83054 11.5905C2.87736 12.1056 3.30923 12.5 3.82643 12.5H8.17357C8.69077 12.5 9.12264 12.1056 9.16946 11.5905L9.90497 3.5H2.09503Z" fill="#333333"/>
</svg>
