<svg width="64" height="64" viewBox="0 0 64 64" fill="none" xmlns="http://www.w3.org/2000/svg">
  <path
    d="M30 20.6667C30 19.5621 30.8954 18.6667 32 18.6667C33.1046 18.6667 34 19.5621 34 20.6667V34C34 35.1046 33.1046 36 32 36C30.8954 36 30 35.1046 30 34V20.6667Z"
    fill="#D9A54C" />
  <path
    d="M32 45.3333C33.4728 45.3333 34.6667 44.1394 34.6667 42.6667C34.6667 41.1939 33.4728 40 32 40C30.5272 40 29.3333 41.1939 29.3333 42.6667C29.3333 44.1394 30.5272 45.3333 32 45.3333Z"
    fill="#D9A54C" />
  <path fill-rule="evenodd" clip-rule="evenodd"
    d="M32 58C46.3594 58 58 46.3594 58 32C58 17.6406 46.3594 6 32 6C17.6406 6 6 17.6406 6 32C6 46.3594 17.6406 58 32 58ZM32 54C44.1503 54 54 44.1503 54 32C54 19.8497 44.1503 10 32 10C19.8497 10 10 19.8497 10 32C10 44.1503 19.8497 54 32 54Z"
    fill="#D9A54C" />
</svg>