<svg width="60" height="60" viewBox="0 0 60 60" fill="none" xmlns="http://www.w3.org/2000/svg">
<path d="M56 0.5H4C2.067 0.5 0.5 2.067 0.5 4V56C0.5 57.933 2.067 59.5 4 59.5H56C57.933 59.5 59.5 57.933 59.5 56V4C59.5 2.067 57.933 0.5 56 0.5Z" stroke="#B3B3B3"/>
<path d="M29.5225 10.8809C25.5893 10.9689 21.662 12.2694 18.3398 14.8184C10.7464 20.6447 8.64406 31.2124 13.4297 39.501C13.4789 39.5864 13.5445 39.6613 13.6227 39.7214C13.7009 39.7814 13.7901 39.8255 13.8854 39.8511C13.9806 39.8767 14.0799 39.8832 14.1777 39.8704C14.2754 39.8576 14.3697 39.8257 14.4551 39.7764C14.5405 39.7272 14.6154 39.6616 14.6755 39.5834C14.7356 39.5052 14.7796 39.416 14.8052 39.3207C14.8308 39.2255 14.8373 39.1262 14.8245 39.0284C14.8117 38.9307 14.7797 38.8364 14.7305 38.751C10.3154 31.1043 12.2485 21.3858 19.2539 16.0107C25.7585 11.0198 34.7446 11.2254 40.9951 16.2773H40.2275C40.1282 16.2759 40.0295 16.2943 39.9373 16.3314C39.845 16.3684 39.7611 16.4234 39.6903 16.4932C39.6195 16.563 39.5633 16.6462 39.525 16.7379C39.4866 16.8295 39.4669 16.9279 39.4669 17.0273C39.4669 17.1267 39.4866 17.2251 39.525 17.3168C39.5633 17.4085 39.6195 17.4917 39.6903 17.5615C39.7611 17.6312 39.845 17.6863 39.9373 17.7233C40.0295 17.7604 40.1282 17.7787 40.2275 17.7773H42.9551C43.154 17.7773 43.3447 17.6983 43.4854 17.5577C43.626 17.417 43.7051 17.2262 43.7051 17.0273V14.2998C43.7063 14.1996 43.6873 14.1001 43.6494 14.0074C43.6115 13.9146 43.5554 13.8303 43.4844 13.7596C43.4134 13.6889 43.3289 13.6331 43.236 13.5955C43.1431 13.558 43.0436 13.5395 42.9434 13.541C42.745 13.5441 42.5559 13.6257 42.4175 13.7679C42.2791 13.9101 42.2028 14.1014 42.2051 14.2998V15.3252C39.026 12.6618 35.1571 11.1779 31.207 10.9189C30.6467 10.8822 30.0844 10.8683 29.5225 10.8809ZM29.959 14.8037C24.5813 14.8037 20.0753 17.7746 17.3848 22.0049H17.3525V22.0488C15.8785 24.3858 14.8037 26.9927 14.8037 29.9561C14.8037 32.9193 15.8785 35.5263 17.3525 37.8633V37.9102H17.3848C20.0753 42.1406 24.5813 45.1113 29.959 45.1113C35.3366 45.1113 39.8427 42.1406 42.5332 37.9102H42.5625V37.8662C44.0378 35.5285 45.1143 32.9208 45.1143 29.9561C45.1143 26.9913 44.0378 24.3836 42.5625 22.0459V22.0049H42.5332C39.8427 17.7746 35.3366 14.8037 29.959 14.8037ZM29.209 16.4561V22.0049H23.9678C24.3988 20.4222 24.9174 18.8273 25.5615 17.2061C26.7079 16.8 27.9226 16.5295 29.209 16.4561ZM30.709 16.4561C31.9482 16.5268 33.1206 16.7818 34.2305 17.1621C34.8824 18.7988 35.4068 20.4076 35.8418 22.0049H30.709V16.4561ZM36.1231 17.9766C37.9499 18.9476 39.5287 20.3248 40.7666 22.0049H37.4121C37.066 20.669 36.6152 19.325 36.1231 17.9766ZM23.6602 18.0439C23.1786 19.3698 22.7348 20.6911 22.3945 22.0049H19.1514C20.3593 20.3654 21.8896 19.0112 23.6602 18.0439ZM45.8818 20.127C45.7535 20.1335 45.6289 20.1728 45.5201 20.2413C45.4113 20.3097 45.3218 20.4049 45.2604 20.5178C45.1989 20.6308 45.1675 20.7576 45.1691 20.8861C45.1707 21.0146 45.2053 21.1406 45.2695 21.252C49.6846 28.8987 47.7515 38.6169 40.7461 43.9922C34.2552 48.9725 25.2947 48.7729 19.0459 43.7519H19.7666C19.866 43.7534 19.9647 43.735 20.0569 43.6979C20.1491 43.6609 20.2331 43.6059 20.3038 43.5361C20.3746 43.4663 20.4308 43.3831 20.4692 43.2914C20.5075 43.1997 20.5273 43.1013 20.5273 43.0019C20.5273 42.9026 20.5075 42.8042 20.4692 42.7125C20.4308 42.6208 20.3746 42.5376 20.3038 42.4678C20.2331 42.398 20.1491 42.343 20.0569 42.306C19.9647 42.2689 19.866 42.2505 19.7666 42.252H17.1621C17.0721 42.2405 16.9808 42.2455 16.8926 42.2666C16.8916 42.2666 16.8906 42.2666 16.8897 42.2666C16.7201 42.3011 16.5677 42.3931 16.4582 42.5272C16.3487 42.6612 16.289 42.8289 16.2891 43.0019V45.7295C16.2877 45.8289 16.306 45.9275 16.3431 46.0198C16.3801 46.112 16.4352 46.1959 16.5049 46.2667C16.5747 46.3375 16.6579 46.3937 16.7496 46.4321C16.8413 46.4704 16.9397 46.4902 17.0391 46.4902C17.1385 46.4902 17.2369 46.4704 17.3286 46.4321C17.4202 46.3937 17.5034 46.3375 17.5732 46.2667C17.643 46.1959 17.698 46.112 17.7351 46.0198C17.7721 45.9275 17.7905 45.8289 17.7891 45.7295V44.6689C20.9694 47.3357 24.8403 48.8249 28.793 49.084C33.2759 49.3778 37.8634 48.0977 41.6602 45.1846C49.2536 39.3583 51.356 28.7905 46.5703 20.502C46.5013 20.3821 46.4004 20.2836 46.2789 20.2174C46.1574 20.1513 46.02 20.12 45.8818 20.127V20.127ZM18.1406 23.5049H22.0371C21.6251 25.4077 21.3718 27.3054 21.29 29.209H16.4561C16.575 27.1241 17.192 25.2347 18.1406 23.5049ZM23.5576 23.5049H29.209V29.209H22.7725C22.859 27.31 23.1208 25.4156 23.5576 23.5049ZM30.709 23.5049H36.252C36.6888 25.4156 36.9506 27.31 37.0371 29.209H30.709V23.5049ZM37.7695 23.5049H41.7773C42.726 25.2347 43.343 27.1241 43.4619 29.209H38.5166C38.4345 27.3054 38.1818 25.4077 37.7695 23.5049ZM16.4561 30.709H21.2637C21.2734 32.5969 21.4509 34.4952 21.8203 36.4131H18.1406C17.192 34.6833 16.575 32.7937 16.4561 30.709ZM22.7432 30.709H29.209V36.4131H23.335C22.9411 34.4907 22.7539 32.5954 22.7432 30.709ZM30.709 30.709H37.0664C37.0557 32.5954 36.8685 34.4907 36.4746 36.4131H30.709V30.709ZM38.543 30.709H43.4619C43.343 32.7937 42.726 34.6833 41.7773 36.4131H37.9893C38.3585 34.4952 38.5336 32.5969 38.543 30.709ZM19.1514 37.9131H22.1514C22.4512 39.1499 22.8219 40.3979 23.2822 41.6572C21.672 40.7073 20.2725 39.4347 19.1514 37.9131ZM23.6807 37.9131H29.209V43.4619C27.8115 43.3822 26.4964 43.0734 25.2656 42.6035C24.6061 41.0145 24.0763 39.4521 23.6807 37.9131ZM30.709 37.9131H36.1289C35.7293 39.4675 35.1923 41.0449 34.5234 42.6504C33.3291 43.0919 32.058 43.385 30.709 43.4619V37.9131ZM37.6582 37.9131H40.7666C39.6128 39.4791 38.1682 40.7876 36.4981 41.7451C36.973 40.4559 37.3516 39.1787 37.6582 37.9131Z" fill="black"/>
</svg>
