<svg width="139" height="254" viewBox="0 0 139 254" fill="none" xmlns="http://www.w3.org/2000/svg">
<g clip-path="url(#clip0_8463_22631)" filter="url(#filter0_d_8463_22631)">
<path fill-rule="evenodd" clip-rule="evenodd" d="M109.363 8H29.6367C20.6124 8 13.2971 15.1442 13.2971 23.9569V40.1281C12.9686 40.2414 12.7336 40.5471 12.7336 40.9065V47.7845C12.7336 48.1438 12.9686 48.4496 13.2971 48.5628V57.6611C12.9686 57.7744 12.7336 58.0801 12.7336 58.4394V71.6452C12.7336 72.0045 12.9686 72.3103 13.2971 72.4235V77.4697C12.9686 77.583 12.7336 77.8887 12.7336 78.2481V91.4538C12.7336 91.8132 12.9686 92.1189 13.2971 92.2322V222.043C13.2971 230.856 20.6124 238 29.6367 238H109.363C118.387 238 125.703 230.856 125.703 222.043V85.9874C126.031 85.8741 126.266 85.5684 126.266 85.209V62.3741C126.266 62.0148 126.031 61.709 125.703 61.5958V23.9569C125.703 15.1442 118.387 8 109.363 8Z" fill="#B3B3B3"/>
<mask id="mask0_8463_22631" style="mask-type:alpha" maskUnits="userSpaceOnUse" x="12" y="8" width="115" height="230">
<path fill-rule="evenodd" clip-rule="evenodd" d="M109.363 8H29.6367C20.6124 8 13.2971 15.1442 13.2971 23.9569V40.1281C12.9686 40.2414 12.7336 40.5471 12.7336 40.9065V47.7845C12.7336 48.1438 12.9686 48.4496 13.2971 48.5628V57.6611C12.9686 57.7744 12.7336 58.0801 12.7336 58.4394V71.6452C12.7336 72.0045 12.9686 72.3103 13.2971 72.4235V77.4697C12.9686 77.583 12.7336 77.8887 12.7336 78.2481V91.4538C12.7336 91.8132 12.9686 92.1189 13.2971 92.2322V222.043C13.2971 230.856 20.6124 238 29.6367 238H109.363C118.387 238 125.703 230.856 125.703 222.043V86.2543C126.031 86.141 126.266 85.8352 126.266 85.4759V62.6409C126.266 62.2816 126.031 61.9758 125.703 61.8626V23.9569C125.703 15.1442 118.387 8 109.363 8Z" fill="#D0AD96"/>
</mask>
<g mask="url(#mask0_8463_22631)">
<g style="mix-blend-mode:overlay" opacity="0.5">
<path fill-rule="evenodd" clip-rule="evenodd" d="M108.696 9.3342H30.3042C21.6453 9.3342 14.6258 16.3823 14.6258 25.0767V220.924C14.6258 229.618 21.6453 236.666 30.3042 236.666H108.696C117.355 236.666 124.374 229.618 124.374 220.924V25.0767C124.374 16.3823 117.355 9.3342 108.696 9.3342ZM30.3042 9.06738C21.4985 9.06738 14.3601 16.235 14.3601 25.0767V220.924C14.3601 229.765 21.4985 236.933 30.3042 236.933H108.696C117.501 236.933 124.64 229.765 124.64 220.924V25.0767C124.64 16.235 117.501 9.06738 108.696 9.06738H30.3042Z" fill="url(#paint0_radial_8463_22631)"/>
</g>
</g>
<g style="mix-blend-mode:overlay">
<path d="M12.7314 40.9457C12.7314 40.6406 12.9847 40.1265 13.2971 40.1265V48.5613C12.9847 48.5613 12.7314 48.0472 12.7314 47.7421V40.9457Z" fill="url(#paint1_linear_8463_22631)" fill-opacity="0.3"/>
<path d="M12.7314 40.9457C12.7314 40.6406 12.9847 40.1265 13.2971 40.1265V48.5613C12.9847 48.5613 12.7314 48.0472 12.7314 47.7421V40.9457Z" fill="url(#paint2_linear_8463_22631)" fill-opacity="0.3"/>
<path d="M12.7314 58.4764C12.7314 58.1714 12.9847 57.6572 13.2971 57.6572V72.4256C12.9847 72.4256 12.7314 71.9115 12.7314 71.6064V58.4764Z" fill="url(#paint3_linear_8463_22631)" fill-opacity="0.3"/>
<path d="M12.7314 58.4764C12.7314 58.1714 12.9847 57.6572 13.2971 57.6572V72.4256C12.9847 72.4256 12.7314 71.9115 12.7314 71.6064V58.4764Z" fill="url(#paint4_linear_8463_22631)" fill-opacity="0.3"/>
<path d="M12.7314 78.285C12.7314 77.98 12.9847 77.4658 13.2971 77.4658V92.2342C12.9847 92.2342 12.7314 91.7201 12.7314 91.415V78.285Z" fill="url(#paint5_linear_8463_22631)" fill-opacity="0.3"/>
<path d="M12.7314 78.285C12.7314 77.98 12.9847 77.4658 13.2971 77.4658V92.2342C12.9847 92.2342 12.7314 91.7201 12.7314 91.415V78.285Z" fill="url(#paint6_linear_8463_22631)" fill-opacity="0.3"/>
</g>
<g style="mix-blend-mode:overlay">
<path d="M63.2551 16.1547C63.2551 15.8508 63.5074 15.6045 63.8186 15.6045H75.0873C75.3985 15.6045 75.6507 15.8508 75.6507 16.1547C75.6507 16.4586 75.3985 16.705 75.0873 16.705H63.8186C63.5074 16.705 63.2551 16.4586 63.2551 16.1547Z" fill="black"/>
</g>
<g style="mix-blend-mode:lighten" opacity="0.2">
<path fill-rule="evenodd" clip-rule="evenodd" d="M75.0873 15.7884H63.8186C63.6114 15.7884 63.4434 15.9524 63.4434 16.1547C63.4434 16.3571 63.6114 16.5211 63.8186 16.5211H75.0873C75.2945 16.5211 75.4624 16.3571 75.4624 16.1547C75.4624 15.9524 75.2945 15.7884 75.0873 15.7884ZM63.8186 15.6045C63.5074 15.6045 63.2551 15.8508 63.2551 16.1547C63.2551 16.4586 63.5074 16.705 63.8186 16.705H75.0873C75.3985 16.705 75.6507 16.4586 75.6507 16.1547C75.6507 15.8508 75.3985 15.6045 75.0873 15.6045H63.8186Z" fill="url(#paint7_linear_8463_22631)"/>
</g>
<g style="mix-blend-mode:overlay">
<path d="M82.8816 15.9513C82.8816 16.7323 82.251 17.3654 81.473 17.3654C80.6951 17.3654 80.0645 16.7323 80.0645 15.9513C80.0645 15.1702 80.6951 14.5371 81.473 14.5371C82.251 14.5371 82.8816 15.1702 82.8816 15.9513Z" fill="black"/>
</g>
<g style="mix-blend-mode:lighten" opacity="0.2">
<path fill-rule="evenodd" clip-rule="evenodd" d="M81.473 17.1764C82.147 17.1764 82.6933 16.6279 82.6933 15.9513C82.6933 15.2747 82.147 14.7262 81.473 14.7262C80.7991 14.7262 80.2528 15.2747 80.2528 15.9513C80.2528 16.6279 80.7991 17.1764 81.473 17.1764ZM81.473 17.3654C82.251 17.3654 82.8816 16.7323 82.8816 15.9513C82.8816 15.1702 82.251 14.5371 81.473 14.5371C80.6951 14.5371 80.0645 15.1702 80.0645 15.9513C80.0645 16.7323 80.6951 17.3654 81.473 17.3654Z" fill="url(#paint8_linear_8463_22631)"/>
</g>
<mask id="mask1_8463_22631" style="mask-type:alpha" maskUnits="userSpaceOnUse" x="19" y="14" width="101" height="218">
<path d="M31.1014 14.4038C24.3504 14.4038 19.6748 18.8317 19.6748 25.6103V219.856C19.6748 226.635 24.3504 231.063 31.1014 231.063H107.633C114.384 231.063 119.325 226.635 119.325 219.856V25.6103C119.325 18.8317 114.384 14.4038 107.633 14.4038H98.5756C97.6599 14.7274 97.0035 15.6036 97.0035 16.6337C97.0035 19.8967 94.9005 22.5419 91.6508 22.5419H47.0834C43.8337 22.5419 41.7307 19.8967 41.7307 16.6337C41.7307 15.6036 41.0744 14.7274 40.1586 14.4038H31.1014Z" fill="black"/>
</mask>
<g mask="url(#mask1_8463_22631)">
<g clip-path="url(#clip1_8463_22631)">
<rect width="99.6503" height="216.659" transform="translate(19.6748 14.4038)" fill="white"/>
<rect x="26" y="30.5" width="40" height="40" rx="4" fill="#F44532"/>
<rect x="26" y="78.5" width="40" height="40" rx="4" fill="#F44532"/>
<rect x="26" y="126.5" width="40" height="40" rx="4" fill="#F44532"/>
<rect x="26" y="174.5" width="40" height="40" rx="4" fill="#F44532"/>
<rect x="73" y="30.5" width="40" height="40" rx="4" fill="#F44532"/>
<rect x="73" y="78.5" width="40" height="40" rx="4" fill="#F44532"/>
<rect x="73" y="126.5" width="40" height="40" rx="4" fill="#F44532"/>
<rect x="73" y="174.5" width="40" height="40" rx="4" fill="#F44532"/>
</g>
</g>
</g>
<defs>
<filter id="filter0_d_8463_22631" x="0.5" y="0" width="138" height="254" filterUnits="userSpaceOnUse" color-interpolation-filters="sRGB">
<feFlood flood-opacity="0" result="BackgroundImageFix"/>
<feColorMatrix in="SourceAlpha" type="matrix" values="0 0 0 0 0 0 0 0 0 0 0 0 0 0 0 0 0 0 127 0" result="hardAlpha"/>
<feOffset dy="4"/>
<feGaussianBlur stdDeviation="6"/>
<feColorMatrix type="matrix" values="0 0 0 0 0 0 0 0 0 0 0 0 0 0 0 0 0 0 0.1 0"/>
<feBlend mode="normal" in2="BackgroundImageFix" result="effect1_dropShadow_8463_22631"/>
<feBlend mode="normal" in="SourceGraphic" in2="effect1_dropShadow_8463_22631" result="shape"/>
</filter>
<radialGradient id="paint0_radial_8463_22631" cx="0" cy="0" r="1" gradientUnits="userSpaceOnUse" gradientTransform="translate(69.3671 106.19) rotate(-167.387) scale(51.6465 113.016)">
<stop stop-color="#636363"/>
<stop offset="1"/>
</radialGradient>
<linearGradient id="paint1_linear_8463_22631" x1="13.4932" y1="43.1639" x2="12.7314" y2="43.1639" gradientUnits="userSpaceOnUse">
<stop/>
<stop offset="1" stop-color="#787878" stop-opacity="0.4"/>
</linearGradient>
<linearGradient id="paint2_linear_8463_22631" x1="13.0143" y1="40.1265" x2="13.0143" y2="48.5613" gradientUnits="userSpaceOnUse">
<stop/>
<stop offset="0.10159" stop-opacity="0"/>
<stop offset="0.890418" stop-opacity="0"/>
<stop offset="1"/>
</linearGradient>
<linearGradient id="paint3_linear_8463_22631" x1="13.4932" y1="62.9754" x2="12.7314" y2="62.9754" gradientUnits="userSpaceOnUse">
<stop/>
<stop offset="1" stop-color="#787878" stop-opacity="0.4"/>
</linearGradient>
<linearGradient id="paint4_linear_8463_22631" x1="13.0143" y1="57.6572" x2="13.0143" y2="72.4256" gradientUnits="userSpaceOnUse">
<stop/>
<stop offset="0.10159" stop-opacity="0"/>
<stop offset="0.890418" stop-opacity="0"/>
<stop offset="1"/>
</linearGradient>
<linearGradient id="paint5_linear_8463_22631" x1="13.4932" y1="82.784" x2="12.7314" y2="82.784" gradientUnits="userSpaceOnUse">
<stop/>
<stop offset="1" stop-color="#787878" stop-opacity="0.4"/>
</linearGradient>
<linearGradient id="paint6_linear_8463_22631" x1="13.0143" y1="77.4658" x2="13.0143" y2="92.2342" gradientUnits="userSpaceOnUse">
<stop/>
<stop offset="0.10159" stop-opacity="0"/>
<stop offset="0.890418" stop-opacity="0"/>
<stop offset="1"/>
</linearGradient>
<linearGradient id="paint7_linear_8463_22631" x1="68.8099" y1="16.705" x2="68.8099" y2="15.6045" gradientUnits="userSpaceOnUse">
<stop stop-color="white"/>
<stop offset="1" stop-color="white" stop-opacity="0"/>
</linearGradient>
<linearGradient id="paint8_linear_8463_22631" x1="81.3269" y1="17.3654" x2="81.3269" y2="14.5371" gradientUnits="userSpaceOnUse">
<stop stop-color="white"/>
<stop offset="1" stop-color="white" stop-opacity="0"/>
</linearGradient>
<clipPath id="clip0_8463_22631">
<rect width="114" height="230" fill="white" transform="translate(12.5 8)"/>
</clipPath>
<clipPath id="clip1_8463_22631">
<rect width="99.6503" height="216.659" fill="white" transform="translate(19.6748 14.4038)"/>
</clipPath>
</defs>
</svg>
